Varta-Regular.ufo
<glyph name="dotlessi" format="2">
  <advance width="498.679012345679"/>
  <unicode hex="0131"/>
  <anchor x="249.45679012345678" y="0.0" name="bottom"/>
  <anchor x="448.74074074074076" y="10.0" name="ogonek"/>
  <anchor x="249.45679012345678" y="993.0493827160494" name="top"/>
  <outline>
    <contour>
      <point x="171.07407407407408" y="0.0" type="line"/>
      <point x="327.0740740740741" y="0.0" type="line"/>
      <point x="327.0740740740741" y="993.0493827160494" type="line"/>
      <point x="171.07407407407408" y="993.0493827160494" type="line"/>
    </contour>
  </outline>
</glyph>
<glyph name="dotlessj" format="2">
  <advance width="500.61728395061726"/>
  <unicode hex="0237"/>
  <anchor x="250.69135802469137" y="-1006.0" name="bottom"/>
  <anchor x="250.69135802469137" y="993.0493827160494" name="top"/>
  <outline>
    <contour>
      <point x="64.4074074074074" y="-447.4320987654321" type="curve" smooth="yes"/>
      <point x="255.37037037037038" y="-447.4320987654321"/>
      <point x="329.77777777777777" y="-326.81481481481484"/>
      <point x="329.77777777777777" y="-126.0" type="curve" smooth="yes"/>
      <point x="329.77777777777777" y="993.283950617284" type="line"/>
      <point x="172.07407407407408" y="993.283950617284" type="line"/>
      <point x="172.07407407407408" y="-124.40740740740742" type="line"/>
      <point x="172.07407407407408" y="-245.23456790123458"/>
      <point x="148.37037037037038" y="-319.41975308641975"/>
      <point x="48.41975308641975" y="-319.41975308641975" type="curve" smooth="yes"/>
      <point x="12.358024691358025" y="-319.41975308641975"/>
      <point x="-22.469135802469136" y="-310.8888888888889"/>
      <point x="-46.7037037037037" y="-302.8888888888889" type="curve"/>
      <point x="-79.51851851851852" y="-421.962962962963" type="line"/>
      <point x="-45.58024691358025" y="-435.4320987654321"/>
      <point x="4.888888888888889" y="-447.4320987654321"/>
    </contour>
  </outline>
</glyph>
<glyph name="brevecomb" format="2">
  <unicode hex="0306"/>
  <anchor x="259.69135802469134" y="993.0493827160494" name="_top"/>
  <anchor x="259.69135802469134" y="1341.5432098765432" name="top"/>
  <outline>
    <contour>
      <point x="259.69135802469134" y="1117.4938271604938" type="curve" smooth="yes"/>
      <point x="422.8024691358025" y="1117.4938271604938"/>
      <point x="495.91358024691357" y="1230.3827160493827"/>
      <point x="509.38271604938274" y="1341.5432098765432" type="curve"/>
      <point x="411.5308641975309" y="1341.5432098765432" type="line"/>
      <point x="399.2962962962963" y="1275.4197530864199"/>
      <point x="353.9382716049383" y="1209.9382716049383"/>
      <point x="259.69135802469134" y="1209.9382716049383" type="curve" smooth="yes"/>
      <point x="165.44444444444446" y="1209.9382716049383"/>
      <point x="120.08641975308642" y="1275.4197530864199"/>
      <point x="107.85185185185185" y="1341.5432098765432" type="curve"/>
      <point x="10.0" y="1341.5432098765432" type="line"/>
      <point x="23.469135802469136" y="1230.3827160493827"/>
      <point x="96.58024691358024" y="1117.4938271604938"/>
    </contour>
  </outline>
</glyph>
<glyph name="dotaccentcomb" format="2">
  <unicode hex="0307"/>
  <anchor x="115.9753086419753" y="993.0493827160494" name="_top"/>
  <anchor x="115.9753086419753" y="1414.9135802469136" name="top"/>
  <outline>
    <contour>
      <point x="115.9753086419753" y="1203.8395061728395" type="curve" smooth="yes"/>
      <point x="175.90123456790124" y="1203.8395061728395"/>
      <point x="221.1851851851852" y="1246.1234567901236"/>
      <point x="221.1851851851852" y="1310.641975308642" type="curve" smooth="yes"/>
      <point x="221.1851851851852" y="1370.8641975308642"/>
      <point x="175.90123456790124" y="1414.9135802469136"/>
      <point x="115.9753086419753" y="1414.9135802469136" type="curve" smooth="yes"/>
      <point x="56.04938271604938" y="1414.9135802469136"/>
      <point x="10.0" y="1370.8641975308642"/>
      <point x="10.0" y="1310.641975308642" type="curve" smooth="yes"/>
      <point x="10.0" y="1246.1234567901236"/>
      <point x="56.04938271604938" y="1203.8395061728395"/>
    </contour>
  </outline>
</glyph>
<glyph name="dieresiscomb" format="2">
  <unicode hex="0308"/>
  <anchor x="553.9938271604939" y="993.0493827160494" name="_top"/>
  <anchor x="554.1111111111111" y="1214.1975308641975" name="top"/>
  <outline>
    <contour>
      <point x="380.12345679012344" y="1122.530864197531" type="curve" smooth="yes"/>
      <point x="435.1111111111111" y="1122.530864197531"/>
      <point x="476.22222222222223" y="1163.3456790123457"/>
      <point x="476.22222222222223" y="1218.8641975308642" type="curve" smooth="yes"/>
      <point x="476.22222222222223" y="1272.6172839506173"/>
      <point x="435.1111111111111" y="1314.1975308641975"/>
      <point x="380.12345679012344" y="1314.1975308641975" type="curve" smooth="yes"/>
      <point x="325.1358024691358" y="1314.1975308641975"/>
      <point x="284.0246913580247" y="1272.6172839506173"/>
      <point x="284.0246913580247" y="1218.8641975308642" type="curve" smooth="yes"/>
      <point x="284.0246913580247" y="1163.3456790123457"/>
      <point x="325.1358024691358" y="1122.530864197531"/>
    </contour>
    <contour>
      <point x="727.8641975308642" y="1122.530864197531" type="curve" smooth="yes"/>
      <point x="784.6172839506173" y="1122.530864197531"/>
      <point x="823.9629629629629" y="1163.3456790123457"/>
      <point x="823.9629629629629" y="1218.8641975308642" type="curve" smooth="yes"/>
      <point x="823.9629629629629" y="1272.6172839506173"/>
      <point x="784.6172839506173" y="1314.1975308641975"/>
      <point x="727.8641975308642" y="1314.1975308641975" type="curve" smooth="yes"/>
      <point x="672.8765432098766" y="1314.1975308641975"/>
      <point x="633.2962962962963" y="1272.6172839506173"/>
      <point x="633.2962962962963" y="1218.8641975308642" type="curve" smooth="yes"/>
      <point x="633.2962962962963" y="1163.3456790123457"/>
      <point x="672.8765432098766" y="1122.530864197531"/>
    </contour>
  </outline>
</glyph>
<glyph name="ringcomb" format="2">
  <unicode hex="030A"/>
  <anchor x="554.8765432098766" y="993.0493827160494" name="_top"/>
  <anchor x="554.8765432098766" y="1483.5061728395062" name="top"/>
  <outline>
    <contour>
      <point x="553.8765432098766" y="1109.641975308642" type="curve" smooth="yes"/>
      <point x="662.8641975308642" y="1109.641975308642"/>
      <point x="742.5061728395061" y="1184.5802469135801"/>
      <point x="742.5061728395061" y="1296.6913580246915" type="curve" smooth="yes"/>
      <point x="742.5061728395061" y="1408.567901234568"/>
      <point x="662.8641975308642" y="1483.5061728395062"/>
      <point x="553.8765432098766" y="1483.5061728395062" type="curve" smooth="yes"/>
      <point x="445.8888888888889" y="1483.5061728395062"/>
      <point x="367.24691358024694" y="1408.567901234568"/>
      <point x="367.24691358024694" y="1296.6913580246915" type="curve" smooth="yes"/>
      <point x="367.24691358024694" y="1184.5802469135801"/>
      <point x="445.8888888888889" y="1109.641975308642"/>
    </contour>
    <contour>
      <point x="553.8765432098766" y="1181.2716049382716" type="curve" smooth="yes"/>
      <point x="498.04938271604937" y="1181.2716049382716"/>
      <point x="454.22222222222223" y="1227.0987654320988"/>
      <point x="454.22222222222223" y="1296.6913580246915" type="curve" smooth="yes"/>
      <point x="454.22222222222223" y="1366.0493827160494"/>
      <point x="498.04938271604937" y="1411.8765432098764"/>
      <point x="553.8765432098766" y="1411.8765432098764" type="curve" smooth="yes"/>
      <point x="609.7037037037037" y="1411.8765432098764"/>
      <point x="653.5308641975308" y="1366.0493827160494"/>
      <point x="653.5308641975308" y="1296.6913580246915" type="curve" smooth="yes"/>
      <point x="653.5308641975308" y="1227.0987654320988"/>
      <point x="609.7037037037037" y="1181.2716049382716"/>
    </contour>
  </outline>
</glyph>
<glyph name="hungarumlautcomb" format="2">
  <unicode hex="030B"/>
  <anchor x="566.4074074074074" y="993.0493827160494" name="_top"/>
  <anchor x="648.2530864197531" y="1460.0493827160494" name="top"/>
  <outline>
    <contour>
      <point x="357.9012345679012" y="1168.7037037037037" type="line"/>
      <point x="464.22222222222223" y="1168.7037037037037" type="line"/>
      <point x="642.5679012345679" y="1460.0493827160494" type="line"/>
      <point x="504.1975308641975" y="1460.0493827160494" type="line"/>
    </contour>
    <contour>
      <point x="654.9382716049382" y="1168.7037037037037" type="line"/>
      <point x="760.4938271604939" y="1168.7037037037037" type="line"/>
      <point x="938.604938271605" y="1460.0493827160494" type="line"/>
      <point x="800.4691358024692" y="1460.0493827160494" type="line"/>
    </contour>
  </outline>
</glyph>
<glyph name="caroncomb" format="2">
  <unicode hex="030C"/>
  <anchor x="554.3765432098766" y="993.0493827160494" name="_top"/>
  <anchor x="554.3765432098766" y="1460.0493827160494" name="top"/>
  <outline>
    <contour>
      <point x="488.60493827160496" y="1173.469135802469" type="line"/>
      <point x="619.1481481481482" y="1173.469135802469" type="line"/>
      <point x="812.6172839506173" y="1460.0493827160494" type="line"/>
      <point x="697.8888888888889" y="1460.0493827160494" type="line"/>
      <point x="557.8765432098766" y="1269.8024691358025" type="line"/>
      <point x="549.8765432098766" y="1269.8024691358025" type="line"/>
      <point x="410.0987654320988" y="1460.0493827160494" type="line"/>
      <point x="296.1358024691358" y="1460.0493827160494" type="line"/>
    </contour>
  </outline>
</glyph>
<glyph name="invertedCandraBindu-deva" format="2">
  <unicode hex="0900"/>
  <anchor x="272.7654320987654" y="1256.3827160493827" name="_candra"/>
  <anchor x="265.17283950617286" y="1930.9876543209875" name="top"/>
  <outline>
    <contour>
      <point x="269.7654320987654" y="1821.2592592592594" type="curve" smooth="yes"/>
      <point x="102.79012345679013" y="1821.2592592592594"/>
      <point x="3.3333333333333357" y="1724.3950617283951"/>
      <point x="-44.37037037037037" y="1621.0617283950617" type="curve"/>
      <point x="49.93827160493827" y="1563.5555555555557" type="line"/>
      <point x="94.70370370370371" y="1635.7283950617284"/>
      <point x="159.40740740740742" y="1694.1358024691358"/>
      <point x="272.641975308642" y="1694.1358024691358" type="curve" smooth="yes"/>
      <point x="391.28395061728395" y="1694.1358024691358"/>
      <point x="451.9382716049383" y="1626.5555555555557"/>
      <point x="493.9382716049383" y="1560.8518518518517" type="curve"/>
      <point x="584.3086419753087" y="1614.4197530864199" type="line"/>
      <point x="519.4938271604939" y="1747.567901234568"/>
      <point x="413.44444444444446" y="1821.2592592592594"/>
    </contour>
    <contour>
      <point x="265.9382716049383" y="1622.5555555555557" type="curve" smooth="yes"/>
      <point x="203.07407407407408" y="1622.5555555555557"/>
      <point x="175.7283950617284" y="1596.20987654321"/>
      <point x="175.7283950617284" y="1533.5802469135801" type="curve" smooth="yes"/>
      <point x="175.7283950617284" y="1470.716049382716"/>
      <point x="203.07407407407408" y="1444.3703703703704"/>
      <point x="265.9382716049383" y="1444.3703703703704" type="curve" smooth="yes"/>
      <point x="329.5679012345679" y="1444.3703703703704"/>
      <point x="356.14814814814815" y="1470.716049382716"/>
      <point x="356.14814814814815" y="1533.5802469135801" type="curve" smooth="yes"/>
      <point x="356.14814814814815" y="1596.20987654321"/>
      <point x="329.5679012345679" y="1622.5555555555557"/>
    </contour>
  </outline>
</glyph>
<glyph name="eLongCandra-deva" format="2">
  <unicode hex="0955"/>
  <anchor x="361.2098765432099" y="1276.283950617284" name="_top"/>
  <outline>
    <contour>
      <point x="382.6666666666667" y="1638.5061728395062" type="curve" smooth="yes"/>
      <point x="520.1358024691358" y="1638.5061728395062"/>
      <point x="642.0246913580247" y="1695.567901234568"/>
      <point x="712.8271604938271" y="1769.320987654321" type="curve"/>
      <point x="668.0493827160494" y="1900.641975308642" type="line"/>
      <point x="588.7407407407408" y="1820.7407407407406"/>
      <point x="510.8395061728395" y="1764.8024691358025"/>
      <point x="375.7283950617284" y="1764.8024691358025" type="curve" smooth="yes"/>
      <point x="237.679012345679" y="1764.8024691358025"/>
      <point x="135.85185185185185" y="1835.8024691358025"/>
      <point x="76.67901234567901" y="1887.8024691358025" type="curve"/>
      <point x="10.0" y="1810.7777777777778" type="line"/>
      <point x="83.50617283950618" y="1719.4444444444443"/>
      <point x="225.44444444444446" y="1638.5061728395062"/>
    </contour>
    <contour>
      <point x="49.03703703703704" y="1434.9382716049383" type="line"/>
      <point x="674.0864197530864" y="1434.9382716049383" type="line"/>
      <point x="674.0864197530864" y="1557.469135802469" type="line"/>
      <point x="49.03703703703704" y="1557.469135802469" type="line"/>
    </contour>
  </outline>
</glyph>
<glyph name="zero-deva" format="2">
  <advance width="966.2345679012345"/>
  <unicode hex="0966"/>
  <outline>
    <contour>
      <point x="486.0" y="212.41975308641975" type="curve" smooth="yes"/>
      <point x="636.8148148148148" y="212.41975308641975"/>
      <point x="813.4567901234568" y="303.41975308641975"/>
      <point x="813.4567901234568" y="562.716049382716" type="curve" smooth="yes"/>
      <point x="813.4567901234568" y="779.5185185185185"/>
      <point x="695.0" y="929.925925925926"/>
      <point x="480.0" y="929.925925925926" type="curve" smooth="yes"/>
      <point x="329.41975308641975" y="929.925925925926"/>
      <point x="152.77777777777777" y="838.925925925926"/>
      <point x="152.77777777777777" y="577.0493827160494" type="curve" smooth="yes"/>
      <point x="152.77777777777777" y="366.41975308641975"/>
      <point x="268.9382716049383" y="212.41975308641975"/>
    </contour>
    <contour>
      <point x="479.2345679012346" y="332.7283950617284" type="curve"/>
      <point x="359.5061728395062" y="332.7283950617284"/>
      <point x="292.7283950617284" y="405.44444444444446"/>
      <point x="292.4938271604938" y="565.2345679012345" type="curve" smooth="yes"/>
      <point x="292.25925925925924" y="742.1975308641976"/>
      <point x="374.3333333333333" y="810.1481481481482"/>
      <point x="485.7654320987654" y="810.1481481481482" type="curve" smooth="yes"/>
      <point x="604.1975308641976" y="810.1481481481482"/>
      <point x="673.7407407407408" y="735.6666666666666"/>
      <point x="673.7407407407408" y="574.5308641975308" type="curve" smooth="yes"/>
      <point x="673.7407407407408" y="401.679012345679"/>
      <point x="590.9012345679013" y="332.7283950617284"/>
    </contour>
  </outline>
</glyph>
<glyph name="aiMatra_reph_candraBindu-deva" format="2">
  <advance width="540.0"/>
  <anchor x="240.1604938271605" y="1256.3827160493827" name="_top"/>
  <anchor x="216.74074074074073" y="1644.0246913580247" name="candra"/>
  <anchor x="216.33333333333334" y="1640.79012345679" name="top"/>
  <outline>
    <contour>
      <point x="274.17283950617286" y="1217.320987654321" type="curve"/>
      <point x="318.91358024691357" y="1244.0246913580247" type="line"/>
      <point x="288.1358024691358" y="1292.4938271604938"/>
      <point x="273.3703703703704" y="1356.6666666666667"/>
      <point x="273.3703703703704" y="1433.4567901234568" type="curve" smooth="yes"/>
      <point x="273.3703703703704" y="1566.2592592592594"/>
      <point x="336.44444444444446" y="1655.2222222222222"/>
      <point x="466.71604938271605" y="1655.2222222222222" type="curve" smooth="yes"/>
      <point x="530.3827160493827" y="1655.2222222222222"/>
      <point x="590.7407407407408" y="1634.9753086419753"/>
      <point x="641.4938271604939" y="1607.7407407407406" type="curve"/>
      <point x="677.3086419753087" y="1720.5185185185185" type="line"/>
      <point x="621.9629629629629" y="1756.8765432098764"/>
      <point x="536.4320987654321" y="1781.641975308642"/>
      <point x="452.77777777777777" y="1781.641975308642" type="curve" smooth="yes"/>
      <point x="274.5308641975309" y="1781.641975308642"/>
      <point x="163.50617283950618" y="1652.5185185185185"/>
      <point x="163.50617283950618" y="1483.8641975308642" type="curve" smooth="yes"/>
      <point x="163.50617283950618" y="1402.1975308641975"/>
      <point x="189.28395061728395" y="1306.148148148148"/>
    </contour>
    <contour>
      <point x="227.8148148148148" y="1192.851851851852" type="curve"/>
      <point x="302.8395061728395" y="1220.7777777777778" type="line"/>
      <point x="199.77777777777777" y="1687.7037037037037"/>
      <point x="63.111111111111114" y="1800.5802469135801"/>
      <point x="-225.41975308641975" y="1800.5802469135801" type="curve" smooth="yes"/>
      <point x="-303.9753086419753" y="1800.5802469135801"/>
      <point x="-358.01234567901236" y="1790.469135802469"/>
      <point x="-406.9012345679012" y="1781.2345679012346" type="curve"/>
      <point x="-382.61728395061726" y="1666.3950617283951" type="line"/>
      <point x="-324.9259259259259" y="1677.8024691358025"/>
      <point x="-273.7654320987654" y="1685.679012345679"/>
      <point x="-216.65432098765433" y="1685.679012345679" type="curve" smooth="yes"/>
      <point x="-35.864197530864196" y="1685.679012345679"/>
      <point x="87.19753086419753" y="1625.0617283950617"/>
      <point x="200.44444444444446" y="1306.6296296296296" type="curve"/>
      <point x="229.6172839506173" y="1314.3827160493827" type="line"/>
      <point x="85.96296296296296" y="1481.5061728395062"/>
      <point x="20.92592592592593" y="1537.432098765432"/>
      <point x="-148.64197530864197" y="1538.962962962963" type="curve" smooth="yes"/>
      <point x="-226.7037037037037" y="1539.7283950617284"/>
      <point x="-294.91358024691357" y="1530.4938271604938"/>
      <point x="-359.5432098765432" y="1516.9135802469136" type="curve"/>
      <point x="-334.0246913580247" y="1410.9506172839506" type="line"/>
      <point x="-265.9753086419753" y="1423.1234567901236"/>
      <point x="-206.03703703703704" y="1429.8271604938273"/>
      <point x="-140.62962962962962" y="1429.8271604938273" type="curve" smooth="yes"/>
      <point x="36.27160493827161" y="1429.8271604938273"/>
      <point x="111.14814814814815" y="1348.5925925925926"/>
    </contour>
    <component base="candraBindu-deva" xScale="0.6366691358024691" yScale="0.6366691358024691" xOffset="342.2345679012346" yOffset="419.8888888888889"/>
  </outline>
</glyph>
<glyph name="ba_ra-deva" format="2">
  <advance width="1107.6913580246915"/>
  <anchor x="834.2222222222222" y="27.765432098765434" name="bottom"/>
  <anchor x="537.1358024691358" y="1257.148148148148" name="candra"/>
  <anchor x="834.2222222222222" y="1287.7654320987654" name="top"/>
  <anchor x="217.27160493827162" y="43.2962962962963" name="nukta"/>
  <outline>
    <contour>
      <point x="265.65432098765433" y="-57.07407407407407" type="line"/>
      <point x="816.0864197530864" y="350.48148148148147" type="line"/>
      <point x="773.5308641975308" y="427.44444444444446" type="line"/>
      <point x="183.09876543209876" y="51.06172839506173" type="line"/>
    </contour>
    <component base="ba-deva"/>
  </outline>
</glyph>
<glyph name="bh_ra-deva" format="2">
  <advance width="745.0493827160494"/>
  <outline>
    <contour>
      <point x="361.7901234567901" y="-40.91358024691358" type="line"/>
      <point x="959.074074074074" y="449.67901234567904" type="line"/>
      <point x="888.3333333333334" y="535.8888888888889" type="line"/>
      <point x="272.5308641975309" y="65.1604938271605" type="line"/>
    </contour>
    <contour>
      <point x="297.1975308641975" y="550.2962962962963" type="line"/>
      <point x="442.9012345679012" y="550.2962962962963" type="line"/>
      <point x="442.9012345679012" y="1035.8271604938273" type="line" smooth="yes"/>
      <point x="442.9012345679012" y="1149.6296296296296"/>
      <point x="424.1975308641975" y="1277.9135802469136"/>
      <point x="222.92592592592592" y="1277.9135802469136" type="curve" smooth="yes"/>
      <point x="161.5185185185185" y="1277.9135802469136"/>
      <point x="113.8641975308642" y="1267.6172839506173"/>
      <point x="76.1604938271605" y="1251.9135802469136" type="curve"/>
      <point x="99.50617283950618" y="1132.5555555555557" type="line"/>
      <point x="123.80246913580247" y="1139.79012345679"/>
      <point x="159.58024691358025" y="1148.6172839506173"/>
      <point x="199.2962962962963" y="1148.6172839506173" type="curve" smooth="yes"/>
      <point x="264.9012345679012" y="1148.851851851852"/>
      <point x="297.1975308641975" y="1124.2592592592594"/>
      <point x="297.1975308641975" y="1039.5925925925926" type="curve" smooth="yes"/>
    </contour>
    <contour>
      <point x="319.82716049382714" y="304.30864197530866" type="line"/>
      <point x="421.32098765432096" y="306.60493827160496"/>
      <point x="441.9012345679012" y="360.0617283950617"/>
      <point x="441.9012345679012" y="423.22222222222223" type="curve" smooth="yes"/>
      <point x="441.9012345679012" y="621.1975308641976" type="line"/>
      <point x="318.7654320987654" y="621.1975308641976" type="line"/>
      <point x="146.30864197530863" y="600.7283950617284" type="line"/>
      <point x="146.30864197530863" y="497.2962962962963" type="line"/>
    </contour>
    <contour>
      <point x="302.962962962963" y="484.77777777777777" type="line"/>
      <point x="895.679012345679" y="484.77777777777777" type="line"/>
      <point x="895.679012345679" y="614.1358024691358" type="line"/>
      <point x="302.962962962963" y="614.1358024691358" type="line"/>
    </contour>
  </outline>
</glyph>
<glyph name="brevecomb.cap" format="2">
  <anchor x="259.69135802469134" y="1344.5925925925926" name="_top"/>
  <anchor x="259.69135802469134" y="1674.4074074074074" name="top"/>
  <outline>
    <contour>
      <point x="259.69135802469134" y="1480.358024691358" type="curve" smooth="yes"/>
      <point x="422.8024691358025" y="1480.358024691358"/>
      <point x="495.91358024691357" y="1593.2469135802469"/>
      <point x="509.38271604938274" y="1704.4074074074074" type="curve"/>
      <point x="411.5308641975309" y="1704.4074074074074" type="line"/>
      <point x="399.2962962962963" y="1638.283950617284"/>
      <point x="353.9382716049383" y="1572.8024691358025"/>
      <point x="259.69135802469134" y="1572.8024691358025" type="curve" smooth="yes"/>
      <point x="165.44444444444446" y="1572.8024691358025"/>
      <point x="120.08641975308642" y="1638.283950617284"/>
      <point x="107.85185185185185" y="1704.4074074074074" type="curve"/>
      <point x="10.0" y="1704.4074074074074" type="line"/>
      <point x="23.469135802469136" y="1593.2469135802469"/>
      <point x="96.58024691358024" y="1480.358024691358"/>
    </contour>
  </outline>
</glyph>
<glyph name="c_na-deva" format="2">
  <advance width="1229.6172839506173"/>
  <anchor x="952.679012345679" y="0.0" name="bottom"/>
  <anchor x="874.2222222222222" y="1256.3827160493827" name="candra"/>
  <anchor x="301.320987654321" y="52.91358024691358" name="nukta"/>
  <anchor x="951.1481481481482" y="1256.3827160493827" name="top"/>
  <outline>
    <contour>
      <point x="571.0987654320987" y="-134.8395061728395" type="line"/>
      <point x="599.1975308641976" y="-111.08641975308642"/>
      <point x="610.0123456790124" y="-88.09876543209876"/>
      <point x="611.2469135802469" y="-65.81481481481481" type="curve" smooth="yes"/>
      <point x="612.4814814814815" y="-43.46913580246913"/>
      <point x="604.0123456790124" y="-21.358024691358025"/>
      <point x="590.5432098765432" y="-1.1851851851851856" type="curve" smooth="yes"/>
      <point x="529.5185185185185" y="87.4320987654321" type="line"/>
      <point x="511.98765432098764" y="31.790123456790127" type="line"/>
      <point x="927.0864197530864" y="353.71604938271605" type="line"/>
      <point x="861.9135802469136" y="438.65432098765433" type="line"/>
      <point x="298.2345679012346" y="47.93827160493827" type="line"/>
      <point x="357.28395061728395" y="-54.32098765432099" type="line"/>
    </contour>
    <component base="ca-deva"/>
  </outline>
</glyph>
<glyph name="c_ra-deva" format="2">
  <advance width="741.3456790123457"/>
  <outline>
    <contour>
      <point x="308.39506172839504" y="-50.641975308641975" type="line"/>
      <point x="830.6172839506173" y="306.74074074074076" type="line"/>
      <point x="788.2962962962963" y="383.7037037037037" type="line"/>
      <point x="228.37037037037038" y="58.79012345679013" type="line"/>
    </contour>
    <component base="c-deva"/>
  </outline>
</glyph>
<glyph name="caroncomb.cap" format="2">
  <anchor x="283.55555555555554" y="1344.5925925925926" name="_top"/>
  <anchor x="283.55555555555554" y="1674.4074074074074" name="top"/>
  <outline>
    <contour>
      <point x="207.0" y="1446.5925925925926" type="line"/>
      <point x="360.1111111111111" y="1446.5925925925926" type="line"/>
      <point x="557.1111111111111" y="1674.4074074074074" type="line"/>
      <point x="427.0987654320988" y="1674.4074074074074" type="line"/>
      <point x="287.55555555555554" y="1533.7530864197531" type="line"/>
      <point x="279.55555555555554" y="1533.7530864197531" type="line"/>
      <point x="140.01234567901236" y="1674.4074074074074" type="line"/>
      <point x="10.0" y="1674.4074074074074" type="line"/>
    </contour>
  </outline>
</glyph>
<glyph name="commaabovecomb.cap" format="2">
  <anchor x="107.90123456790124" y="1344.5925925925926" name="_top"/>
  <anchor x="107.90123456790124" y="1490.8024691358025" name="top"/>
  <outline>
    <contour>
      <point x="44.407407407407405" y="1114.2962962962963" type="line"/>
      <point x="158.69135802469137" y="1167.2962962962963"/>
      <point x="205.80246913580248" y="1257.2345679012346"/>
      <point x="205.80246913580248" y="1351.8148148148148" type="curve" smooth="yes"/>
      <point x="205.80246913580248" y="1442.3950617283951"/>
      <point x="170.39506172839506" y="1490.8024691358025"/>
      <point x="106.87654320987654" y="1490.8024691358025" type="curve" smooth="yes"/>
      <point x="63.0" y="1490.8024691358025"/>
      <point x="26.123456790123456" y="1461.6913580246915"/>
      <point x="26.123456790123456" y="1403.0493827160494" type="curve" smooth="yes"/>
      <point x="26.123456790123456" y="1351.1728395061727"/>
      <point x="68.29629629629629" y="1325.2962962962963"/>
      <point x="107.64197530864197" y="1325.2962962962963" type="curve" smooth="yes"/>
      <point x="113.64197530864197" y="1325.2962962962963"/>
      <point x="119.64197530864197" y="1325.2962962962963"/>
      <point x="124.64197530864197" y="1327.2962962962963" type="curve"/>
      <point x="120.93827160493827" y="1266.2345679012346"/>
      <point x="86.0" y="1215.111111111111"/>
      <point x="10.0" y="1178.0493827160494" type="curve"/>
    </contour>
  </outline>
</glyph>
<glyph name="commaaccentcomb.cap" format="2">
  <anchor x="163.39506172839506" y="0.0" name="_bottom"/>
  <anchor x="163.39506172839506" y="-439.75308641975306" name="bottom"/>
  <outline>
    <contour>
      <point x="27.703703703703702" y="-499.75308641975306" type="line"/>
      <point x="177.80246913580248" y="-487.22222222222223"/>
      <point x="316.7901234567901" y="-432.28395061728395"/>
      <point x="316.7901234567901" y="-315.4691358024691" type="curve" smooth="yes"/>
      <point x="316.7901234567901" y="-224.82716049382717"/>
      <point x="256.85185185185185" y="-179.88888888888889"/>
      <point x="122.75308641975309" y="-158.35802469135803" type="curve"/>
      <point x="87.70370370370371" y="-234.0493827160494" type="line"/>
      <point x="146.46913580246914" y="-247.5185185185185"/>
      <point x="193.35802469135803" y="-271.04938271604937"/>
      <point x="193.35802469135803" y="-325.7037037037037" type="curve" smooth="yes"/>
      <point x="193.35802469135803" y="-379.0"/>
      <point x="119.5925925925926" y="-406.82716049382714"/>
      <point x="10.0" y="-421.12345679012344" type="curve"/>
    </contour>
  </outline>
</glyph>
<glyph name="d_bh_ya-deva" format="2">
  <advance width="2490.283950617284"/>
  <anchor x="2213.58024691358" y="0.9382716049382714" name="bottom"/>
  <anchor x="2180.6913580246915" y="1256.3827160493827" name="candra"/>
  <anchor x="2213.814814814815" y="1256.3827160493827" name="top"/>
  <outline>
    <contour>
      <point x="1839.0" y="106.41975308641976" type="curve" smooth="yes"/>
      <point x="1966.469135802469" y="106.41975308641976"/>
      <point x="2074.0123456790125" y="153.1851851851852"/>
      <point x="2162.6666666666665" y="244.83950617283952" type="curve"/>
      <point x="2168.543209876543" y="428.12345679012344" type="line"/>
      <point x="2086.074074074074" y="291.12345679012344"/>
      <point x="1942.7654320987654" y="239.48148148148147"/>
      <point x="1828.888888888889" y="239.48148148148147" type="curve" smooth="yes"/>
      <point x="1687.2839506172838" y="239.48148148148147"/>
      <point x="1579.037037037037" y="321.14814814814815"/>
      <point x="1542.2716049382716" y="483.98765432098764" type="curve"/>
      <point x="1522.20987654321" y="428.95061728395063" type="line"/>
      <point x="1622.0246913580247" y="454.2345679012346"/>
      <point x="1797.8641975308642" y="525.4814814814815"/>
      <point x="1797.8641975308642" y="705.7777777777778" type="curve" smooth="yes"/>
      <point x="1797.8641975308642" y="842.641975308642"/>
      <point x="1696.1728395061727" y="896.1111111111111"/>
      <point x="1512.3086419753085" y="895.8765432098766" type="curve" smooth="yes"/>
      <point x="1123.0246913580247" y="894.8765432098766" type="line"/>
      <point x="1107.79012345679" y="772.5185185185185" type="line"/>
      <point x="1532.6543209876543" y="772.5185185185185" type="line" smooth="yes"/>
      <point x="1620.2716049382716" y="772.5185185185185"/>
      <point x="1662.5061728395062" y="746.679012345679"/>
      <point x="1662.5061728395062" y="699.3703703703703" type="curve" smooth="yes"/>
      <point x="1662.5061728395062" y="635.0617283950618"/>
      <point x="1588.9753086419753" y="571.8641975308642"/>
      <point x="1401.4444444444443" y="521.5061728395061" type="curve"/>
      <point x="1458.037037037037" y="251.58024691358025"/>
      <point x="1611.6666666666667" y="106.41975308641976"/>
    </contour>
    <contour>
      <point x="2035.4444444444446" y="258.96296296296293" type="line"/>
      <point x="2331.7037037037035" y="1154.5185185185185" type="line"/>
      <point x="2235.259259259259" y="1197.4444444444443" type="line"/>
      <point x="1939.0" y="301.88888888888886" type="line"/>
    </contour>
    <contour>
      <point x="1514.4074074074074" y="874.8888888888889" type="line"/>
      <point x="2458.9506172839506" y="1140.1851851851852" type="line"/>
      <point x="2409.6913580246915" y="1219.79012345679" type="line"/>
      <point x="1465.148148148148" y="954.4938271604939" type="line"/>
    </contour>
    <contour>
      <point x="941.0617283950618" y="99.55555555555556" type="curve" smooth="yes"/>
      <point x="1057.5925925925926" y="99.55555555555556"/>
      <point x="1160.2962962962963" y="119.49382716049382"/>
      <point x="1237.641975308642" y="171.37037037037038" type="curve" smooth="yes"/>
      <point x="1307.111111111111" y="217.60493827160494"/>
      <point x="1333.5802469135801" y="268.95061728395063"/>
      <point x="1333.5802469135801" y="323.7654320987654" type="curve" smooth="yes"/>
      <point x="1333.5802469135801" y="406.74074074074076"/>
      <point x="1256.9012345679012" y="474.32098765432096"/>
      <point x="1149.79012345679" y="505.61728395061726" type="curve"/>
      <point x="1063.8765432098764" y="431.6296296296296" type="line"/>
      <point x="1161.5185185185185" y="239.06172839506172" type="line"/>
      <point x="1195.1234567901236" y="291.55555555555554" type="line"/>
      <point x="1099.1851851851852" y="230.91358024691357"/>
      <point x="1026.9259259259259" y="212.33333333333334"/>
      <point x="935.8888888888889" y="212.33333333333334" type="curve" smooth="yes"/>
      <point x="756.2345679012345" y="212.33333333333334"/>
      <point x="640.1481481481482" y="284.51851851851853"/>
      <point x="640.1481481481482" y="491.60493827160496" type="curve" smooth="yes"/>
      <point x="640.1481481481482" y="700.1358024691358"/>
      <point x="743.1358024691358" y="772.283950617284"/>
      <point x="974.9259259259259" y="772.283950617284" type="curve"/>
      <point x="1198.9259259259259" y="772.5185185185185" type="line"/>
      <point x="1198.9259259259259" y="1167.679012345679" type="line"/>
      <point x="1052.2222222222222" y="1167.679012345679" type="line"/>
      <point x="1052.2222222222222" y="859.1358024691358" type="line"/>
      <point x="1130.4567901234568" y="881.4814814814815" type="line"/>
      <point x="1065.4197530864199" y="896.7037037037037"/>
      <point x="1006.1358024691358" y="902.641975308642"/>
      <point x="955.1975308641976" y="902.641975308642" type="curve" smooth="yes"/>
      <point x="612.1975308641976" y="902.641975308642"/>
      <point x="487.2098765432099" y="748.0617283950618"/>
      <point x="487.2098765432099" y="505.0617283950617" type="curve" smooth="yes"/>
      <point x="487.2098765432099" y="248.37037037037038"/>
      <point x="642.2098765432099" y="99.55555555555556"/>
    </contour>
    <contour>
      <point x="615.3456790123457" y="-408.01234567901236" type="line"/>
      <point x="692.6172839506173" y="-358.7901234567901"/>
      <point x="679.9753086419753" y="-304.8024691358025"/>
      <point x="649.395061728395" y="-250.34567901234567" type="curve" smooth="yes"/>
      <point x="553.8148148148148" y="-82.95061728395062" type="line"/>
      <point x="460.77777777777777" y="-138.17283950617283" type="line"/>
      <point x="321.25925925925924" y="-242.22222222222223" type="line"/>
      <point x="372.358024691358" y="-332.01234567901236" type="line"/>
    </contour>
    <contour>
      <point x="474.18518518518516" y="-207.65432098765433" type="line"/>
      <point x="587.6172839506173" y="-140.91358024691357" type="line"/>
      <point x="406.6296296296296" y="169.65432098765433" type="line" smooth="yes"/>
      <point x="349.1111111111111" y="268.75308641975306"/>
      <point x="270.7654320987654" y="369.8641975308642"/>
      <point x="103.71604938271605" y="272.75308641975306" type="curve" smooth="yes"/>
      <point x="57.888888888888886" y="245.98765432098764"/>
      <point x="20.358024691358025" y="213.39506172839506"/>
      <point x="-5.987654320987653" y="179.5185185185185" type="curve"/>
      <point x="67.98765432098766" y="91.38271604938272" type="line"/>
      <point x="88.8641975308642" y="111.32098765432099"/>
      <point x="116.92592592592592" y="137.679012345679"/>
      <point x="149.64197530864197" y="157.80246913580248" type="curve" smooth="yes"/>
      <point x="210.12345679012347" y="194.62962962962962"/>
      <point x="245.07407407407408" y="187.8641975308642"/>
      <point x="291.4320987654321" y="106.67901234567901" type="curve" smooth="yes"/>
    </contour>
    <contour>
      <point x="507.65432098765433" y="-268.04938271604937" type="line"/>
      <point x="1213.2592592592594" y="158.20987654320987" type="line"/>
      <point x="1120.7283950617284" y="221.69135802469137" type="line"/>
      <point x="445.85185185185185" y="-149.62962962962962" type="line"/>
    </contour>
    <contour>
      <point x="1349.567901234568" y="-121.24691358024691" type="line"/>
      <point x="1465.5802469135801" y="-50.80246913580247" type="line"/>
      <point x="1258.8395061728395" y="252.8641975308642" type="line"/>
      <point x="1171.5802469135801" y="212.93827160493828" type="line"/>
    </contour>
    <contour>
      <point x="-12.0" y="1133.851851851852" type="line"/>
      <point x="1457.3086419753085" y="1133.851851851852" type="line"/>
      <point x="1457.3086419753085" y="1256.3827160493827" type="line"/>
      <point x="-12.0" y="1256.3827160493827" type="line"/>
    </contour>
  </outline>
</glyph>
<glyph name="d_d_ya-deva" format="2">
  <advance width="2098.7654320987654"/>
  <anchor x="1806.8641975308642" y="0.0" name="bottom"/>
  <anchor x="1713.9259259259259" y="1257.148148148148" name="candra"/>
  <anchor x="1804.9876543209878" y="1287.7654320987654" name="top"/>
  <outline>
    <contour>
      <point x="914.320987654321" y="1133.851851851852" type="line"/>
      <point x="2113.1728395061727" y="1133.851851851852" type="line"/>
      <point x="2113.1728395061727" y="1256.3827160493827" type="line"/>
      <point x="914.320987654321" y="1256.3827160493827" type="line"/>
    </contour>
    <contour>
      <point x="1433.8641975308642" y="151.49382716049382" type="curve" smooth="yes"/>
      <point x="1561.3333333333333" y="151.49382716049382"/>
      <point x="1669.641975308642" y="198.25925925925927"/>
      <point x="1757.530864197531" y="289.91358024691357" type="curve"/>
      <point x="1763.4074074074074" y="473.1975308641975" type="line"/>
      <point x="1680.9382716049383" y="336.1975308641975"/>
      <point x="1538.3950617283951" y="284.55555555555554"/>
      <point x="1424.5185185185185" y="284.55555555555554" type="curve" smooth="yes"/>
      <point x="1282.148148148148" y="284.55555555555554"/>
      <point x="1173.9012345679012" y="337.3333333333333"/>
      <point x="1137.9012345679012" y="480.17283950617286" type="curve"/>
      <point x="1117.0740740740741" y="425.1358024691358" type="line"/>
      <point x="1217.6543209876543" y="450.41975308641975"/>
      <point x="1393.4938271604938" y="522.2592592592592"/>
      <point x="1393.4938271604938" y="700.2098765432099" type="curve" smooth="yes"/>
      <point x="1393.4938271604938" y="860.1234567901234"/>
      <point x="1280.320987654321" y="910.4691358024692"/>
      <point x="1095.6913580246915" y="910.2345679012345" type="curve" smooth="yes"/>
      <point x="676.3086419753087" y="910.0" type="line"/>
      <point x="690.3703703703703" y="789.3456790123457" type="line"/>
      <point x="1116.2716049382716" y="789.3456790123457" type="line" smooth="yes"/>
      <point x="1203.6543209876543" y="789.3456790123457"/>
      <point x="1257.3703703703704" y="764.395061728395"/>
      <point x="1257.3703703703704" y="695.0864197530864" type="curve" smooth="yes"/>
      <point x="1257.3703703703704" y="628.9012345679013"/>
      <point x="1183.8395061728395" y="568.0493827160494"/>
      <point x="996.5432098765432" y="517.6913580246913" type="curve"/>
      <point x="1053.6666666666667" y="267.7654320987654"/>
      <point x="1207.2962962962963" y="151.49382716049382"/>
    </contour>
    <contour>
      <point x="1735.888888888889" y="0.0" type="line"/>
      <point x="1881.5925925925926" y="0.0" type="line"/>
      <point x="1881.5925925925926" y="1160.851851851852" type="line"/>
      <point x="1735.888888888889" y="1160.851851851852" type="line"/>
    </contour>
    <component base="d_da-deva"/>
  </outline>
</glyph>
<glyph name="d_dh_ya-deva" format="2">
  <advance width="2336.2098765432097"/>
  <anchor x="2059.037037037037" y="27.765432098765434" name="bottom"/>
  <anchor x="2057.2345679012346" y="1256.3827160493827" name="candra"/>
  <anchor x="2057.395061728395" y="1287.7654320987654" name="top"/>
  <outline>
    <contour>
      <point x="1684.9259259259259" y="106.41975308641976" type="curve" smooth="yes"/>
      <point x="1812.3950617283951" y="106.41975308641976"/>
      <point x="1919.9382716049383" y="153.1851851851852"/>
      <point x="2008.5925925925926" y="244.83950617283952" type="curve"/>
      <point x="2014.469135802469" y="428.12345679012344" type="line"/>
      <point x="1932.0" y="291.12345679012344"/>
      <point x="1788.6913580246915" y="239.48148148148147"/>
      <point x="1674.8148148148148" y="239.48148148148147" type="curve" smooth="yes"/>
      <point x="1533.20987654321" y="239.48148148148147"/>
      <point x="1424.962962962963" y="321.14814814814815"/>
      <point x="1388.1975308641975" y="483.98765432098764" type="curve"/>
      <point x="1368.1358024691358" y="428.95061728395063" type="line"/>
      <point x="1467.9506172839506" y="454.2345679012346"/>
      <point x="1643.7690123456791" y="525.5028271604938"/>
      <point x="1643.79012345679" y="705.7777777777778" type="curve" smooth="yes"/>
      <point x="1643.7690123456791" y="842.641975308642"/>
      <point x="1542.0987654320988" y="896.1111111111111"/>
      <point x="1358.2345679012346" y="895.8765432098766" type="curve" smooth="yes"/>
      <point x="968.9506172839506" y="894.8765432098766" type="line"/>
      <point x="953.716049382716" y="772.5185185185185" type="line"/>
      <point x="1378.5802469135801" y="772.5185185185185" type="line" smooth="yes"/>
      <point x="1466.1975308641975" y="772.5185185185185"/>
      <point x="1508.432098765432" y="746.679012345679"/>
      <point x="1508.432098765432" y="699.3703703703703" type="curve" smooth="yes"/>
      <point x="1508.432098765432" y="635.0617283950618"/>
      <point x="1434.9012345679012" y="571.8641975308642"/>
      <point x="1247.3703703703704" y="521.5061728395061" type="curve"/>
      <point x="1303.962962962963" y="251.58024691358025"/>
      <point x="1457.5925925925926" y="106.41975308641976"/>
    </contour>
    <contour>
      <point x="1599.888888888889" y="258.96296296296293" type="line"/>
      <point x="2177.6296296296296" y="1154.5185185185185" type="line"/>
      <point x="2081.185185185185" y="1197.4444444444443" type="line"/>
      <point x="1503.4444444444446" y="301.88888888888886" type="line"/>
    </contour>
    <contour>
      <point x="518.379135802469" y="874.8888888888889" type="line"/>
      <point x="2304.8765432098767" y="1140.1851851851852" type="line"/>
      <point x="2255.617283950617" y="1219.79012345679" type="line"/>
      <point x="469.11987654320984" y="954.4938271604939" type="line"/>
    </contour>
    <contour>
      <point x="806.7283950617284" y="87.85185185185185" type="curve" smooth="yes"/>
      <point x="918.8518518518518" y="87.85185185185185"/>
      <point x="1012.2716049382716" y="110.91358024691358"/>
      <point x="1089.6172839506173" y="163.08641975308643" type="curve" smooth="yes"/>
      <point x="1153.7407407407406" y="205.3827160493827"/>
      <point x="1185.5555555555557" y="268.95061728395063"/>
      <point x="1185.5555555555557" y="323.7654320987654" type="curve" smooth="yes"/>
      <point x="1185.5555555555557" y="406.74074074074076"/>
      <point x="1108.8765432098764" y="474.32098765432096"/>
      <point x="1001.7654320987655" y="505.61728395061726" type="curve"/>
      <point x="915.8518518518518" y="431.6296296296296" type="line"/>
      <point x="1013.4938271604939" y="237.12345679012347" type="line"/>
      <point x="1056.3827160493827" y="291.55555555555554" type="line"/>
      <point x="960.4444444444445" y="230.91358024691357"/>
      <point x="888.1851851851852" y="212.33333333333334"/>
      <point x="797.1481481481482" y="212.33333333333334" type="curve" smooth="yes"/>
      <point x="617.4938271604939" y="212.33333333333334"/>
      <point x="501.4074074074074" y="284.51851851851853"/>
      <point x="501.4074074074074" y="491.60493827160496" type="curve" smooth="yes"/>
      <point x="501.4074074074074" y="700.1358024691358"/>
      <point x="604.395061728395" y="772.283950617284"/>
      <point x="836.1851851851852" y="772.283950617284" type="curve"/>
      <point x="1060.1851851851852" y="772.7530864197531" type="line"/>
      <point x="1060.1851851851852" y="1167.679012345679" type="line"/>
      <point x="913.4814814814815" y="1167.679012345679" type="line"/>
      <point x="913.4814814814815" y="859.1358024691358" type="line"/>
      <point x="991.716049382716" y="881.4814814814815" type="line"/>
      <point x="926.679012345679" y="896.7037037037037"/>
      <point x="867.395061728395" y="902.641975308642"/>
      <point x="816.4567901234568" y="902.641975308642" type="curve" smooth="yes"/>
      <point x="473.4567901234568" y="902.641975308642"/>
      <point x="348.4691358024691" y="748.0617283950618"/>
      <point x="348.4691358024691" y="505.0617283950617" type="curve" smooth="yes"/>
      <point x="348.4691358024691" y="257.18518518518516"/>
      <point x="503.4691358024691" y="87.85185185185185"/>
    </contour>
    <contour>
      <point x="301.04938271604937" y="347.6666666666667" type="curve"/>
      <point x="261.5925925925926" y="441.22222222222223" type="line"/>
      <point x="151.65432098765433" y="403.51851851851853"/>
      <point x="71.60493827160494" y="310.5432098765432"/>
      <point x="69.8395061728395" y="194.77777777777777" type="curve" smooth="yes"/>
      <point x="67.07407407407408" y="55.098765432098766"/>
      <point x="156.64197530864197" y="-34.30864197530864"/>
      <point x="310.2716049382716" y="-59.08641975308642" type="curve" smooth="yes"/>
      <point x="354.8024691358025" y="-66.67901234567901"/>
      <point x="404.8641975308642" y="-66.80246913580247"/>
      <point x="460.4567901234568" y="-63.160493827160494" type="curve"/>
      <point x="504.91358024691357" y="24.641975308641975" type="line"/>
      <point x="439.5061728395062" y="26.40740740740741"/>
      <point x="379.0987654320988" y="32.17283950617284"/>
      <point x="332.3333333333333" y="45.93827160493827" type="curve" smooth="yes"/>
      <point x="253.80246913580248" y="69.76543209876543"/>
      <point x="200.6172839506173" y="121.58024691358024"/>
      <point x="199.85185185185185" y="193.88888888888889" type="curve" smooth="yes"/>
      <point x="198.320987654321" y="268.38271604938274"/>
      <point x="239.8641975308642" y="312.55555555555554"/>
    </contour>
    <contour>
      <point x="691.4567901234568" y="-389.9012345679012" type="curve" smooth="yes"/>
      <point x="1009.716049382716" y="-389.9012345679012"/>
      <point x="1120.6666666666667" y="-40.01234567901235"/>
      <point x="1114.2716049382716" y="206.23456790123456" type="curve"/>
      <point x="1021.604938271605" y="253.64197530864197" type="line"/>
      <point x="994.9506172839506" y="-34.358024691358025"/>
      <point x="891.6172839506173" y="-268.41975308641975"/>
      <point x="684.4567901234568" y="-268.41975308641975" type="curve" smooth="yes"/>
      <point x="600.320987654321" y="-268.41975308641975"/>
      <point x="537.9629629629629" y="-216.87654320987653"/>
      <point x="537.9629629629629" y="-127.58024691358024" type="curve" smooth="yes"/>
      <point x="537.9629629629629" y="2.4938271604938285"/>
      <point x="657.0370370370371" y="64.37037037037037"/>
      <point x="739.395061728395" y="112.0246913580247" type="curve"/>
      <point x="687.6296296296297" y="204.80246913580248" type="line"/>
      <point x="609.7777777777778" y="163.5185185185185"/>
      <point x="397.8395061728395" y="76.29629629629629"/>
      <point x="397.8395061728395" y="-125.51851851851852" type="curve" smooth="yes"/>
      <point x="397.8395061728395" y="-286.7901234567901"/>
      <point x="519.641975308642" y="-389.9012345679012"/>
    </contour>
    <contour>
      <point x="1218.641975308642" y="-121.24691358024691" type="line"/>
      <point x="1326.6049382716049" y="-50.80246913580247" type="line"/>
      <point x="1120.0987654320988" y="252.8641975308642" type="line"/>
      <point x="1040.6543209876543" y="212.93827160493828" type="line"/>
    </contour>
  </outline>
</glyph>
<glyph name="d_ma-deva" format="2">
  <advance width="1531.6172839506173"/>
  <anchor x="1251.3827160493827" y="0.0" name="bottom"/>
  <anchor x="887.6296296296297" y="1257.148148148148" name="candra"/>
  <anchor x="1253.4444444444443" y="1256.3827160493827" name="top"/>
  <outline>
    <contour>
      <point x="821.0246913580247" y="307.81481481481484" type="line"/>
      <point x="819.4938271604939" y="400.1111111111111" type="line" smooth="yes"/>
      <point x="814.9012345679013" y="613.5185185185185"/>
      <point x="673.9753086419753" y="655.8765432098766"/>
      <point x="560.320987654321" y="655.1111111111111" type="curve" smooth="yes"/>
      <point x="469.5061728395062" y="654.3456790123457"/>
      <point x="392.38271604938274" y="636.0493827160494"/>
      <point x="324.74074074074076" y="621.2222222222222" type="curve"/>
      <point x="298.96296296296293" y="658.4074074074074"/>
      <point x="282.30864197530866" y="704.2469135802469"/>
      <point x="282.30864197530866" y="750.7901234567901" type="curve" smooth="yes"/>
      <point x="282.30864197530866" y="821.9135802469136"/>
      <point x="304.6666666666667" y="864.9876543209876"/>
      <point x="439.0246913580247" y="864.9876543209876" type="curve" smooth="yes"/>
      <point x="771.5308641975308" y="864.9876543209876" type="line"/>
      <point x="755.6543209876543" y="995.0493827160494" type="line"/>
      <point x="392.6296296296296" y="993.8148148148148" type="line" smooth="yes"/>
      <point x="231.54320987654322" y="993.5802469135803"/>
      <point x="144.4814814814815" y="921.2345679012345"/>
      <point x="144.4814814814815" y="789.9506172839506" type="curve" smooth="yes"/>
      <point x="144.4814814814815" y="686.2592592592592"/>
      <point x="192.35802469135803" y="580.4567901234568"/>
      <point x="252.17283950617283" y="522.7530864197531" type="curve" smooth="yes"/>
      <point x="270.98765432098764" y="504.87654320987656"/>
      <point x="299.9259259259259" y="484.7530864197531"/>
      <point x="338.28395061728395" y="491.28395061728395" type="curve" smooth="yes"/>
      <point x="391.69135802469134" y="500.28395061728395"/>
      <point x="472.39506172839504" y="519.8148148148148"/>
      <point x="539.8271604938271" y="519.8148148148148" type="curve" smooth="yes"/>
      <point x="632.604938271605" y="519.8148148148148"/>
      <point x="679.320987654321" y="471.7283950617284"/>
      <point x="677.7901234567901" y="384.58024691358025" type="curve" smooth="yes"/>
      <point x="677.0246913580247" y="310.51851851851853" type="line"/>
    </contour>
    <contour>
      <point x="699.6543209876543" y="39.17283950617284" type="line"/>
      <point x="799.9135802469136" y="41.46913580246914"/>
      <point x="821.4938271604939" y="96.39506172839506"/>
      <point x="821.4938271604939" y="159.55555555555554" type="curve" smooth="yes"/>
      <point x="821.4938271604939" y="346.9382716049383" type="line"/>
      <point x="699.8271604938271" y="354.82716049382714" type="line"/>
      <point x="527.3703703703703" y="335.12345679012344" type="line"/>
      <point x="527.3703703703703" y="232.92592592592592" type="line"/>
    </contour>
    <contour>
      <point x="686.5555555555555" y="225.46913580246914" type="line"/>
      <point x="1276.9753086419753" y="225.46913580246914" type="line"/>
      <point x="1276.9753086419753" y="353.5925925925926" type="line"/>
      <point x="686.5555555555555" y="353.5925925925926" type="line"/>
    </contour>
    <contour>
      <point x="681.5679012345679" y="864.9876543209876" type="line"/>
      <point x="825.5679012345679" y="864.9876543209876" type="line"/>
      <point x="825.5679012345679" y="1166.2592592592594" type="line"/>
      <point x="681.5679012345679" y="1166.2592592592594" type="line"/>
    </contour>
    <contour>
      <point x="1172.9382716049383" y="-0.4691358024691357" type="line"/>
      <point x="1318.641975308642" y="-0.4691358024691357" type="line"/>
      <point x="1318.641975308642" y="1171.1358024691358" type="line"/>
      <point x="1172.9382716049383" y="1171.1358024691358" type="line"/>
    </contour>
    <contour>
      <point x="-13.641975308641975" y="1133.851851851852" type="line"/>
      <point x="1545.79012345679" y="1133.851851851852" type="line"/>
      <point x="1545.79012345679" y="1256.3827160493827" type="line"/>
      <point x="-13.641975308641975" y="1256.3827160493827" type="line"/>
    </contour>
  </outline>
</glyph>
<glyph name="d_v_ra-deva" format="2">
  <advance width="1102.3333333333333"/>
  <anchor x="712.5185185185185" y="1257.9135802469136" name="candra"/>
  <anchor x="712.5185185185185" y="1287.0" name="top"/>
  <outline>
    <contour>
      <point x="530.2098765432099" y="87.85185185185185" type="curve" smooth="yes"/>
      <point x="642.3333333333334" y="87.85185185185185"/>
      <point x="735.7530864197531" y="110.91358024691358"/>
      <point x="813.0987654320987" y="163.08641975308643" type="curve" smooth="yes"/>
      <point x="877.2222222222222" y="205.3827160493827"/>
      <point x="909.0370370370371" y="268.95061728395063"/>
      <point x="909.0370370370371" y="323.7654320987654" type="curve" smooth="yes"/>
      <point x="909.0370370370371" y="406.74074074074076"/>
      <point x="832.358024691358" y="474.32098765432096"/>
      <point x="725.2469135802469" y="505.61728395061726" type="curve"/>
      <point x="639.3333333333334" y="431.6296296296296" type="line"/>
      <point x="736.9753086419753" y="237.12345679012347" type="line"/>
      <point x="779.8641975308642" y="291.55555555555554" type="line"/>
      <point x="683.925925925926" y="230.91358024691357"/>
      <point x="611.6666666666666" y="212.33333333333334"/>
      <point x="520.6296296296297" y="212.33333333333334" type="curve" smooth="yes"/>
      <point x="340.9753086419753" y="212.33333333333334"/>
      <point x="224.88888888888889" y="284.51851851851853"/>
      <point x="224.88888888888889" y="491.60493827160496" type="curve" smooth="yes"/>
      <point x="224.88888888888889" y="700.1358024691358"/>
      <point x="327.87654320987656" y="772.283950617284"/>
      <point x="559.6666666666666" y="772.283950617284" type="curve" smooth="yes"/>
      <point x="662.3086419753087" y="772.283950617284"/>
      <point x="748.2222222222222" y="765.9876543209876"/>
      <point x="783.6666666666666" y="764.283950617284" type="curve"/>
      <point x="783.6666666666666" y="1167.679012345679" type="line"/>
      <point x="636.9629629629629" y="1167.679012345679" type="line"/>
      <point x="636.9629629629629" y="859.1358024691358" type="line"/>
      <point x="715.1975308641976" y="881.4814814814815" type="line"/>
      <point x="650.1604938271605" y="896.7037037037037"/>
      <point x="590.8765432098766" y="902.641975308642"/>
      <point x="539.9382716049382" y="902.641975308642" type="curve" smooth="yes"/>
      <point x="196.93827160493828" y="902.641975308642"/>
      <point x="71.95061728395062" y="748.0617283950618"/>
      <point x="71.95061728395062" y="505.0617283950617" type="curve" smooth="yes"/>
      <point x="71.95061728395062" y="257.18518518518516"/>
      <point x="226.9506172839506" y="87.85185185185185"/>
    </contour>
    <contour>
      <point x="383.6296296296296" y="-392.2345679012346" type="curve" smooth="yes"/>
      <point x="716.3827160493827" y="-392.7037037037037"/>
      <point x="817.8765432098766" y="-39.54320987654321"/>
      <point x="814.5308641975308" y="202.2469135802469" type="curve"/>
      <point x="721.5679012345679" y="251.7037037037037" type="line"/>
      <point x="694.4444444444445" y="-40.222222222222214"/>
      <point x="590.4074074074074" y="-272.037037037037"/>
      <point x="384.60493827160496" y="-271.5679012345679" type="curve" smooth="yes"/>
      <point x="292.1975308641975" y="-271.3333333333333"/>
      <point x="228.90123456790124" y="-217.50617283950618"/>
      <point x="228.66666666666666" y="-132.97530864197532" type="curve" smooth="yes"/>
      <point x="228.19753086419752" y="-1.9753086419753076"/>
      <point x="349.320987654321" y="60.60493827160494"/>
      <point x="432.14814814814815" y="108.72839506172839" type="curve"/>
      <point x="380.85185185185185" y="200.62962962962962" type="line"/>
      <point x="302.7654320987654" y="159.11111111111111"/>
      <point x="91.06172839506173" y="64.08641975308642"/>
      <point x="90.5925925925926" y="-131.85185185185185" type="curve" smooth="yes"/>
      <point x="90.12345679012346" y="-289.0740740740741"/>
      <point x="205.5925925925926" y="-392.0"/>
    </contour>
    <contour>
      <point x="1049.1604938271605" y="-296.5061728395062" type="line"/>
      <point x="1157.1234567901236" y="-226.06172839506172" type="line"/>
      <point x="843.5802469135803" y="252.8641975308642" type="line"/>
      <point x="764.1358024691358" y="212.93827160493828" type="line"/>
    </contour>
    <contour>
      <point x="-13.641975308641975" y="1133.851851851852" type="line"/>
      <point x="1119.851851851852" y="1133.851851851852" type="line"/>
      <point x="1119.851851851852" y="1256.3827160493827" type="line"/>
      <point x="-13.641975308641975" y="1256.3827160493827" type="line"/>
    </contour>
    <contour>
      <point x="772.320987654321" y="-550.0493827160494" type="line"/>
      <point x="999.0246913580247" y="-105.75308641975309" type="line"/>
      <point x="919.7037037037037" y="-42.39506172839506" type="line"/>
      <point x="657.2962962962963" y="-497.01234567901236" type="line"/>
    </contour>
  </outline>
</glyph>
<glyph name="da_ra-deva" format="2">
  <advance width="1026.8765432098764"/>
  <anchor x="132.37037037037038" y="0.0" name="nukta"/>
  <anchor x="978.2962962962963" y="-34.97530864197531" name="bottom"/>
  <anchor x="634.8518518518518" y="1256.3827160493827" name="candra"/>
  <anchor x="720.2345679012345" y="1256.3827160493827" name="top"/>
  <outline>
    <contour>
      <point x="372.5308641975309" y="-196.66666666666666" type="line" smooth="yes"/>
      <point x="828.3086419753087" y="178.17283950617283" type="line"/>
      <point x="792.7407407407408" y="250.03703703703704" type="line"/>
      <point x="286.74074074074076" y="-94.23456790123457" type="line"/>
    </contour>
    <component base="da-deva"/>
  </outline>
</glyph>
<glyph name="dd_dd_ya-deva" format="2">
  <advance width="2193.6543209876545"/>
  <anchor x="1901.7530864197531" y="0.0" name="bottom"/>
  <anchor x="1808.8148148148148" y="1257.148148148148" name="candra"/>
  <anchor x="1899.8765432098764" y="1287.7654320987654" name="top"/>
  <anchor x="576.0" y="-707.074074074074" name="nukta"/>
  <outline>
    <contour>
      <point x="1009.2098765432099" y="1133.851851851852" type="line"/>
      <point x="2208.061728395062" y="1133.851851851852" type="line"/>
      <point x="2208.061728395062" y="1256.3827160493827" type="line"/>
      <point x="1009.2098765432099" y="1256.3827160493827" type="line"/>
    </contour>
    <contour>
      <point x="1528.7530864197531" y="151.49382716049382" type="curve" smooth="yes"/>
      <point x="1656.2222222222222" y="151.49382716049382"/>
      <point x="1764.530864197531" y="198.25925925925927"/>
      <point x="1852.4197530864199" y="289.91358024691357" type="curve"/>
      <point x="1858.2962962962963" y="473.1975308641975" type="line"/>
      <point x="1775.8271604938273" y="336.1975308641975"/>
      <point x="1633.2839506172838" y="284.55555555555554"/>
      <point x="1519.4074074074074" y="284.55555555555554" type="curve" smooth="yes"/>
      <point x="1377.037037037037" y="284.55555555555554"/>
      <point x="1268.79012345679" y="366.22222222222223"/>
      <point x="1232.79012345679" y="529.0617283950618" type="curve"/>
      <point x="1211.962962962963" y="474.0246913580247" type="line"/>
      <point x="1312.5432098765432" y="499.30864197530866"/>
      <point x="1488.3827160493827" y="570.4444444444445"/>
      <point x="1488.3827160493827" y="768.395061728395" type="curve" smooth="yes"/>
      <point x="1488.3827160493827" y="928.3086419753087"/>
      <point x="1375.20987654321" y="982.4814814814815"/>
      <point x="1190.5802469135801" y="982.2469135802469" type="curve" smooth="yes"/>
      <point x="801.8148148148148" y="982.0123456790124" type="line"/>
      <point x="815.8765432098766" y="861.3580246913581" type="line"/>
      <point x="1211.1604938271605" y="861.3580246913581" type="line" smooth="yes"/>
      <point x="1298.5432098765432" y="861.3580246913581"/>
      <point x="1352.2592592592594" y="832.5802469135803"/>
      <point x="1352.2592592592594" y="763.2716049382716" type="curve" smooth="yes"/>
      <point x="1352.2592592592594" y="677.0864197530864"/>
      <point x="1278.7283950617284" y="616.9382716049382"/>
      <point x="1091.432098765432" y="566.5802469135803" type="curve"/>
      <point x="1148.5555555555557" y="296.65432098765433"/>
      <point x="1302.1851851851852" y="151.49382716049382"/>
    </contour>
    <contour>
      <point x="1830.7777777777778" y="0.0" type="line"/>
      <point x="1976.4814814814815" y="0.0" type="line"/>
      <point x="1976.4814814814815" y="1160.851851851852" type="line"/>
      <point x="1830.7777777777778" y="1160.851851851852" type="line"/>
    </contour>
    <component base="dd_dda-deva"/>
  </outline>
</glyph>
<glyph name="ddh_ddh_ya-deva" format="2">
  <advance width="2243.4074074074074"/>
  <anchor x="1951.5061728395062" y="0.0" name="bottom"/>
  <anchor x="1858.567901234568" y="1257.148148148148" name="candra"/>
  <anchor x="1949.6296296296296" y="1287.7654320987654" name="top"/>
  <anchor x="-11.0" y="-452.0" name="nukta"/>
  <outline>
    <contour>
      <point x="1058.962962962963" y="1133.851851851852" type="line"/>
      <point x="2257.814814814815" y="1133.851851851852" type="line"/>
      <point x="2257.814814814815" y="1256.3827160493827" type="line"/>
      <point x="1058.962962962963" y="1256.3827160493827" type="line"/>
    </contour>
    <contour>
      <point x="1578.5061728395062" y="151.49382716049382" type="curve" smooth="yes"/>
      <point x="1705.9753086419753" y="151.49382716049382"/>
      <point x="1814.2839506172838" y="198.25925925925927"/>
      <point x="1902.1728395061727" y="289.91358024691357" type="curve"/>
      <point x="1908.0493827160494" y="473.1975308641975" type="line"/>
      <point x="1825.5802469135801" y="336.1975308641975"/>
      <point x="1683.037037037037" y="284.55555555555554"/>
      <point x="1569.1604938271605" y="284.55555555555554" type="curve" smooth="yes"/>
      <point x="1426.79012345679" y="284.55555555555554"/>
      <point x="1318.5432098765432" y="366.22222222222223"/>
      <point x="1282.5432098765432" y="529.0617283950618" type="curve"/>
      <point x="1261.716049382716" y="474.0246913580247" type="line"/>
      <point x="1362.2962962962963" y="499.30864197530866"/>
      <point x="1538.1358024691358" y="575.8395061728395"/>
      <point x="1538.1358024691358" y="758.4814814814815" type="curve" smooth="yes"/>
      <point x="1538.1358024691358" y="946.0493827160494"/>
      <point x="1424.962962962963" y="991.0"/>
      <point x="1240.3333333333333" y="991.2345679012345" type="curve" smooth="yes"/>
      <point x="798.9012345679013" y="991.7037037037037" type="line"/>
      <point x="846.6913580246913" y="877.679012345679" type="line"/>
      <point x="1260.9135802469136" y="876.2098765432099" type="line" smooth="yes"/>
      <point x="1348.2962962962963" y="876.2098765432099"/>
      <point x="1402.0123456790122" y="850.320987654321"/>
      <point x="1402.0123456790122" y="753.358024691358" type="curve" smooth="yes"/>
      <point x="1402.0123456790122" y="682.4814814814815"/>
      <point x="1328.4814814814815" y="616.9382716049382"/>
      <point x="1141.1851851851852" y="566.5802469135803" type="curve"/>
      <point x="1198.3086419753085" y="296.65432098765433"/>
      <point x="1351.9382716049383" y="151.49382716049382"/>
    </contour>
    <contour>
      <point x="1880.530864197531" y="0.0" type="line"/>
      <point x="2026.2345679012346" y="0.0" type="line"/>
      <point x="2026.2345679012346" y="1160.851851851852" type="line"/>
      <point x="1880.530864197531" y="1160.851851851852" type="line"/>
    </contour>
    <component base="ddh_ddha-deva"/>
  </outline>
</glyph>
<glyph name="dh_na-deva" format="2">
  <advance width="1248.3827160493827"/>
  <anchor x="970.4444444444445" y="0.0" name="bottom"/>
  <anchor x="877.283950617284" y="1256.3827160493827" name="candra"/>
  <anchor x="279.3703703703704" y="52.91358024691358" name="nukta"/>
  <anchor x="970.4444444444445" y="1256.3827160493827" name="top"/>
  <outline>
    <contour>
      <point x="568.1234567901234" y="-108.71604938271605" type="line"/>
      <point x="596.2222222222222" y="-84.96296296296296"/>
      <point x="607.0370370370371" y="-61.97530864197531"/>
      <point x="608.2716049382716" y="-39.691358024691354" type="curve" smooth="yes"/>
      <point x="609.5061728395061" y="-17.345679012345677"/>
      <point x="601.0370370370371" y="4.765432098765432"/>
      <point x="587.5679012345679" y="24.938271604938272" type="curve" smooth="yes"/>
      <point x="526.5432098765432" y="113.55555555555556" type="line"/>
      <point x="509.01234567901236" y="57.91358024691358" type="line"/>
      <point x="924.1111111111111" y="379.8395061728395" type="line"/>
      <point x="858.9382716049382" y="464.77777777777777" type="line"/>
      <point x="295.25925925925924" y="74.06172839506173" type="line"/>
      <point x="354.30864197530866" y="-28.197530864197528" type="line"/>
    </contour>
    <component base="dha-deva" xOffset="-2.2962962962962963"/>
  </outline>
</glyph>
<glyph name="dh_ra-deva" format="2">
  <advance width="723.4320987654321"/>
  <outline>
    <contour>
      <point x="311.28395061728395" y="-48.25925925925926" type="line"/>
      <point x="835.2716049382716" y="340.81481481481484" type="line"/>
      <point x="805.1111111111111" y="432.12345679012344" type="line"/>
      <point x="226.96296296296296" y="63.75308641975309" type="line"/>
    </contour>
    <component base="dh-deva"/>
  </outline>
</glyph>
<glyph name="dieresiscomb.cap" format="2">
  <anchor x="281.0246913580247" y="1344.5925925925926" name="_top"/>
  <anchor x="281.0246913580247" y="1660.679012345679" name="top"/>
  <outline>
    <contour>
      <point x="455.2469135802469" y="1488.6049382716049" type="curve" smooth="yes"/>
      <point x="512.4691358024692" y="1488.6049382716049"/>
      <point x="552.0493827160494" y="1528.1234567901236"/>
      <point x="552.0493827160494" y="1585.4074074074074" type="curve" smooth="yes"/>
      <point x="552.0493827160494" y="1642.9259259259259"/>
      <point x="512.4691358024692" y="1681.4444444444443"/>
      <point x="455.2469135802469" y="1681.4444444444443" type="curve" smooth="yes"/>
      <point x="400.0246913580247" y="1681.4444444444443"/>
      <point x="358.2098765432099" y="1642.9259259259259"/>
      <point x="358.2098765432099" y="1585.4074074074074" type="curve" smooth="yes"/>
      <point x="358.2098765432099" y="1528.1234567901236"/>
      <point x="400.0246913580247" y="1488.6049382716049"/>
    </contour>
    <contour>
      <point x="106.80246913580247" y="1488.6049382716049" type="curve" smooth="yes"/>
      <point x="162.02469135802468" y="1488.6049382716049"/>
      <point x="203.8395061728395" y="1528.1234567901236"/>
      <point x="203.8395061728395" y="1585.4074074074074" type="curve" smooth="yes"/>
      <point x="203.8395061728395" y="1642.9259259259259"/>
      <point x="162.02469135802468" y="1681.4444444444443"/>
      <point x="106.80246913580247" y="1681.4444444444443" type="curve" smooth="yes"/>
      <point x="49.58024691358025" y="1681.4444444444443"/>
      <point x="10.0" y="1642.9259259259259"/>
      <point x="10.0" y="1585.4074074074074" type="curve" smooth="yes"/>
      <point x="10.0" y="1528.1234567901236"/>
      <point x="49.58024691358025" y="1488.6049382716049"/>
    </contour>
  </outline>
</glyph>
<glyph name="dotaccentcomb.cap" format="2">
  <anchor x="122.14814814814815" y="1344.5925925925926" name="_top"/>
  <anchor x="122.14814814814815" y="1675.2592592592594" name="top"/>
  <outline>
    <contour>
      <point x="122.14814814814815" y="1483.7777777777778" type="curve" smooth="yes"/>
      <point x="184.77777777777777" y="1483.7777777777778"/>
      <point x="234.2962962962963" y="1527.0617283950617"/>
      <point x="234.2962962962963" y="1591.283950617284" type="curve" smooth="yes"/>
      <point x="234.2962962962963" y="1652.7407407407406"/>
      <point x="184.77777777777777" y="1695.2592592592594"/>
      <point x="122.14814814814815" y="1695.2592592592594" type="curve" smooth="yes"/>
      <point x="59.51851851851852" y="1695.2592592592594"/>
      <point x="10.0" y="1652.7407407407406"/>
      <point x="10.0" y="1591.283950617284" type="curve" smooth="yes"/>
      <point x="10.0" y="1527.0617283950617"/>
      <point x="59.51851851851852" y="1483.7777777777778"/>
    </contour>
  </outline>
</glyph>
<glyph name="dotbelowcomb.cap" format="2">
  <anchor x="115.20987654320987" y="0.0" name="_bottom"/>
  <anchor x="115.20987654320987" y="-418.0987654320988" name="bottom"/>
  <outline>
    <contour>
      <point x="115.20987654320987" y="-418.0987654320988" type="curve" smooth="yes"/>
      <point x="175.90123456790124" y="-418.0987654320988"/>
      <point x="220.41975308641975" y="-375.04938271604937"/>
      <point x="220.41975308641975" y="-311.2962962962963" type="curve" smooth="yes"/>
      <point x="220.41975308641975" y="-250.30864197530863"/>
      <point x="175.90123456790124" y="-207.25925925925927"/>
      <point x="115.20987654320987" y="-207.25925925925927" type="curve" smooth="yes"/>
      <point x="54.51851851851852" y="-207.25925925925927"/>
      <point x="10.0" y="-250.30864197530863"/>
      <point x="10.0" y="-311.2962962962963" type="curve" smooth="yes"/>
      <point x="10.0" y="-375.04938271604937"/>
      <point x="54.51851851851852" y="-418.0987654320988"/>
    </contour>
  </outline>
</glyph>
<glyph name="eMatra_reph_candraBindu-deva" format="2">
  <advance width="538.5308641975308"/>
  <anchor x="244.12345679012347" y="1256.3827160493827" name="_top"/>
  <anchor x="188.44444444444446" y="1608.0123456790122" name="candra"/>
  <anchor x="185.3827160493827" y="1608.2469135802469" name="top"/>
  <outline>
    <contour>
      <point x="250.82716049382717" y="1224.6913580246915" type="curve"/>
      <point x="313.2716049382716" y="1249.9753086419753" type="line"/>
      <point x="290.5061728395062" y="1298.4444444444443"/>
      <point x="250.49382716049382" y="1383.641975308642"/>
      <point x="250.49382716049382" y="1450.1234567901236" type="curve" smooth="yes"/>
      <point x="250.49382716049382" y="1552.4074074074074"/>
      <point x="317.44444444444446" y="1637.5185185185185"/>
      <point x="434.0740740740741" y="1637.5185185185185" type="curve" smooth="yes"/>
      <point x="507.9753086419753" y="1637.5185185185185"/>
      <point x="568.0987654320987" y="1617.567901234568"/>
      <point x="618.8518518518518" y="1591.8024691358025" type="curve"/>
      <point x="654.6666666666666" y="1704.5802469135801" type="line"/>
      <point x="599.320987654321" y="1739.469135802469"/>
      <point x="514.0246913580247" y="1763.9382716049383"/>
      <point x="420.98765432098764" y="1762.2962962962963" type="curve" smooth="yes"/>
      <point x="250.4814814814815" y="1759.2469135802469"/>
      <point x="133.12345679012347" y="1633.962962962963"/>
      <point x="133.12345679012347" y="1488.2716049382716" type="curve" smooth="yes"/>
      <point x="133.12345679012347" y="1411.20987654321"/>
      <point x="159.37037037037038" y="1317.7407407407406"/>
    </contour>
    <contour>
      <point x="206.9506172839506" y="1210.9259259259259" type="line"/>
      <point x="307.8024691358025" y="1254.0864197530864" type="line"/>
      <point x="123.27160493827161" y="1722.7654320987654"/>
      <point x="48.123456790123456" y="1798.679012345679"/>
      <point x="-234.14814814814815" y="1798.679012345679" type="curve" smooth="yes"/>
      <point x="-283.9753086419753" y="1798.679012345679"/>
      <point x="-329.5432098765432" y="1793.9753086419753"/>
      <point x="-385.0740740740741" y="1782.2716049382716" type="curve"/>
      <point x="-362.962962962963" y="1658.79012345679" type="line"/>
      <point x="-324.320987654321" y="1665.320987654321"/>
      <point x="-280.85185185185185" y="1669.79012345679"/>
      <point x="-218.60493827160494" y="1669.79012345679" type="curve" smooth="yes"/>
      <point x="-16.012345679012345" y="1669.79012345679"/>
      <point x="46.06172839506173" y="1565.3950617283951"/>
      <point x="186.30864197530863" y="1256.3827160493827" type="curve" smooth="yes"/>
    </contour>
    <component base="candraBindu-deva" xScale="0.6366691358024691" yScale="0.6366691358024691" xOffset="316.30864197530866" yOffset="404.58024691358025"/>
  </outline>
</glyph>
<glyph name="eight.tf" format="2">
  <advance width="1003.0"/>
  <outline>
    <contour>
      <point x="505.0617283950617" y="-25.0" type="curve" smooth="yes"/>
      <point x="769.4567901234568" y="-25.0"/>
      <point x="922.6913580246913" y="136.93827160493828"/>
      <point x="922.6913580246913" y="331.34567901234567" type="curve" smooth="yes"/>
      <point x="922.6913580246913" y="506.87654320987656"/>
      <point x="811.3333333333334" y="613.4074074074074"/>
      <point x="695.395061728395" y="680.4074074074074" type="curve"/>
      <point x="695.395061728395" y="689.4074074074074" type="line"/>
      <point x="774.3333333333334" y="750.1728395061729"/>
      <point x="876.7530864197531" y="881.2962962962963"/>
      <point x="876.7530864197531" y="1018.6543209876543" type="curve" smooth="yes"/>
      <point x="876.7530864197531" y="1221.2962962962963"/>
      <point x="741.3456790123457" y="1369.2962962962963"/>
      <point x="513.2345679012345" y="1369.2962962962963" type="curve" smooth="yes"/>
      <point x="293.3703703703704" y="1369.2962962962963"/>
      <point x="144.19753086419752" y="1228.358024691358"/>
      <point x="144.19753086419752" y="1029.3086419753085" type="curve" smooth="yes"/>
      <point x="144.19753086419752" y="891.5432098765432"/>
      <point x="227.49382716049382" y="786.5432098765432"/>
      <point x="324.962962962963" y="719.3703703703703" type="curve"/>
      <point x="324.962962962963" y="711.3703703703703" type="line"/>
      <point x="201.96296296296296" y="646.3703703703703"/>
      <point x="78.54320987654322" y="513.358024691358"/>
      <point x="78.54320987654322" y="343.0" type="curve" smooth="yes"/>
      <point x="78.54320987654322" y="135.76543209876544"/>
      <point x="258.30864197530866" y="-25.0"/>
    </contour>
    <contour>
      <point x="508.5308641975309" y="92.19753086419753" type="curve" smooth="yes"/>
      <point x="342.1604938271605" y="92.19753086419753"/>
      <point x="221.25925925925927" y="209.2716049382716"/>
      <point x="221.25925925925927" y="356.81481481481484" type="curve" smooth="yes"/>
      <point x="221.25925925925927" y="479.95061728395063"/>
      <point x="298.2716049382716" y="592.4938271604939"/>
      <point x="408.0" y="663.1481481481482" type="curve"/>
      <point x="598.4814814814815" y="586.320987654321"/>
      <point x="772.5679012345679" y="510.0740740740741"/>
      <point x="772.5679012345679" y="336.04938271604937" type="curve" smooth="yes"/>
      <point x="772.5679012345679" y="199.5679012345679"/>
      <point x="679.6666666666666" y="92.19753086419753"/>
    </contour>
    <contour>
      <point x="597.6543209876543" y="731.6296296296297" type="curve"/>
      <point x="432.04938271604937" y="793.2222222222222"/>
      <point x="289.14814814814815" y="868.8148148148148"/>
      <point x="289.14814814814815" y="1029.3086419753085" type="curve" smooth="yes"/>
      <point x="289.14814814814815" y="1158.5555555555557"/>
      <point x="372.4567901234568" y="1252.8641975308642"/>
      <point x="510.2962962962963" y="1252.8641975308642" type="curve" smooth="yes"/>
      <point x="658.9012345679013" y="1252.8641975308642"/>
      <point x="740.4444444444445" y="1143.79012345679"/>
      <point x="740.4444444444445" y="1011.7777777777778" type="curve" smooth="yes"/>
      <point x="740.4444444444445" y="913.0"/>
      <point x="689.2592592592592" y="811.8148148148148"/>
    </contour>
  </outline>
</glyph>
<glyph name="five.tf" format="2">
  <advance width="1003.0"/>
  <outline>
    <contour>
      <point x="480.4691358024691" y="-175.17283950617283" type="curve" smooth="yes"/>
      <point x="705.4567901234568" y="-175.17283950617283"/>
      <point x="910.6296296296297" y="-7.234567901234568"/>
      <point x="910.6296296296297" y="279.4074074074074" type="curve" smooth="yes"/>
      <point x="910.6296296296297" y="564.7037037037037"/>
      <point x="738.925925925926" y="688.4074074074074"/>
      <point x="505.4567901234568" y="688.4074074074074" type="curve" smooth="yes"/>
      <point x="423.2098765432099" y="688.4074074074074"/>
      <point x="361.7901234567901" y="665.283950617284"/>
      <point x="299.4320987654321" y="631.925925925926" type="curve"/>
      <point x="335.55555555555554" y="1038.9259259259259" type="line"/>
      <point x="843.8024691358024" y="1038.9259259259259" type="line"/>
      <point x="843.8024691358024" y="1174.4074074074074" type="line"/>
      <point x="198.37037037037038" y="1174.4074074074074" type="line"/>
      <point x="155.30864197530863" y="541.7777777777778" type="line"/>
      <point x="240.87654320987653" y="487.08641975308643" type="line"/>
      <point x="318.87654320987656" y="539.320987654321"/>
      <point x="375.5308641975309" y="567.4444444444445"/>
      <point x="467.18518518518516" y="567.4444444444445" type="curve" smooth="yes"/>
      <point x="639.3827160493827" y="567.4444444444445"/>
      <point x="752.6296296296297" y="465.1358024691358"/>
      <point x="752.6296296296297" y="274.17283950617286" type="curve" smooth="yes"/>
      <point x="752.6296296296297" y="85.50617283950618"/>
      <point x="628.7283950617284" y="-44.39506172839506"/>
      <point x="466.48148148148147" y="-44.39506172839506" type="curve" smooth="yes"/>
      <point x="308.81481481481484" y="-44.39506172839506"/>
      <point x="213.7530864197531" y="25.493827160493826"/>
      <point x="135.7530864197531" y="95.79012345679013" type="curve"/>
      <point x="58.24691358024691" y="-3.7037037037037037" type="line"/>
      <point x="147.88888888888889" y="-89.11111111111111"/>
      <point x="271.0" y="-175.17283950617283"/>
    </contour>
  </outline>
</glyph>
<glyph name="four.tf" format="2">
  <advance width="1003.0"/>
  <outline>
    <contour>
      <point x="622.1358024691358" y="-150.40740740740742" type="line"/>
      <point x="769.9629629629629" y="-150.40740740740742" type="line"/>
      <point x="769.9629629629629" y="195.4814814814815" type="line"/>
      <point x="950.7407407407408" y="195.4814814814815" type="line"/>
      <point x="950.7407407407408" y="321.32098765432096" type="line"/>
      <point x="769.9629629629629" y="321.32098765432096" type="line"/>
      <point x="769.9629629629629" y="1174.4074074074074" type="line"/>
      <point x="598.4567901234568" y="1174.4074074074074" type="line"/>
      <point x="31.88888888888889" y="297.55555555555554" type="line"/>
      <point x="31.88888888888889" y="195.4814814814815" type="line"/>
      <point x="622.1358024691358" y="195.4814814814815" type="line"/>
    </contour>
    <contour>
      <point x="198.30864197530863" y="321.32098765432096" type="line"/>
      <point x="516.604938271605" y="797.395061728395" type="line"/>
      <point x="553.604938271605" y="861.8024691358024"/>
      <point x="590.604938271605" y="931.4444444444445"/>
      <point x="623.604938271605" y="994.8518518518518" type="curve"/>
      <point x="631.604938271605" y="994.8518518518518" type="line"/>
      <point x="627.604938271605" y="927.7407407407408"/>
      <point x="622.1358024691358" y="822.1604938271605"/>
      <point x="622.1358024691358" y="753.283950617284" type="curve" smooth="yes"/>
      <point x="622.1358024691358" y="321.32098765432096" type="line"/>
    </contour>
  </outline>
</glyph>
<glyph name="g_n_ya-deva" format="2">
  <advance width="1758.8641975308642"/>
  <anchor x="1481.6913580246915" y="0.0" name="bottom"/>
  <anchor x="1385.3703703703704" y="1256.3827160493827" name="candra"/>
  <anchor x="290.69135802469134" y="84.61728395061729" name="nukta_1"/>
  <anchor x="810.0" y="56.96296296296296" name="nukta_2"/>
  <anchor x="1481.6913580246915" y="1256.3827160493827" name="top"/>
  <outline>
    <contour>
      <point x="496.69135802469134" y="-5.950617283950615" type="line"/>
      <point x="523.6172839506173" y="18.567901234567906"/>
      <point x="533.4938271604939" y="41.32098765432099"/>
      <point x="533.4938271604939" y="63.370370370370374" type="curve" smooth="yes"/>
      <point x="533.4938271604939" y="85.24691358024691"/>
      <point x="525.0246913580247" y="106.88888888888889"/>
      <point x="510.55555555555554" y="126.82716049382717" type="curve" smooth="yes"/>
      <point x="447.8888888888889" y="215.3827160493827" type="line"/>
      <point x="431.82716049382714" y="159.97530864197532" type="line"/>
      <point x="866.2469135802469" y="438.28395061728395" type="line"/>
      <point x="807.8024691358024" y="538.6666666666666" type="line"/>
      <point x="219.65432098765433" y="167.83950617283952" type="line"/>
      <point x="281.4074074074074" y="68.4567901234568" type="line"/>
    </contour>
    <component base="g-deva"/>
    <component base="ya-deva" xOffset="614.0"/>
  </outline>
</glyph>
<glyph name="g_na-deva" format="2">
  <advance width="1162.679012345679"/>
  <anchor x="884.9753086419753" y="0.0" name="bottom"/>
  <anchor x="793.2962962962963" y="1256.3827160493827" name="candra"/>
  <anchor x="290.69135802469134" y="84.61728395061729" name="nukta"/>
  <anchor x="885.5061728395061" y="1256.3827160493827" name="top"/>
  <outline>
    <contour>
      <point x="496.69135802469134" y="-5.950617283950615" type="line"/>
      <point x="523.6172839506173" y="18.567901234567906"/>
      <point x="533.4938271604939" y="41.32098765432099"/>
      <point x="533.4938271604939" y="63.370370370370374" type="curve" smooth="yes"/>
      <point x="533.4938271604939" y="85.24691358024691"/>
      <point x="525.0246913580247" y="106.88888888888889"/>
      <point x="510.55555555555554" y="126.82716049382717" type="curve" smooth="yes"/>
      <point x="447.8888888888889" y="215.3827160493827" type="line"/>
      <point x="431.82716049382714" y="159.97530864197532" type="line"/>
      <point x="881.5555555555555" y="476.55555555555554" type="line"/>
      <point x="823.1111111111111" y="576.9382716049382" type="line"/>
      <point x="219.65432098765433" y="167.83950617283952" type="line"/>
      <point x="281.4074074074074" y="68.4567901234568" type="line"/>
    </contour>
    <component base="g-deva"/>
    <component base="aaMatra-deva" xOffset="607.0370370370371"/>
  </outline>
</glyph>
<glyph name="g_ra-deva" format="2">
  <advance width="604.2345679012345"/>
  <anchor x="290.69135802469134" y="84.61728395061729" name="nukta"/>
  <outline>
    <contour>
      <point x="290.4938271604938" y="-19.40740740740741" type="line"/>
      <point x="852.6543209876543" y="426.1604938271605" type="line"/>
      <point x="793.2345679012345" y="521.3827160493827" type="line"/>
      <point x="201.23456790123456" y="86.4320987654321" type="line"/>
    </contour>
    <component base="g-deva"/>
  </outline>
</glyph>
<glyph name="gh_na-deva" format="2">
  <advance width="1191.4074074074074"/>
  <anchor x="913.4074074074074" y="0.0" name="bottom"/>
  <anchor x="846.8518518518518" y="1256.3827160493827" name="candra"/>
  <anchor x="278.12345679012344" y="52.91358024691358" name="nukta"/>
  <anchor x="915.9382716049382" y="1256.3827160493827" name="top"/>
  <outline>
    <contour>
      <point x="519.3703703703703" y="-134.8395061728395" type="line"/>
      <point x="547.4691358024692" y="-111.08641975308642"/>
      <point x="558.283950617284" y="-88.09876543209876"/>
      <point x="559.5185185185185" y="-65.81481481481481" type="curve" smooth="yes"/>
      <point x="560.5185185185185" y="-43.46913580246913"/>
      <point x="552.283950617284" y="-21.358024691358025"/>
      <point x="538.8148148148148" y="-1.1851851851851856" type="curve" smooth="yes"/>
      <point x="477.7901234567901" y="87.4320987654321" type="line"/>
      <point x="460.25925925925924" y="31.790123456790127" type="line"/>
      <point x="875.358024691358" y="353.71604938271605" type="line"/>
      <point x="810.1851851851852" y="438.65432098765433" type="line"/>
      <point x="246.50617283950618" y="47.93827160493827" type="line"/>
      <point x="305.55555555555554" y="-54.32098765432099" type="line"/>
    </contour>
    <component base="gha-deva" xOffset="3.641975308641975"/>
  </outline>
</glyph>
<glyph name="gh_ra-deva" format="2">
  <advance width="684.9012345679013"/>
  <outline>
    <contour>
      <point x="312.58024691358025" y="-41.148148148148145" type="line"/>
      <point x="796.2469135802469" y="327.9382716049383" type="line"/>
      <point x="765.320987654321" y="421.71604938271605" type="line"/>
      <point x="223.85185185185185" y="66.22222222222223" type="line"/>
    </contour>
    <component base="gh-deva"/>
  </outline>
</glyph>
<glyph name="ghh_ra-deva" format="2">
  <advance width="1139.111111111111"/>
  <anchor x="861.1728395061729" y="27.765432098765434" name="bottom"/>
  <anchor x="583.1358024691358" y="1257.148148148148" name="candra"/>
  <anchor x="311.58024691358025" y="127.06172839506173" name="nukta"/>
  <anchor x="861.9382716049382" y="1287.7654320987654" name="top"/>
  <outline>
    <contour>
      <point x="331.44444444444446" y="-44.148148148148145" type="line"/>
      <point x="853.7530864197531" y="336.58024691358025" type="line"/>
      <point x="809.4938271604939" y="414.4938271604938" type="line"/>
      <point x="247.41975308641975" y="65.98765432098766" type="line"/>
    </contour>
    <component base="ga-deva"/>
    <component base="nukta-deva" xOffset="328.34567901234567" yOffset="-15.0"/>
  </outline>
</glyph>
<glyph name="hungarumlautcomb.cap" format="2">
  <anchor x="238.33333333333334" y="1344.5925925925926" name="_top"/>
  <anchor x="312.5246913580247" y="1674.4074074074074" name="top"/>
  <outline>
    <contour>
      <point x="330.037037037037" y="1476.5925925925926" type="line"/>
      <point x="445.7037037037037" y="1476.5925925925926" type="line"/>
      <point x="615.0493827160494" y="1704.4074074074074" type="line"/>
      <point x="465.5679012345679" y="1704.4074074074074" type="line"/>
    </contour>
    <contour>
      <point x="10.0" y="1476.5925925925926" type="line"/>
      <point x="126.1358024691358" y="1476.5925925925926" type="line"/>
      <point x="295.01234567901236" y="1704.4074074074074" type="line"/>
      <point x="145.2962962962963" y="1704.4074074074074" type="line"/>
    </contour>
  </outline>
</glyph>
<glyph name="j_ny-deva" format="2">
  <advance width="857.0246913580247"/>
  <outline>
    <contour>
      <point x="502.25925925925924" y="-29.555555555555554" type="curve"/>
      <point x="724.5802469135803" y="-29.555555555555554"/>
      <point x="893.7654320987655" y="75.30864197530865"/>
      <point x="893.7654320987655" y="299.5925925925926" type="curve" smooth="yes"/>
      <point x="893.7654320987655" y="513.283950617284"/>
      <point x="752.7777777777778" y="553.641975308642"/>
      <point x="606.7901234567901" y="553.641975308642" type="curve" smooth="yes"/>
      <point x="492.91358024691357" y="553.641975308642"/>
      <point x="384.61728395061726" y="532.641975308642"/>
      <point x="325.08641975308643" y="516.5802469135803" type="curve"/>
      <point x="352.2098765432099" y="502.69135802469134" type="line"/>
      <point x="321.2469135802469" y="546.5925925925926"/>
      <point x="302.18518518518516" y="601.1358024691358"/>
      <point x="302.18518518518516" y="658.7283950617284" type="curve" smooth="yes"/>
      <point x="302.18518518518516" y="743.320987654321"/>
      <point x="342.41975308641975" y="776.3333333333334"/>
      <point x="451.8395061728395" y="776.3333333333334" type="curve" smooth="yes"/>
      <point x="1192.3456790123457" y="776.3333333333334" type="line"/>
      <point x="1187.2222222222222" y="905.925925925926" type="line"/>
      <point x="419.1358024691358" y="905.925925925926" type="line" smooth="yes"/>
      <point x="255.0493827160494" y="905.925925925926"/>
      <point x="168.76543209876544" y="835.6296296296297"/>
      <point x="168.76543209876544" y="698.1234567901234" type="curve" smooth="yes"/>
      <point x="168.76543209876544" y="587.7901234567901"/>
      <point x="218.8148148148148" y="473.04938271604937"/>
      <point x="277.5679012345679" y="419.34567901234567" type="curve" smooth="yes"/>
      <point x="299.55555555555554" y="400.0"/>
      <point x="324.38271604938274" y="386.4567901234568"/>
      <point x="357.74074074074076" y="391.7530864197531" type="curve" smooth="yes"/>
      <point x="411.61728395061726" y="400.04938271604937"/>
      <point x="511.96296296296293" y="421.04938271604937"/>
      <point x="597.320987654321" y="421.04938271604937" type="curve" smooth="yes"/>
      <point x="723.2222222222222" y="421.04938271604937"/>
      <point x="758.2345679012345" y="368.44444444444446"/>
      <point x="755.9382716049382" y="279.65432098765433" type="curve" smooth="yes"/>
      <point x="752.8765432098766" y="171.50617283950618"/>
      <point x="680.9012345679013" y="98.5679012345679"/>
      <point x="493.32098765432096" y="98.5679012345679" type="curve" smooth="yes"/>
      <point x="405.95061728395063" y="98.5679012345679"/>
      <point x="320.41975308641975" y="112.92592592592592"/>
      <point x="225.09876543209876" y="161.03703703703704" type="curve"/>
      <point x="305.7654320987654" y="93.71604938271605" type="line"/>
      <point x="216.2469135802469" y="279.7654320987654" type="line"/>
      <point x="84.34567901234568" y="247.93827160493828" type="line"/>
      <point x="80.87654320987654" y="226.35802469135803"/>
      <point x="78.64197530864197" y="201.30864197530863"/>
      <point x="78.64197530864197" y="186.19753086419752" type="curve" smooth="yes"/>
      <point x="78.64197530864197" y="70.69135802469137"/>
      <point x="173.679012345679" y="23.395061728395063"/>
      <point x="286.60493827160496" y="-11.839506172839505" type="curve"/>
      <point x="289.8888888888889" y="16.333333333333336" type="line"/>
      <point x="354.12345679012344" y="-15.790123456790122"/>
      <point x="425.8395061728395" y="-29.555555555555554"/>
    </contour>
    <contour>
      <point x="417.037037037037" y="-329.08641975308643" type="line"/>
      <point x="536.5185185185185" y="-259.58024691358025" type="line"/>
      <point x="281.0740740740741" y="107.62962962962963" type="line"/>
      <point x="195.11111111111111" y="93.27160493827161" type="line"/>
    </contour>
    <contour>
      <point x="-20.0" y="1133.851851851852" type="line"/>
      <point x="982.3333333333334" y="1133.851851851852" type="line"/>
      <point x="982.3333333333334" y="1256.3827160493827" type="line"/>
      <point x="-20.0" y="1256.3827160493827" type="line"/>
    </contour>
  </outline>
</glyph>
<glyph name="jh_ra-deva" format="2">
  <advance width="1078.6666666666667"/>
  <outline>
    <contour>
      <point x="527.7901234567901" y="50.44444444444444" type="curve"/>
      <point x="744.4197530864197" y="50.44444444444444"/>
      <point x="924.6666666666666" y="155.30864197530863"/>
      <point x="924.6666666666666" y="379.5925925925926" type="curve" smooth="yes"/>
      <point x="924.6666666666666" y="593.283950617284"/>
      <point x="778.3827160493827" y="634.4074074074074"/>
      <point x="630.0370370370371" y="633.641975308642" type="curve" smooth="yes"/>
      <point x="510.39506172839504" y="632.8765432098766"/>
      <point x="324.38271604938274" y="612.641975308642"/>
      <point x="261.85185185185185" y="596.5802469135803" type="curve"/>
      <point x="290.9753086419753" y="582.6913580246913" type="line"/>
      <point x="255.2469135802469" y="626.5925925925926"/>
      <point x="235.1851851851852" y="671.1358024691358"/>
      <point x="235.1851851851852" y="726.3827160493827" type="curve" smooth="yes"/>
      <point x="235.1851851851852" y="799.3333333333334"/>
      <point x="263.8888888888889" y="841.641975308642"/>
      <point x="393.60493827160496" y="841.641975308642" type="curve" smooth="yes"/>
      <point x="756.679012345679" y="841.641975308642" type="line"/>
      <point x="740.3333333333334" y="971.2345679012345" type="line"/>
      <point x="359.6666666666667" y="971.2345679012345" type="line" smooth="yes"/>
      <point x="185.88888888888889" y="971.2345679012345"/>
      <point x="101.76543209876543" y="896.716049382716"/>
      <point x="101.76543209876543" y="763.4320987654321" type="curve" smooth="yes"/>
      <point x="101.76543209876543" y="657.2592592592592"/>
      <point x="152.8148148148148" y="553.8148148148148"/>
      <point x="213.09876543209876" y="499.58024691358025" type="curve" smooth="yes"/>
      <point x="236.08641975308643" y="479.2345679012346"/>
      <point x="261.14814814814815" y="466.4567901234568"/>
      <point x="297.2716049382716" y="471.7530864197531" type="curve" smooth="yes"/>
      <point x="353.61728395061726" y="480.04938271604937"/>
      <point x="528.679012345679" y="501.04938271604937"/>
      <point x="620.5679012345679" y="501.04938271604937" type="curve" smooth="yes"/>
      <point x="747.5308641975308" y="501.04938271604937"/>
      <point x="790.604938271605" y="450.74074074074076"/>
      <point x="788.074074074074" y="359.65432098765433" type="curve" smooth="yes"/>
      <point x="785.5432098765432" y="254.5679012345679"/>
      <point x="706.8024691358024" y="178.5679012345679"/>
      <point x="518.8518518518518" y="178.5679012345679" type="curve" smooth="yes"/>
      <point x="423.48148148148147" y="178.5679012345679"/>
      <point x="334.41975308641975" y="192.92592592592592"/>
      <point x="238.09876543209876" y="241.03703703703704" type="curve"/>
      <point x="317.7654320987654" y="173.71604938271605" type="line"/>
      <point x="224.48148148148147" y="359.7654320987654" type="line"/>
      <point x="91.58024691358024" y="327.9382716049383" type="line"/>
      <point x="88.11111111111111" y="306.358024691358"/>
      <point x="85.87654320987654" y="282.60493827160496"/>
      <point x="85.87654320987654" y="266.1975308641975" type="curve" smooth="yes"/>
      <point x="85.87654320987654" y="149.1604938271605"/>
      <point x="185.97530864197532" y="102.62962962962963"/>
      <point x="299.60493827160496" y="68.1604938271605" type="curve"/>
      <point x="301.8888888888889" y="96.33333333333334" type="line"/>
      <point x="369.12345679012344" y="64.20987654320987"/>
      <point x="447.1358024691358" y="50.44444444444444"/>
    </contour>
    <contour>
      <point x="439.8024691358025" y="-249.08641975308643" type="line"/>
      <point x="559.0493827160494" y="-179.58024691358025" type="line"/>
      <point x="294.0740740740741" y="187.62962962962962" type="line"/>
      <point x="208.11111111111111" y="173.2716049382716" type="line"/>
    </contour>
    <contour>
      <point x="923.4814814814815" y="-62.54320987654321" type="line"/>
      <point x="1351.4938271604938" y="315.03703703703707" type="line"/>
      <point x="1282.320987654321" y="403.14814814814815" type="line"/>
      <point x="834.2222222222222" y="39.41975308641975" type="line"/>
    </contour>
    <contour>
      <point x="857.1358024691358" y="410.7654320987654" type="line"/>
      <point x="963.1358024691358" y="396.358024691358"/>
      <point x="1179.0493827160494" y="442.2345679012346"/>
      <point x="1256.2716049382716" y="505.17283950617286" type="curve"/>
      <point x="1237.3456790123457" y="641.358024691358" type="line"/>
      <point x="1107.888888888889" y="549.8888888888889"/>
      <point x="924.2098765432099" y="514.2469135802469"/>
      <point x="805.9753086419753" y="525.1851851851852" type="curve"/>
    </contour>
    <contour>
      <point x="666.4814814814815" y="841.641975308642" type="line"/>
      <point x="810.716049382716" y="841.641975308642" type="line"/>
      <point x="810.716049382716" y="1184.679012345679" type="line"/>
      <point x="666.4814814814815" y="1184.679012345679" type="line"/>
    </contour>
    <contour>
      <point x="-13.641975308641975" y="1133.851851851852" type="line"/>
      <point x="1094.5432098765432" y="1133.851851851852" type="line"/>
      <point x="1094.5432098765432" y="1256.3827160493827" type="line"/>
      <point x="-13.641975308641975" y="1256.3827160493827" type="line"/>
    </contour>
  </outline>
</glyph>
<glyph name="k_ra-deva" format="2">
  <advance width="1160.962962962963"/>
  <anchor x="165.59259259259258" y="6.5679012345679" name="nukta"/>
  <outline>
    <contour>
      <point x="255.58024691358025" y="-44.91358024691358" type="line"/>
      <point x="767.7530864197531" y="368.12345679012344" type="line"/>
      <point x="721.4320987654321" y="439.6296296296296" type="line"/>
      <point x="171.5769012345679" y="62.07072839506173" type="line"/>
    </contour>
    <component base="k-deva"/>
  </outline>
</glyph>
<glyph name="l_ja-deva" format="2">
  <advance width="2368.2098765432097"/>
  <anchor x="2093.2098765432097" y="27.765432098765434" name="bottom"/>
  <anchor x="2076.2716049382716" y="1257.3827160493827" name="candra"/>
  <anchor x="1036.0493827160494" y="43.2962962962963" name="nukta"/>
  <anchor x="2094.037037037037" y="1256.3827160493827" name="top"/>
  <outline>
    <contour>
      <point x="1573.3086419753085" y="733.0987654320987" type="line"/>
      <point x="2108.0864197530864" y="733.0987654320987" type="line"/>
      <point x="2108.0864197530864" y="861.925925925926" type="line"/>
      <point x="1514.148148148148" y="861.925925925926" type="line"/>
    </contour>
    <contour>
      <point x="2017.6543209876543" y="0.0" type="line"/>
      <point x="2163.358024691358" y="0.0" type="line"/>
      <point x="2163.358024691358" y="1192.8765432098764" type="line"/>
      <point x="2017.6543209876543" y="1192.8765432098764" type="line"/>
    </contour>
    <contour>
      <point x="314.12345679012344" y="29.358024691358025" type="curve"/>
      <point x="422.32098765432096" y="117.32098765432099" type="line"/>
      <point x="322.037037037037" y="245.54320987654322"/>
      <point x="214.07407407407408" y="409.98765432098764"/>
      <point x="214.07407407407408" y="586.1358024691358" type="curve" smooth="yes"/>
      <point x="214.07407407407408" y="736.0864197530864"/>
      <point x="296.08641975308643" y="788.0987654320987"/>
      <point x="394.22222222222223" y="788.0987654320987" type="curve" smooth="yes"/>
      <point x="511.2345679012346" y="788.0987654320987"/>
      <point x="583.7654320987655" y="706.4567901234568"/>
      <point x="646.2222222222222" y="578.0987654320987" type="curve"/>
      <point x="679.0" y="683.2469135802469" type="line"/>
      <point x="605.4691358024692" y="857.7037037037037"/>
      <point x="503.2345679012346" y="924.6913580246913"/>
      <point x="364.8888888888889" y="924.6913580246913" type="curve" smooth="yes"/>
      <point x="180.01234567901236" y="924.6913580246913"/>
      <point x="69.30864197530865" y="810.4074074074074"/>
      <point x="69.30864197530865" y="605.4197530864197" type="curve" smooth="yes"/>
      <point x="69.30864197530865" y="347.77777777777777"/>
      <point x="230.07407407407408" y="131.23456790123456"/>
    </contour>
    <contour>
      <point x="935.6296296296297" y="1133.851851851852" type="line"/>
      <point x="2382.617283950617" y="1133.851851851852" type="line"/>
      <point x="2382.617283950617" y="1256.3827160493827" type="line"/>
      <point x="935.6296296296297" y="1256.3827160493827" type="line"/>
    </contour>
    <contour>
      <point x="-13.641975308641975" y="1133.851851851852" type="line"/>
      <point x="957.1604938271605" y="1133.851851851852" type="line"/>
      <point x="957.1604938271605" y="1256.3827160493827" type="line"/>
      <point x="-13.641975308641975" y="1256.3827160493827" type="line"/>
    </contour>
    <contour>
      <point x="1595.2592592592594" y="782.6172839506173" type="curve"/>
      <point x="1513.3827160493827" y="861.925925925926" type="line"/>
      <point x="1466.8148148148148" y="761.6172839506173" type="line"/>
      <point x="1591.2345679012346" y="700.1975308641976"/>
      <point x="1664.320987654321" y="619.074074074074"/>
      <point x="1664.320987654321" y="492.037037037037" type="curve" smooth="yes"/>
      <point x="1664.320987654321" y="379.9012345679012"/>
      <point x="1599.3086419753085" y="306.82716049382714"/>
      <point x="1471.7530864197531" y="305.82716049382714" type="curve" smooth="yes"/>
      <point x="1253.9753086419753" y="303.82716049382714"/>
      <point x="1180.1234567901236" y="566.6543209876543"/>
      <point x="1154.469135802469" y="670.604938271605" type="curve" smooth="yes"/>
      <point x="1111.8641975308642" y="842.8148148148148"/>
      <point x="1020.6913580246913" y="919.2716049382716"/>
      <point x="877.641975308642" y="919.2716049382716" type="curve" smooth="yes"/>
      <point x="695.604938271605" y="919.2716049382716"/>
      <point x="580.0246913580247" y="771.2345679012345"/>
      <point x="580.0246913580247" y="599.9629629629629" type="curve" smooth="yes"/>
      <point x="580.0246913580247" y="552.9629629629629"/>
      <point x="588.0864197530864" y="507.1975308641975"/>
      <point x="605.0864197530864" y="464.9012345679012" type="curve"/>
      <point x="734.5679012345679" y="490.4938271604938" type="line"/>
      <point x="725.7407407407408" y="524.2592592592592"/>
      <point x="720.2098765432099" y="558.320987654321"/>
      <point x="720.2098765432099" y="592.6172839506173" type="curve" smooth="yes"/>
      <point x="720.2098765432099" y="696.8518518518518"/>
      <point x="768.4444444444445" y="783.679012345679"/>
      <point x="883.2345679012345" y="783.679012345679" type="curve" smooth="yes"/>
      <point x="977.4691358024692" y="783.679012345679"/>
      <point x="1009.1358024691358" y="734.5061728395061"/>
      <point x="1041.851851851852" y="599.9629629629629" type="curve" smooth="yes"/>
      <point x="1084.8148148148148" y="422.91358024691357"/>
      <point x="1175.283950617284" y="169.2962962962963"/>
      <point x="1477.567901234568" y="169.2962962962963" type="curve" smooth="yes"/>
      <point x="1682.0987654320988" y="169.2962962962963"/>
      <point x="1808.851851851852" y="288.12345679012344"/>
      <point x="1808.851851851852" y="468.82716049382714" type="curve" smooth="yes"/>
      <point x="1808.851851851852" y="621.5432098765432"/>
      <point x="1733.6666666666667" y="709.3827160493827"/>
    </contour>
  </outline>
</glyph>
<glyph name="l_ra-deva" format="2">
  <advance width="929.2716049382716"/>
  <outline>
    <contour>
      <point x="695.0123456790124" y="160.65432098765433" type="line"/>
      <point x="1171.0617283950617" y="531.4197530864197" type="line"/>
      <point x="1133.6172839506173" y="651.5555555555555" type="line"/>
      <point x="605.7530864197531" y="266.4938271604938" type="line"/>
    </contour>
    <component base="l-deva"/>
  </outline>
</glyph>
<glyph name="m_na-deva" format="2">
  <advance width="1175.8148148148148"/>
  <anchor x="897.8765432098766" y="0.0" name="bottom"/>
  <anchor x="741.8395061728395" y="1256.3827160493827" name="candra"/>
  <anchor x="333.44444444444446" y="52.91358024691358" name="nukta"/>
  <anchor x="897.8765432098766" y="1256.3827160493827" name="top"/>
  <outline>
    <contour>
      <point x="546.8395061728395" y="-34.839506172839506" type="line"/>
      <point x="574.9382716049382" y="-11.086419753086417"/>
      <point x="585.7530864197531" y="11.901234567901236"/>
      <point x="586.9876543209876" y="34.18518518518518" type="curve" smooth="yes"/>
      <point x="588.2222222222222" y="56.53086419753087"/>
      <point x="579.7530864197531" y="78.64197530864197"/>
      <point x="566.283950617284" y="98.81481481481481" type="curve" smooth="yes"/>
      <point x="505.25925925925924" y="187.4320987654321" type="line"/>
      <point x="487.7283950617284" y="131.79012345679013" type="line"/>
      <point x="902.8271604938271" y="453.71604938271605" type="line"/>
      <point x="837.6543209876543" y="538.6543209876543" type="line"/>
      <point x="273.9753086419753" y="147.93827160493828" type="line"/>
      <point x="333.0246913580247" y="45.67901234567901" type="line"/>
    </contour>
    <component base="ma-deva"/>
  </outline>
</glyph>
<glyph name="m_ra-deva" format="2">
  <advance width="687.2716049382716"/>
  <outline>
    <contour>
      <point x="321.1111111111111" y="-40.91358024691358" type="line"/>
      <point x="903.2962962962963" y="425.58024691358025" type="line"/>
      <point x="836.3333333333334" y="520.2592592592592" type="line"/>
      <point x="231.85185185185185" y="66.69135802469135" type="line"/>
    </contour>
    <contour>
      <point x="209.96296296296296" y="431.7530864197531" type="line"/>
      <point x="355.4320987654321" y="561.283950617284" type="line"/>
      <point x="355.6666666666667" y="1161.1851851851852" type="line"/>
      <point x="209.96296296296296" y="1160.4197530864199" type="line"/>
    </contour>
    <contour>
      <point x="233.82716049382717" y="302.8395061728395" type="line"/>
      <point x="335.55555555555554" y="305.3703703703704"/>
      <point x="355.9012345679012" y="358.5925925925926"/>
      <point x="355.9012345679012" y="421.98765432098764" type="curve" smooth="yes"/>
      <point x="355.9012345679012" y="619.9629629629629" type="line"/>
      <point x="232.76543209876544" y="619.9629629629629" type="line"/>
      <point x="60.308641975308646" y="599.0246913580247" type="line"/>
      <point x="60.308641975308646" y="496.5925925925926" type="line"/>
    </contour>
    <contour>
      <point x="215.96296296296296" y="484.30864197530866" type="line"/>
      <point x="852.0617283950618" y="484.30864197530866" type="line"/>
      <point x="852.0617283950618" y="612.9012345679013" type="line"/>
      <point x="215.96296296296296" y="612.9012345679013" type="line"/>
    </contour>
    <contour>
      <point x="-13.641975308641975" y="1133.851851851852" type="line"/>
      <point x="722.8271604938271" y="1133.851851851852" type="line"/>
      <point x="722.8271604938271" y="1256.3827160493827" type="line"/>
      <point x="-13.641975308641975" y="1256.3827160493827" type="line"/>
    </contour>
  </outline>
</glyph>
<glyph name="macroncomb.cap" format="2">
  <anchor x="260.6296296296296" y="1344.5925925925926" name="_top"/>
  <anchor x="260.6296296296296" y="1604.9135802469136" name="top"/>
  <outline>
    <contour>
      <point x="10.0" y="1494.1851851851852" type="line"/>
      <point x="511.25925925925924" y="1494.1851851851852" type="line"/>
      <point x="511.25925925925924" y="1604.9135802469136" type="line"/>
      <point x="10.0" y="1604.9135802469136" type="line"/>
    </contour>
  </outline>
</glyph>
<glyph name="n_ca-deva" format="2">
  <advance width="1775.9135802469136"/>
  <anchor x="1416.0123456790122" y="27.765432098765434" name="bottom"/>
  <anchor x="1107.679012345679" y="1257.148148148148" name="candra"/>
  <anchor x="110.11111111111111" y="84.0" name="nukta"/>
  <anchor x="1428.5555555555557" y="1287.7654320987654" name="top"/>
  <outline>
    <contour>
      <point x="256.7037037037037" y="325.8888888888889" type="line"/>
      <point x="364.6666666666667" y="325.8888888888889"/>
      <point x="383.8395061728395" y="392.34567901234567"/>
      <point x="383.8395061728395" y="473.9753086419753" type="curve" smooth="yes"/>
      <point x="383.8395061728395" y="656.4814814814815" type="line"/>
      <point x="116.48148148148148" y="656.4814814814815" type="line"/>
      <point x="116.48148148148148" y="532.283950617284" type="line"/>
    </contour>
    <contour>
      <point x="249.90123456790124" y="527.8888888888889" type="line"/>
      <point x="832.4074074074074" y="527.8888888888889" type="line"/>
      <point x="832.4074074074074" y="657.2469135802469" type="line"/>
      <point x="249.90123456790124" y="656.4814814814815" type="line"/>
    </contour>
    <contour>
      <point x="1126.3827160493827" y="207.65432098765433" type="curve" smooth="yes"/>
      <point x="1299.716049382716" y="205.35802469135803"/>
      <point x="1412.9012345679012" y="280.9382716049383"/>
      <point x="1507.432098765432" y="398.65432098765433" type="curve"/>
      <point x="1483.5555555555557" y="543.1234567901234" type="line"/>
      <point x="1379.6543209876543" y="403.98765432098764"/>
      <point x="1281.716049382716" y="330.77777777777777"/>
      <point x="1136.79012345679" y="334.0740740740741" type="curve" smooth="yes"/>
      <point x="987.5802469135803" y="338.1358024691358"/>
      <point x="922.8148148148148" y="424.38271604938274"/>
      <point x="922.8148148148148" y="546.283950617284" type="curve" smooth="yes"/>
      <point x="922.8148148148148" y="691.6172839506173"/>
      <point x="1043.0" y="791.0246913580247"/>
      <point x="1213.4938271604938" y="781.6172839506173" type="curve"/>
      <point x="1183.7283950617284" y="845.1975308641976" type="line"/>
      <point x="1020.0617283950618" y="824.4814814814815" type="line"/>
      <point x="864.641975308642" y="795.1851851851852"/>
      <point x="772.3456790123457" y="687.074074074074"/>
      <point x="772.3456790123457" y="534.0617283950618" type="curve" smooth="yes"/>
      <point x="772.3456790123457" y="356.41975308641975"/>
      <point x="888.395061728395" y="210.71604938271605"/>
    </contour>
    <contour>
      <point x="622.5679012345679" y="780.8518518518518" type="line"/>
      <point x="1272.8641975308642" y="781.6172839506173" type="line"/>
      <point x="1272.8641975308642" y="905.8024691358024" type="line"/>
      <point x="622.5679012345679" y="905.0370370370371" type="line"/>
    </contour>
    <contour>
      <point x="1426.1234567901236" y="0.0" type="line"/>
      <point x="1571.8271604938273" y="0.0" type="line"/>
      <point x="1571.8271604938273" y="1189.0123456790122" type="line"/>
      <point x="1426.1234567901236" y="1189.0123456790122" type="line"/>
    </contour>
    <contour>
      <point x="-13.641975308641975" y="1133.851851851852" type="line"/>
      <point x="1790.320987654321" y="1133.851851851852" type="line"/>
      <point x="1790.320987654321" y="1256.3827160493827" type="line"/>
      <point x="-13.641975308641975" y="1256.3827160493827" type="line"/>
    </contour>
  </outline>
</glyph>
<glyph name="n_n-deva" format="2">
  <advance width="697.283950617284"/>
  <outline>
    <contour>
      <point x="790.3333333333334" y="661.0123456790124" type="line"/>
      <point x="180.41975308641975" y="342.8395061728395" type="line"/>
      <point x="229.64197530864197" y="235.34567901234567" type="line"/>
      <point x="427.9259259259259" y="125.23456790123457" type="line"/>
      <point x="514.3086419753087" y="169.45679012345678"/>
      <point x="503.1358024691358" y="233.679012345679"/>
      <point x="468.7901234567901" y="298.6666666666667" type="curve" smooth="yes"/>
      <point x="423.1358024691358" y="377.43544444444444" type="line"/>
      <point x="412.18518518518516" y="319.6296296296296" type="line"/>
      <point x="844.6666666666666" y="552.3456790123457" type="line"/>
    </contour>
    <contour>
      <point x="165.92592592592592" y="934.6543209876543" type="line"/>
      <point x="126.5925925925926" y="829.679012345679" type="line"/>
      <point x="186.54320987654322" y="614.4567901234568" type="line"/>
      <point x="285.3333333333333" y="584.4691358024692"/>
      <point x="317.74074074074076" y="638.283950617284"/>
      <point x="338.85185185185185" y="711.9135802469136" type="curve" smooth="yes"/>
      <point x="364.2098765432099" y="800.7037037037037" type="line"/>
      <point x="310.679012345679" y="770.1728395061729" type="line"/>
      <point x="867.1234567901234" y="613.2592592592592" type="line"/>
      <point x="882.4814814814815" y="732.0370370370371" type="line"/>
    </contour>
    <contour>
      <point x="712.0987654320987" y="1256.3827160493827" type="line"/>
      <point x="-13.641975308641975" y="1256.3827160493827" type="line"/>
      <point x="-13.641975308641975" y="1133.851851851852" type="line"/>
      <point x="712.0987654320987" y="1133.851851851852" type="line"/>
    </contour>
  </outline>
</glyph>
<glyph name="n_th_va-deva" format="2">
  <advance width="2330.037037037037"/>
  <anchor x="200.7283950617284" y="84.0" name="nukta"/>
  <anchor x="2052.3333333333335" y="0.0" name="bottom"/>
  <anchor x="1973.8395061728395" y="1256.3827160493827" name="candra"/>
  <anchor x="2052.3333333333335" y="1256.3827160493827" name="top"/>
  <outline>
    <contour>
      <point x="189.0493827160494" y="377.61728395061726" type="line"/>
      <point x="297.01234567901236" y="377.61728395061726"/>
      <point x="316.18518518518516" y="444.0740740740741"/>
      <point x="316.18518518518516" y="525.7037037037037" type="curve" smooth="yes"/>
      <point x="316.18518518518516" y="708.2098765432099" type="line"/>
      <point x="48.82716049382716" y="708.2098765432099" type="line"/>
      <point x="48.82716049382716" y="584.0123456790124" type="line"/>
    </contour>
    <contour>
      <point x="182.2469135802469" y="579.6172839506173" type="line"/>
      <point x="747.0987654320987" y="579.6172839506173" type="line"/>
      <point x="747.0987654320987" y="708.9753086419753" type="line"/>
      <point x="182.2469135802469" y="708.2098765432099" type="line"/>
    </contour>
    <contour>
      <point x="-13.641975308641975" y="1133.851851851852" type="line"/>
      <point x="585.1358024691358" y="1133.851851851852" type="line"/>
      <point x="585.1358024691358" y="1256.3827160493827" type="line"/>
      <point x="-13.641975308641975" y="1256.3827160493827" type="line"/>
    </contour>
    <component base="th-deva" xOffset="553.9506172839506"/>
    <component base="va-deva" xOffset="1241.3333333333333"/>
  </outline>
</glyph>
<glyph name="n_th_ya-deva" format="2">
  <advance width="2386.1975308641977"/>
  <anchor x="200.7283950617284" y="84.0" name="nukta"/>
  <anchor x="2109.0246913580245" y="0.0" name="bottom"/>
  <anchor x="2012.7037037037037" y="1256.3827160493827" name="candra"/>
  <anchor x="2109.0246913580245" y="1256.3827160493827" name="top"/>
  <outline>
    <contour>
      <point x="189.0493827160494" y="377.61728395061726" type="line"/>
      <point x="297.01234567901236" y="377.61728395061726"/>
      <point x="316.18518518518516" y="444.0740740740741"/>
      <point x="316.18518518518516" y="525.7037037037037" type="curve" smooth="yes"/>
      <point x="316.18518518518516" y="708.2098765432099" type="line"/>
      <point x="48.82716049382716" y="708.2098765432099" type="line"/>
      <point x="48.82716049382716" y="584.0123456790124" type="line"/>
    </contour>
    <contour>
      <point x="182.2469135802469" y="579.6172839506173" type="line"/>
      <point x="747.0987654320987" y="579.6172839506173" type="line"/>
      <point x="747.0987654320987" y="708.9753086419753" type="line"/>
      <point x="182.2469135802469" y="708.2098765432099" type="line"/>
    </contour>
    <contour>
      <point x="-13.641975308641975" y="1133.851851851852" type="line"/>
      <point x="585.1358024691358" y="1133.851851851852" type="line"/>
      <point x="585.1358024691358" y="1256.3827160493827" type="line"/>
      <point x="-13.641975308641975" y="1256.3827160493827" type="line"/>
    </contour>
    <component base="th-deva" xOffset="553.9506172839506"/>
    <component base="ya-deva" xOffset="1241.3333333333333"/>
  </outline>
</glyph>
<glyph name="nine.tf" format="2">
  <advance width="1003.0"/>
  <outline>
    <contour>
      <point x="440.4567901234568" y="-197.41975308641975" type="curve" smooth="yes"/>
      <point x="708.9135802469136" y="-197.41975308641975"/>
      <point x="897.0864197530864" y="21.39506172839506"/>
      <point x="897.0864197530864" y="538.0617283950618" type="curve" smooth="yes"/>
      <point x="897.0864197530864" y="996.1604938271605"/>
      <point x="731.2222222222222" y="1197.641975308642"/>
      <point x="459.04938271604937" y="1197.641975308642" type="curve" smooth="yes"/>
      <point x="244.2469135802469" y="1197.641975308642"/>
      <point x="63.71604938271605" y="1017.8765432098766"/>
      <point x="63.71604938271605" y="769.8271604938271" type="curve" smooth="yes"/>
      <point x="63.71604938271605" y="502.8888888888889"/>
      <point x="207.53086419753086" y="334.5308641975309"/>
      <point x="433.5308641975309" y="334.5308641975309" type="curve" smooth="yes"/>
      <point x="557.5432098765432" y="334.5308641975309"/>
      <point x="672.604938271605" y="393.18518518518516"/>
      <point x="749.7283950617284" y="497.5432098765432" type="curve"/>
      <point x="744.4938271604939" y="79.61728395061728"/>
      <point x="623.716049382716" y="-66.40740740740742"/>
      <point x="435.58024691358025" y="-66.40740740740742" type="curve" smooth="yes"/>
      <point x="352.51851851851853" y="-66.40740740740742"/>
      <point x="255.22222222222223" y="-26.172839506172842"/>
      <point x="208.39506172839506" y="32.71604938271605" type="curve"/>
      <point x="126.71604938271605" y="-67.01234567901234" type="line"/>
      <point x="209.59259259259258" y="-149.9506172839506"/>
      <point x="304.0" y="-197.41975308641975"/>
    </contour>
    <contour>
      <point x="458.75308641975306" y="455.4938271604938" type="curve" smooth="yes"/>
      <point x="286.1358024691358" y="455.4938271604938"/>
      <point x="208.77777777777777" y="588.3333333333334"/>
      <point x="208.77777777777777" y="763.7037037037037" type="curve" smooth="yes"/>
      <point x="208.77777777777777" y="941.2469135802469"/>
      <point x="321.32098765432096" y="1073.2716049382716"/>
      <point x="460.51851851851853" y="1073.2716049382716" type="curve" smooth="yes"/>
      <point x="651.7901234567901" y="1073.2716049382716"/>
      <point x="745.6172839506173" y="920.2962962962963"/>
      <point x="750.8518518518518" y="627.4567901234568" type="curve"/>
      <point x="659.3086419753087" y="499.14814814814815"/>
      <point x="547.7654320987655" y="455.4938271604938"/>
    </contour>
  </outline>
</glyph>
<glyph name="nn_ra-deva" format="2">
  <advance width="1008.6172839506173"/>
  <outline>
    <contour>
      <point x="615.5802469135803" y="-23.814814814814813" type="line"/>
      <point x="1257.5802469135801" y="455.74074074074076" type="line"/>
      <point x="1190.469135802469" y="552.7283950617284" type="line"/>
      <point x="527.8518518518518" y="83.02469135802468" type="line"/>
    </contour>
    <component base="nn-deva"/>
  </outline>
</glyph>
<glyph name="ny_ra-deva" format="2">
  <advance width="1094.1851851851852"/>
  <outline>
    <contour>
      <point x="553.4691358024692" y="268.41975308641975" type="curve" smooth="yes"/>
      <point x="777.1728395061729" y="268.41975308641975"/>
      <point x="904.8024691358024" y="403.8395061728395"/>
      <point x="904.8024691358024" y="587.4691358024692" type="curve" smooth="yes"/>
      <point x="904.8024691358024" y="796.2592592592592"/>
      <point x="767.5925925925926" y="918.9753086419753"/>
      <point x="564.5802469135803" y="918.9753086419753" type="curve" smooth="yes"/>
      <point x="508.1111111111111" y="918.9753086419753"/>
      <point x="458.17283950617286" y="913.0370370370371"/>
      <point x="406.4567901234568" y="891.5061728395061" type="curve"/>
      <point x="433.8641975308642" y="770.5555555555555" type="line"/>
      <point x="476.81481481481484" y="781.6172839506173"/>
      <point x="519.7654320987655" y="786.6172839506173"/>
      <point x="570.0" y="786.6172839506173" type="curve" smooth="yes"/>
      <point x="682.3703703703703" y="786.6172839506173"/>
      <point x="766.4444444444445" y="731.0123456790124"/>
      <point x="767.679012345679" y="596.7530864197531" type="curve" smooth="yes"/>
      <point x="769.3827160493827" y="477.3333333333333"/>
      <point x="686.7407407407408" y="401.30864197530866"/>
      <point x="552.0617283950618" y="401.30864197530866" type="curve" smooth="yes"/>
      <point x="353.39506172839504" y="401.30864197530866"/>
      <point x="235.5679012345679" y="553.7407407407408"/>
      <point x="172.2716049382716" y="847.4320987654321" type="curve"/>
      <point x="53.66666666666667" y="822.320987654321" type="line"/>
      <point x="124.72839506172839" y="417.0987654320988"/>
      <point x="329.69135802469134" y="268.41975308641975"/>
    </contour>
    <contour>
      <point x="784.3086419753087" y="-35.925925925925924" type="line"/>
      <point x="1309.320987654321" y="384.9382716049383" type="line"/>
      <point x="1259.567901234568" y="487.24691358024694" type="line"/>
      <point x="696.5802469135803" y="65.27160493827161" type="line"/>
    </contour>
    <contour>
      <point x="842.6172839506173" y="487.962962962963" type="line"/>
      <point x="939.7283950617284" y="470.25925925925924"/>
      <point x="1121.2345679012346" y="483.34567901234567"/>
      <point x="1218.6172839506173" y="545.3456790123457" type="curve"/>
      <point x="1211.6172839506173" y="688.2345679012345" type="line"/>
      <point x="1079.0740740740741" y="601.7654320987655"/>
      <point x="920.0987654320987" y="593.1481481481482"/>
      <point x="810.7530864197531" y="606.6172839506173" type="curve"/>
    </contour>
    <contour>
      <point x="-13.641975308641975" y="1133.851851851852" type="line"/>
      <point x="1145.2222222222222" y="1133.851851851852" type="line"/>
      <point x="1145.2222222222222" y="1256.3827160493827" type="line"/>
      <point x="-13.641975308641975" y="1256.3827160493827" type="line"/>
    </contour>
  </outline>
</glyph>
<glyph name="one.lf" format="2">
  <advance width="748.1975308641976"/>
  <outline>
    <contour>
      <point x="343.41975308641975" y="0.0" type="line"/>
      <point x="498.8888888888889" y="0.0" type="line"/>
      <point x="498.8888888888889" y="1348.358024691358" type="line"/>
      <point x="379.04938271604937" y="1348.358024691358" type="line"/>
      <point x="308.4691358024691" y="1306.4814814814815"/>
      <point x="223.2962962962963" y="1270.9506172839506"/>
      <point x="104.71604938271605" y="1251.0123456790122" type="curve"/>
      <point x="104.71604938271605" y="1143.5802469135801" type="line"/>
      <point x="343.41975308641975" y="1162.8148148148148" type="line"/>
    </contour>
  </outline>
</glyph>
<glyph name="one.tf" format="2">
  <advance width="1003.0"/>
  <outline>
    <contour>
      <point x="155.20987654320987" y="0.0" type="line"/>
      <point x="883.3456790123457" y="0.0" type="line"/>
      <point x="883.3456790123457" y="129.07407407407408" type="line"/>
      <point x="611.5679012345679" y="129.07407407407408" type="line"/>
      <point x="611.5679012345679" y="1174.4074074074074" type="line"/>
      <point x="491.4938271604938" y="1174.4074074074074" type="line"/>
      <point x="420.91358024691357" y="1133.2962962962963"/>
      <point x="335.2098765432099" y="1100.8271604938273"/>
      <point x="217.92592592592592" y="1080.1234567901236" type="curve"/>
      <point x="217.92592592592592" y="976.0987654320987" type="line"/>
      <point x="455.0987654320988" y="992.1604938271605" type="line"/>
      <point x="455.0987654320988" y="129.07407407407408" type="line"/>
      <point x="155.20987654320987" y="129.07407407407408" type="line"/>
    </contour>
  </outline>
</glyph>
<glyph name="p_na-deva" format="2">
  <advance width="1167.5802469135801"/>
  <anchor x="890.641975308642" y="0.0" name="bottom"/>
  <anchor x="791.0246913580247" y="1256.3827160493827" name="candra"/>
  <anchor x="317.641975308642" y="119.55555555555556" name="nukta"/>
  <anchor x="890.1111111111111" y="1256.3827160493827" name="top"/>
  <outline>
    <contour>
      <point x="452.81481481481484" y="-66.37037037037037" type="line"/>
      <point x="480.91358024691357" y="-42.617283950617285"/>
      <point x="491.7283950617284" y="-19.62962962962963"/>
      <point x="492.962962962963" y="2.6543209876543212" type="curve" smooth="yes"/>
      <point x="494.1975308641975" y="25.0"/>
      <point x="485.7283950617284" y="47.111111111111114"/>
      <point x="472.25925925925924" y="67.28395061728395" type="curve" smooth="yes"/>
      <point x="411.2345679012346" y="155.90123456790124" type="line"/>
      <point x="393.7037037037037" y="100.25925925925927" type="line"/>
      <point x="845.5432098765432" y="447.44444444444446" type="line"/>
      <point x="780.3703703703703" y="532.3827160493827" type="line"/>
      <point x="179.95061728395063" y="116.4074074074074" type="line"/>
      <point x="239.0" y="14.14814814814815" type="line"/>
    </contour>
    <component base="pa-deva"/>
  </outline>
</glyph>
<glyph name="ph_na-deva" format="2">
  <advance width="1575.0864197530864"/>
  <anchor x="25.962962962962965" y="337.7283950617284" name="nukta"/>
  <anchor x="840.0864197530864" y="0.0" name="bottom"/>
  <anchor x="833.1975308641976" y="1256.3827160493827" name="candra"/>
  <anchor x="839.1481481481482" y="1256.3827160493827" name="top"/>
  <outline>
    <contour>
      <point x="403.58024691358025" y="-64.02469135802468" type="line"/>
      <point x="431.67901234567904" y="-40.2716049382716"/>
      <point x="442.4938271604938" y="-17.28395061728395"/>
      <point x="443.7283950617284" y="5.0" type="curve" smooth="yes"/>
      <point x="444.962962962963" y="27.345679012345677"/>
      <point x="436.4938271604938" y="49.45679012345679"/>
      <point x="423.0246913580247" y="69.62962962962963" type="curve" smooth="yes"/>
      <point x="362.0" y="158.2469135802469" type="line"/>
      <point x="344.4691358024691" y="102.60493827160494" type="line"/>
      <point x="796.3086419753087" y="449.7901234567901" type="line"/>
      <point x="731.1358024691358" y="534.7283950617284" type="line"/>
      <point x="130.71604938271605" y="118.75308641975309" type="line"/>
      <point x="189.76543209876544" y="16.49382716049383" type="line"/>
    </contour>
    <component base="pha-deva"/>
  </outline>
</glyph>
<glyph name="ph_ra-deva" format="2">
  <advance width="1224.5555555555557"/>
  <anchor x="861.641975308642" y="12.962962962962965" name="bottom"/>
  <anchor x="782.8271604938271" y="1256.679012345679" name="candra"/>
  <anchor x="459.0" y="80.93827160493827" name="nukta"/>
  <anchor x="858.2222222222222" y="1287.0617283950617" name="top"/>
  <outline>
    <contour>
      <point x="202.09876543209876" y="-27.938271604938272" type="line"/>
      <point x="801.5925925925926" y="456.25925925925924" type="line"/>
      <point x="732.0" y="535.0" type="line"/>
      <point x="112.8395061728395" y="80.19753086419753" type="line"/>
    </contour>
    <component base="ph-deva"/>
  </outline>
</glyph>
<glyph name="q_ba-deva" format="2">
  <advance width="2284.740740740741"/>
  <anchor x="2001.679012345679" y="27.765432098765434" name="bottom"/>
  <anchor x="1720.7283950617284" y="1257.148148148148" name="candra"/>
  <anchor x="1288.1975308641975" y="52.91358024691358" name="nukta"/>
  <anchor x="2001.679012345679" y="1257.9135802469136" name="top"/>
  <outline>
    <contour>
      <point x="714.4938271604939" y="0.0" type="line"/>
      <point x="860.1975308641976" y="0.0" type="line"/>
      <point x="860.1975308641976" y="1193.4197530864199" type="line"/>
      <point x="714.4938271604939" y="1193.4197530864199" type="line"/>
    </contour>
    <contour>
      <point x="409.5308641975309" y="216.66666666666666" type="curve" smooth="yes"/>
      <point x="557.0" y="216.66666666666666"/>
      <point x="698.7530864197531" y="282.3703703703704"/>
      <point x="780.3456790123457" y="391.7654320987654" type="curve"/>
      <point x="749.6666666666666" y="518.1604938271605" type="line"/>
      <point x="676.6666666666666" y="413.9753086419753"/>
      <point x="557.358024691358" y="342.08641975308643"/>
      <point x="420.1111111111111" y="342.08641975308643" type="curve" smooth="yes"/>
      <point x="291.679012345679" y="342.08641975308643"/>
      <point x="222.37037037037038" y="407.34567901234567"/>
      <point x="222.37037037037038" y="560.6543209876543" type="curve" smooth="yes"/>
      <point x="222.37037037037038" y="722.3703703703703"/>
      <point x="310.25925925925924" y="786.0370370370371"/>
      <point x="446.0987654320988" y="790.8024691358024" type="curve" smooth="yes"/>
      <point x="543.641975308642" y="794.3333333333334"/>
      <point x="650.7530864197531" y="775.2716049382716"/>
      <point x="773.4567901234568" y="720.1604938271605" type="curve"/>
      <point x="773.4567901234568" y="813.4938271604939" type="line"/>
      <point x="682.4938271604939" y="881.5925925925926"/>
      <point x="562.0864197530864" y="921.0987654320987"/>
      <point x="436.95061728395063" y="921.0987654320987" type="curve" smooth="yes"/>
      <point x="205.65432098765433" y="921.0987654320987"/>
      <point x="73.37037037037037" y="802.395061728395"/>
      <point x="73.37037037037037" y="567.0617283950618" type="curve" smooth="yes"/>
      <point x="73.37037037037037" y="378.3333333333333"/>
      <point x="178.39506172839506" y="216.66666666666666"/>
    </contour>
    <contour>
      <point x="1279.8271604938273" y="662.6172839506173" type="curve"/>
      <point x="1380.6666666666667" y="753.3456790123457" type="line"/>
      <point x="1334.4938271604938" y="826.9876543209876"/>
      <point x="1254.851851851852" y="867.0987654320987"/>
      <point x="1154.0987654320988" y="867.0987654320987" type="curve" smooth="yes"/>
      <point x="1026.8148148148148" y="867.0987654320987"/>
      <point x="919.2222222222222" y="811.0987654320987"/>
      <point x="818.5185185185185" y="688.8641975308642" type="curve"/>
      <point x="818.5185185185185" y="482.0740740740741" type="line"/>
      <point x="949.604938271605" y="661.5555555555555"/>
      <point x="1054.1358024691358" y="736.2098765432099"/>
      <point x="1145.0987654320988" y="736.2098765432099" type="curve" smooth="yes"/>
      <point x="1210.283950617284" y="736.2098765432099"/>
      <point x="1257.7037037037037" y="713.9753086419753"/>
    </contour>
    <contour>
      <point x="299.0" y="116.32098765432099" type="curve" smooth="yes"/>
      <point x="235.90123456790124" y="116.32098765432099"/>
      <point x="208.320987654321" y="89.74074074074075"/>
      <point x="208.320987654321" y="26.641975308641978" type="curve" smooth="yes"/>
      <point x="208.320987654321" y="-35.456790123456784"/>
      <point x="235.90123456790124" y="-62.03703703703703"/>
      <point x="299.0" y="-62.03703703703703" type="curve" smooth="yes"/>
      <point x="362.0987654320988" y="-62.03703703703703"/>
      <point x="388.91358024691357" y="-35.456790123456784"/>
      <point x="388.91358024691357" y="26.641975308641978" type="curve" smooth="yes"/>
      <point x="388.91358024691357" y="89.74074074074075"/>
      <point x="362.0987654320988" y="116.32098765432099"/>
    </contour>
    <contour>
      <point x="1611.20987654321" y="200.79012345679013" type="curve" smooth="yes"/>
      <point x="1764.148148148148" y="200.79012345679013"/>
      <point x="1899.0123456790122" y="254.49382716049382"/>
      <point x="1994.0246913580247" y="370.95061728395063" type="curve"/>
      <point x="1970.9382716049383" y="485.51851851851853" type="line"/>
      <point x="1868.283950617284" y="375.9259259259259"/>
      <point x="1771.4444444444443" y="319.2716049382716"/>
      <point x="1612.320987654321" y="319.2716049382716" type="curve" smooth="yes"/>
      <point x="1461.7283950617284" y="319.2716049382716"/>
      <point x="1397.2962962962963" y="394.4567901234568"/>
      <point x="1397.2962962962963" y="572.1234567901234" type="curve" smooth="yes"/>
      <point x="1397.2962962962963" y="753.4444444444445"/>
      <point x="1457.3703703703704" y="812.7407407407408"/>
      <point x="1626.962962962963" y="818.5061728395061" type="curve" smooth="yes"/>
      <point x="1741.037037037037" y="822.0370370370371"/>
      <point x="1851.0864197530864" y="803.5061728395061"/>
      <point x="1986.679012345679" y="741.3333333333334" type="curve"/>
      <point x="1981.148148148148" y="851.9506172839506" type="line"/>
      <point x="1858.4814814814815" y="912.9382716049382"/>
      <point x="1752.2469135802469" y="936.9876543209876"/>
      <point x="1635.4444444444443" y="936.9876543209876" type="curve" smooth="yes"/>
      <point x="1387.7530864197531" y="936.9876543209876"/>
      <point x="1253.530864197531" y="815.8148148148148"/>
      <point x="1253.530864197531" y="574.1234567901234" type="curve" smooth="yes"/>
      <point x="1253.530864197531" y="313.4320987654321"/>
      <point x="1405.5185185185185" y="200.79012345679013"/>
    </contour>
    <contour>
      <point x="1866.6913580246915" y="309.6666666666667" type="line"/>
      <point x="1939.0740740740741" y="386.58024691358025" type="line"/>
      <point x="1469.530864197531" y="863.2469135802469" type="line"/>
      <point x="1396.3827160493827" y="785.5679012345679" type="line"/>
    </contour>
    <contour>
      <point x="1928.8271604938273" y="0.0" type="line"/>
      <point x="2074.5308641975307" y="0.0" type="line"/>
      <point x="2074.5308641975307" y="1189.0123456790122" type="line"/>
      <point x="1928.8271604938273" y="1189.0123456790122" type="line"/>
    </contour>
    <contour>
      <point x="-13.641975308641975" y="1133.851851851852" type="line"/>
      <point x="2299.1481481481483" y="1133.851851851852" type="line"/>
      <point x="2299.1481481481483" y="1256.3827160493827" type="line"/>
      <point x="-13.641975308641975" y="1256.3827160493827" type="line"/>
    </contour>
  </outline>
</glyph>
<glyph name="q_fa-deva" format="2">
  <advance width="2662.0864197530864"/>
  <anchor x="785.0" y="28.0" name="bottom"/>
  <anchor x="783.0" y="1257.3827160493827" name="candra"/>
  <anchor x="1060.4444444444443" y="1290.8271604938273" name="top"/>
  <outline>
    <contour>
      <point x="714.4938271604939" y="0.0" type="line"/>
      <point x="860.1975308641976" y="0.0" type="line"/>
      <point x="860.1975308641976" y="1193.4197530864199" type="line"/>
      <point x="714.4938271604939" y="1193.4197530864199" type="line"/>
    </contour>
    <contour>
      <point x="409.5308641975309" y="216.66666666666666" type="curve" smooth="yes"/>
      <point x="557.0" y="216.66666666666666"/>
      <point x="698.7530864197531" y="282.3703703703704"/>
      <point x="780.3456790123457" y="391.7654320987654" type="curve"/>
      <point x="749.6666666666666" y="518.1604938271605" type="line"/>
      <point x="676.6666666666666" y="413.9753086419753"/>
      <point x="557.358024691358" y="342.08641975308643"/>
      <point x="420.1111111111111" y="342.08641975308643" type="curve" smooth="yes"/>
      <point x="291.679012345679" y="342.08641975308643"/>
      <point x="222.37037037037038" y="407.34567901234567"/>
      <point x="222.37037037037038" y="560.6543209876543" type="curve" smooth="yes"/>
      <point x="222.37037037037038" y="722.3703703703703"/>
      <point x="310.25925925925924" y="786.0370370370371"/>
      <point x="446.0987654320988" y="790.8024691358024" type="curve" smooth="yes"/>
      <point x="543.641975308642" y="795.0987654320987"/>
      <point x="650.7530864197531" y="775.2716049382716"/>
      <point x="773.4567901234568" y="720.1604938271605" type="curve"/>
      <point x="773.4567901234568" y="813.4938271604939" type="line"/>
      <point x="682.4938271604939" y="881.5925925925926"/>
      <point x="562.0864197530864" y="921.0987654320987"/>
      <point x="436.95061728395063" y="921.0987654320987" type="curve" smooth="yes"/>
      <point x="205.65432098765433" y="921.0987654320987"/>
      <point x="73.37037037037037" y="802.395061728395"/>
      <point x="73.37037037037037" y="567.0617283950618" type="curve" smooth="yes"/>
      <point x="73.37037037037037" y="378.3333333333333"/>
      <point x="178.39506172839506" y="216.66666666666666"/>
    </contour>
    <contour>
      <point x="1279.8271604938273" y="662.6172839506173" type="curve"/>
      <point x="1380.6666666666667" y="753.3456790123457" type="line"/>
      <point x="1334.4938271604938" y="826.9876543209876"/>
      <point x="1254.851851851852" y="867.0987654320987"/>
      <point x="1154.0987654320988" y="867.0987654320987" type="curve" smooth="yes"/>
      <point x="1026.8148148148148" y="867.0987654320987"/>
      <point x="919.2222222222222" y="811.0987654320987"/>
      <point x="818.5185185185185" y="688.8641975308642" type="curve"/>
      <point x="818.5185185185185" y="482.0740740740741" type="line"/>
      <point x="949.604938271605" y="661.5555555555555"/>
      <point x="1054.1358024691358" y="736.2098765432099"/>
      <point x="1145.0987654320988" y="736.2098765432099" type="curve" smooth="yes"/>
      <point x="1210.283950617284" y="736.2098765432099"/>
      <point x="1257.7037037037037" y="713.9753086419753"/>
    </contour>
    <contour>
      <point x="299.0" y="116.32098765432099" type="curve" smooth="yes"/>
      <point x="235.90123456790124" y="116.32098765432099"/>
      <point x="208.320987654321" y="89.74074074074075"/>
      <point x="208.320987654321" y="26.641975308641978" type="curve" smooth="yes"/>
      <point x="208.320987654321" y="-35.456790123456784"/>
      <point x="235.90123456790124" y="-62.03703703703703"/>
      <point x="299.0" y="-62.03703703703703" type="curve" smooth="yes"/>
      <point x="362.0987654320988" y="-62.03703703703703"/>
      <point x="388.91358024691357" y="-35.456790123456784"/>
      <point x="388.91358024691357" y="26.641975308641978" type="curve" smooth="yes"/>
      <point x="388.91358024691357" y="89.74074074074075"/>
      <point x="362.0987654320988" y="116.32098765432099"/>
    </contour>
    <contour>
      <point x="1579.7530864197531" y="327.77777777777777" type="curve" smooth="yes"/>
      <point x="1700.148148148148" y="327.77777777777777"/>
      <point x="1849.851851851852" y="391.4691358024691"/>
      <point x="1937.2716049382716" y="523.2098765432099" type="curve"/>
      <point x="1914.2345679012346" y="656.358024691358" type="line"/>
      <point x="1821.8641975308642" y="524.8271604938271"/>
      <point x="1701.3827160493827" y="460.8395061728395"/>
      <point x="1587.3950617283951" y="459.8395061728395" type="curve" smooth="yes"/>
      <point x="1443.9012345679012" y="458.8395061728395"/>
      <point x="1396.358024691358" y="539.8641975308642"/>
      <point x="1396.358024691358" y="685.8148148148148" type="curve" smooth="yes"/>
      <point x="1396.358024691358" y="1180.1358024691358" type="line"/>
      <point x="1248.9506172839506" y="1180.1358024691358" type="line"/>
      <point x="1248.9506172839506" y="700.9382716049382" type="line" smooth="yes"/>
      <point x="1248.9506172839506" y="454.65432098765433"/>
      <point x="1363.2345679012346" y="327.77777777777777"/>
    </contour>
    <contour>
      <point x="1876.962962962963" y="0.0" type="line"/>
      <point x="2022.9012345679012" y="0.0" type="line"/>
      <point x="2022.9012345679012" y="1192.8765432098764" type="line"/>
      <point x="1876.962962962963" y="1192.8765432098764" type="line"/>
    </contour>
    <contour>
      <point x="2437.5061728395062" y="157.91358024691357" type="line"/>
      <point x="2545.4444444444443" y="286.8641975308642"/>
      <point x="2590.777777777778" y="428.2716049382716"/>
      <point x="2590.777777777778" y="553.1234567901234" type="curve" smooth="yes"/>
      <point x="2590.777777777778" y="739.0493827160494"/>
      <point x="2487.901234567901" y="867.0987654320987"/>
      <point x="2316.567901234568" y="867.0987654320987" type="curve" smooth="yes"/>
      <point x="2189.814814814815" y="867.0987654320987"/>
      <point x="2081.6913580246915" y="811.0987654320987"/>
      <point x="1980.7530864197531" y="688.8641975308642" type="curve"/>
      <point x="1968.0617283950617" y="487.1851851851852" type="line"/>
      <point x="2100.617283950617" y="660.0864197530864"/>
      <point x="2210.4938271604938" y="736.2098765432099"/>
      <point x="2308.098765432099" y="736.2098765432099" type="curve" smooth="yes"/>
      <point x="2405.7654320987654" y="736.2098765432099"/>
      <point x="2455.8888888888887" y="671.3086419753087"/>
      <point x="2455.8888888888887" y="561.8765432098766" type="curve" smooth="yes"/>
      <point x="2455.8888888888887" y="466.5925925925926"/>
      <point x="2414.432098765432" y="357.7037037037037"/>
      <point x="2325.8395061728397" y="237.17283950617283" type="curve"/>
    </contour>
    <contour>
      <point x="1452.0740740740741" y="177.44444444444446" type="curve" smooth="yes"/>
      <point x="1388.9753086419753" y="177.44444444444446"/>
      <point x="1361.3950617283951" y="150.8641975308642"/>
      <point x="1361.3950617283951" y="87.76543209876543" type="curve" smooth="yes"/>
      <point x="1361.3950617283951" y="25.666666666666668"/>
      <point x="1388.9753086419753" y="-0.913580246913579"/>
      <point x="1452.0740740740741" y="-0.913580246913579" type="curve" smooth="yes"/>
      <point x="1515.1728395061727" y="-0.913580246913579"/>
      <point x="1541.9876543209878" y="25.666666666666668"/>
      <point x="1541.9876543209878" y="87.76543209876543" type="curve" smooth="yes"/>
      <point x="1541.9876543209878" y="150.8641975308642"/>
      <point x="1515.1728395061727" y="177.44444444444446"/>
    </contour>
    <contour>
      <point x="-13.641975308641975" y="1133.851851851852" type="line"/>
      <point x="2676.4938271604938" y="1133.851851851852" type="line"/>
      <point x="2676.4938271604938" y="1256.3827160493827" type="line"/>
      <point x="-13.641975308641975" y="1256.3827160493827" type="line"/>
    </contour>
  </outline>
</glyph>
<glyph name="q_ma-deva" format="2">
  <advance width="2239.8518518518517"/>
  <anchor x="1961.9135802469136" y="27.765432098765434" name="bottom"/>
  <anchor x="1680.567901234568" y="1257.148148148148" name="candra"/>
  <anchor x="1397.4814814814815" y="52.91358024691358" name="nukta"/>
  <anchor x="1961.9135802469136" y="1287.7654320987654" name="top"/>
  <outline>
    <contour>
      <point x="714.4938271604939" y="0.0" type="line"/>
      <point x="860.1975308641976" y="0.0" type="line"/>
      <point x="860.1975308641976" y="1193.4197530864199" type="line"/>
      <point x="714.4938271604939" y="1193.4197530864199" type="line"/>
    </contour>
    <contour>
      <point x="409.5308641975309" y="216.66666666666666" type="curve" smooth="yes"/>
      <point x="557.0" y="216.66666666666666"/>
      <point x="698.7530864197531" y="282.3703703703704"/>
      <point x="780.3456790123457" y="391.7654320987654" type="curve"/>
      <point x="749.6666666666666" y="518.1604938271605" type="line"/>
      <point x="676.6666666666666" y="413.9753086419753"/>
      <point x="557.358024691358" y="342.08641975308643"/>
      <point x="420.1111111111111" y="342.08641975308643" type="curve" smooth="yes"/>
      <point x="291.679012345679" y="342.08641975308643"/>
      <point x="222.37037037037038" y="407.34567901234567"/>
      <point x="222.37037037037038" y="560.6543209876543" type="curve" smooth="yes"/>
      <point x="222.37037037037038" y="722.3703703703703"/>
      <point x="310.25925925925924" y="786.0370370370371"/>
      <point x="446.0987654320988" y="790.8024691358024" type="curve" smooth="yes"/>
      <point x="543.641975308642" y="794.3333333333334"/>
      <point x="650.7530864197531" y="775.2716049382716"/>
      <point x="773.4567901234568" y="720.1604938271605" type="curve"/>
      <point x="773.4567901234568" y="813.4938271604939" type="line"/>
      <point x="682.4938271604939" y="881.5925925925926"/>
      <point x="562.0864197530864" y="921.0987654320987"/>
      <point x="436.95061728395063" y="921.0987654320987" type="curve" smooth="yes"/>
      <point x="205.65432098765433" y="921.0987654320987"/>
      <point x="73.37037037037037" y="802.395061728395"/>
      <point x="73.37037037037037" y="567.0617283950618" type="curve" smooth="yes"/>
      <point x="73.37037037037037" y="378.3333333333333"/>
      <point x="178.39506172839506" y="216.66666666666666"/>
    </contour>
    <contour>
      <point x="1279.8271604938273" y="662.6172839506173" type="curve"/>
      <point x="1380.6666666666667" y="753.3456790123457" type="line"/>
      <point x="1334.4938271604938" y="826.9876543209876"/>
      <point x="1254.851851851852" y="867.0987654320987"/>
      <point x="1154.0987654320988" y="867.0987654320987" type="curve" smooth="yes"/>
      <point x="1026.8148148148148" y="867.0987654320987"/>
      <point x="919.2222222222222" y="811.0987654320987"/>
      <point x="818.5185185185185" y="688.8641975308642" type="curve"/>
      <point x="818.5185185185185" y="482.0740740740741" type="line"/>
      <point x="949.604938271605" y="661.5555555555555"/>
      <point x="1054.1358024691358" y="736.2098765432099"/>
      <point x="1145.0987654320988" y="736.2098765432099" type="curve" smooth="yes"/>
      <point x="1210.283950617284" y="736.2098765432099"/>
      <point x="1257.7037037037037" y="713.9753086419753"/>
    </contour>
    <contour>
      <point x="299.0" y="116.32098765432099" type="curve" smooth="yes"/>
      <point x="235.90123456790124" y="116.32098765432099"/>
      <point x="208.320987654321" y="89.74074074074075"/>
      <point x="208.320987654321" y="26.641975308641978" type="curve" smooth="yes"/>
      <point x="208.320987654321" y="-35.456790123456784"/>
      <point x="235.90123456790124" y="-62.03703703703703"/>
      <point x="299.0" y="-62.03703703703703" type="curve" smooth="yes"/>
      <point x="362.0987654320988" y="-62.03703703703703"/>
      <point x="388.91358024691357" y="-35.456790123456784"/>
      <point x="388.91358024691357" y="26.641975308641978" type="curve" smooth="yes"/>
      <point x="388.91358024691357" y="89.74074074074075"/>
      <point x="362.0987654320988" y="116.32098765432099"/>
    </contour>
    <contour>
      <point x="1889.0617283950617" y="0.23456790123456786" type="line"/>
      <point x="2034.7654320987654" y="0.23456790123456786" type="line"/>
      <point x="2034.7654320987654" y="1171.1358024691358" type="line"/>
      <point x="1889.0617283950617" y="1171.1358024691358" type="line"/>
    </contour>
    <contour>
      <point x="1297.8641975308642" y="302.8395061728395" type="line"/>
      <point x="1399.5925925925926" y="305.3703703703704"/>
      <point x="1419.9382716049383" y="358.5925925925926"/>
      <point x="1419.9382716049383" y="421.98765432098764" type="curve" smooth="yes"/>
      <point x="1419.9382716049383" y="619.9629629629629" type="line"/>
      <point x="1296.8024691358025" y="619.9629629629629" type="line"/>
      <point x="1124.3456790123457" y="599.0246913580247" type="line"/>
      <point x="1124.3456790123457" y="496.5925925925926" type="line"/>
    </contour>
    <contour>
      <point x="1274.0" y="431.7530864197531" type="line"/>
      <point x="1419.469135802469" y="561.283950617284" type="line"/>
      <point x="1419.7037037037037" y="1161.1851851851852" type="line"/>
      <point x="1274.0" y="1160.4197530864199" type="line"/>
    </contour>
    <contour>
      <point x="1280.0" y="484.30864197530866" type="line"/>
      <point x="2000.888888888889" y="484.30864197530866" type="line"/>
      <point x="2000.888888888889" y="612.9012345679013" type="line"/>
      <point x="1280.0" y="612.9012345679013" type="line"/>
    </contour>
    <contour>
      <point x="-13.641975308641975" y="1133.851851851852" type="line"/>
      <point x="2254.0246913580245" y="1133.851851851852" type="line"/>
      <point x="2254.0246913580245" y="1256.3827160493827" type="line"/>
      <point x="-13.641975308641975" y="1256.3827160493827" type="line"/>
    </contour>
  </outline>
</glyph>
<glyph name="q_pha-deva" format="2">
  <advance width="2665.740740740741"/>
  <anchor x="1953.7037037037037" y="27.765432098765434" name="bottom"/>
  <anchor x="1572.2592592592594" y="1257.148148148148" name="candra"/>
  <anchor x="1241.469135802469" y="158.33333333333334" name="nukta"/>
  <anchor x="1958.888888888889" y="1256.3827160493827" name="top"/>
  <outline>
    <contour>
      <point x="714.4938271604939" y="0.0" type="line"/>
      <point x="860.1975308641976" y="0.0" type="line"/>
      <point x="860.1975308641976" y="1193.4197530864199" type="line"/>
      <point x="714.4938271604939" y="1193.4197530864199" type="line"/>
    </contour>
    <contour>
      <point x="409.5308641975309" y="216.66666666666666" type="curve" smooth="yes"/>
      <point x="557.0" y="216.66666666666666"/>
      <point x="698.7530864197531" y="282.3703703703704"/>
      <point x="780.3456790123457" y="391.7654320987654" type="curve"/>
      <point x="749.6666666666666" y="518.1604938271605" type="line"/>
      <point x="676.6666666666666" y="413.9753086419753"/>
      <point x="557.358024691358" y="342.08641975308643"/>
      <point x="420.1111111111111" y="342.08641975308643" type="curve" smooth="yes"/>
      <point x="291.679012345679" y="342.08641975308643"/>
      <point x="222.37037037037038" y="407.34567901234567"/>
      <point x="222.37037037037038" y="560.6543209876543" type="curve" smooth="yes"/>
      <point x="222.37037037037038" y="722.3703703703703"/>
      <point x="310.25925925925924" y="786.0370370370371"/>
      <point x="446.0987654320988" y="790.8024691358024" type="curve" smooth="yes"/>
      <point x="543.641975308642" y="794.3333333333334"/>
      <point x="650.7530864197531" y="775.2716049382716"/>
      <point x="773.4567901234568" y="720.1604938271605" type="curve"/>
      <point x="773.4567901234568" y="813.4938271604939" type="line"/>
      <point x="682.4938271604939" y="881.5925925925926"/>
      <point x="562.0864197530864" y="921.0987654320987"/>
      <point x="436.95061728395063" y="921.0987654320987" type="curve" smooth="yes"/>
      <point x="205.65432098765433" y="921.0987654320987"/>
      <point x="73.37037037037037" y="802.395061728395"/>
      <point x="73.37037037037037" y="567.0617283950618" type="curve" smooth="yes"/>
      <point x="73.37037037037037" y="378.3333333333333"/>
      <point x="178.39506172839506" y="216.66666666666666"/>
    </contour>
    <contour>
      <point x="1279.8271604938273" y="662.6172839506173" type="curve"/>
      <point x="1380.6666666666667" y="753.3456790123457" type="line"/>
      <point x="1334.4938271604938" y="826.9876543209876"/>
      <point x="1254.851851851852" y="867.0987654320987"/>
      <point x="1154.0987654320988" y="867.0987654320987" type="curve" smooth="yes"/>
      <point x="1026.8148148148148" y="867.0987654320987"/>
      <point x="919.2222222222222" y="811.0987654320987"/>
      <point x="818.5185185185185" y="688.8641975308642" type="curve"/>
      <point x="818.5185185185185" y="482.0740740740741" type="line"/>
      <point x="949.604938271605" y="661.5555555555555"/>
      <point x="1054.1358024691358" y="736.2098765432099"/>
      <point x="1145.0987654320988" y="736.2098765432099" type="curve" smooth="yes"/>
      <point x="1210.283950617284" y="736.2098765432099"/>
      <point x="1257.7037037037037" y="713.9753086419753"/>
    </contour>
    <contour>
      <point x="299.0" y="116.32098765432099" type="curve" smooth="yes"/>
      <point x="235.90123456790124" y="116.32098765432099"/>
      <point x="208.320987654321" y="89.74074074074075"/>
      <point x="208.320987654321" y="26.641975308641978" type="curve" smooth="yes"/>
      <point x="208.320987654321" y="-35.456790123456784"/>
      <point x="235.90123456790124" y="-62.03703703703703"/>
      <point x="299.0" y="-62.03703703703703" type="curve" smooth="yes"/>
      <point x="362.0987654320988" y="-62.03703703703703"/>
      <point x="388.91358024691357" y="-35.456790123456784"/>
      <point x="388.91358024691357" y="26.641975308641978" type="curve" smooth="yes"/>
      <point x="388.91358024691357" y="89.74074074074075"/>
      <point x="362.0987654320988" y="116.32098765432099"/>
    </contour>
    <contour>
      <point x="-13.641975308641975" y="1133.851851851852" type="line"/>
      <point x="2279.679012345679" y="1133.851851851852" type="line"/>
      <point x="2279.679012345679" y="1256.3827160493827" type="line"/>
      <point x="-13.641975308641975" y="1256.3827160493827" type="line"/>
    </contour>
    <contour>
      <point x="1583.4074074074074" y="327.77777777777777" type="curve" smooth="yes"/>
      <point x="1703.8024691358025" y="327.77777777777777"/>
      <point x="1853.5061728395062" y="391.4691358024691"/>
      <point x="1940.9259259259259" y="523.2098765432099" type="curve"/>
      <point x="1917.888888888889" y="656.358024691358" type="line"/>
      <point x="1825.5185185185185" y="524.8271604938271"/>
      <point x="1705.037037037037" y="460.8395061728395"/>
      <point x="1591.0493827160494" y="459.8395061728395" type="curve" smooth="yes"/>
      <point x="1447.5555555555557" y="458.8395061728395"/>
      <point x="1400.0123456790122" y="539.8641975308642"/>
      <point x="1400.0123456790122" y="685.8148148148148" type="curve" smooth="yes"/>
      <point x="1400.0123456790122" y="1180.1358024691358" type="line"/>
      <point x="1252.6049382716049" y="1180.1358024691358" type="line"/>
      <point x="1252.6049382716049" y="700.9382716049382" type="line" smooth="yes"/>
      <point x="1252.6049382716049" y="454.65432098765433"/>
      <point x="1366.888888888889" y="327.77777777777777"/>
    </contour>
    <contour>
      <point x="1880.6172839506173" y="0.0" type="line"/>
      <point x="2026.5555555555557" y="0.0" type="line"/>
      <point x="2026.5555555555557" y="1192.8765432098764" type="line"/>
      <point x="1880.6172839506173" y="1192.8765432098764" type="line"/>
    </contour>
    <contour>
      <point x="2441.1604938271603" y="157.91358024691357" type="line"/>
      <point x="2549.098765432099" y="286.8641975308642"/>
      <point x="2594.432098765432" y="428.2716049382716"/>
      <point x="2594.432098765432" y="553.1234567901234" type="curve" smooth="yes"/>
      <point x="2594.432098765432" y="739.0493827160494"/>
      <point x="2491.5555555555557" y="867.0987654320987"/>
      <point x="2320.222222222222" y="867.0987654320987" type="curve" smooth="yes"/>
      <point x="2193.4691358024693" y="867.0987654320987"/>
      <point x="2085.3456790123455" y="811.0987654320987"/>
      <point x="1984.4074074074074" y="688.8641975308642" type="curve"/>
      <point x="1971.716049382716" y="487.1851851851852" type="line"/>
      <point x="2104.2716049382716" y="660.0864197530864"/>
      <point x="2214.1481481481483" y="736.2098765432099"/>
      <point x="2311.753086419753" y="736.2098765432099" type="curve" smooth="yes"/>
      <point x="2409.41975308642" y="736.2098765432099"/>
      <point x="2459.543209876543" y="671.3086419753087"/>
      <point x="2459.543209876543" y="561.8765432098766" type="curve" smooth="yes"/>
      <point x="2459.543209876543" y="466.5925925925926"/>
      <point x="2418.0864197530864" y="357.7037037037037"/>
      <point x="2329.4938271604938" y="237.17283950617283" type="curve"/>
    </contour>
    <contour>
      <point x="1077.0123456790122" y="1133.851851851852" type="line"/>
      <point x="2680.1481481481483" y="1133.851851851852" type="line"/>
      <point x="2680.1481481481483" y="1256.3827160493827" type="line"/>
      <point x="1077.0123456790122" y="1256.3827160493827" type="line"/>
    </contour>
  </outline>
</glyph>
<glyph name="q_qa-deva" format="2">
  <advance width="2695.604938271605"/>
  <anchor x="1076.3333333333333" y="21.4320987654321" name="bottom"/>
  <anchor x="787.7530864197531" y="1256.3827160493827" name="candra"/>
  <anchor x="544.358024691358" y="-36.92592592592591" name="nukta"/>
  <anchor x="1974.0246913580247" y="1256.3827160493827" name="top"/>
  <outline>
    <contour>
      <point x="-13.641975308641975" y="1133.851851851852" type="line"/>
      <point x="1292.5802469135801" y="1133.851851851852" type="line"/>
      <point x="1292.5802469135801" y="1256.3827160493827" type="line"/>
      <point x="-13.641975308641975" y="1256.3827160493827" type="line"/>
    </contour>
    <contour>
      <point x="1189.469135802469" y="1133.851851851852" type="line"/>
      <point x="2710.0123456790125" y="1133.851851851852" type="line"/>
      <point x="2710.0123456790125" y="1256.3827160493827" type="line"/>
      <point x="1189.469135802469" y="1256.3827160493827" type="line"/>
    </contour>
    <contour>
      <point x="714.4938271604939" y="0.0" type="line"/>
      <point x="860.1975308641976" y="0.0" type="line"/>
      <point x="860.1975308641976" y="1193.4197530864199" type="line"/>
      <point x="714.4938271604939" y="1193.4197530864199" type="line"/>
    </contour>
    <contour>
      <point x="1909.9506172839506" y="0.0" type="line"/>
      <point x="2055.6543209876545" y="0.0" type="line"/>
      <point x="2055.6543209876545" y="1193.4197530864199" type="line"/>
      <point x="1909.9506172839506" y="1193.4197530864199" type="line"/>
    </contour>
    <contour>
      <point x="409.5308641975309" y="216.66666666666666" type="curve" smooth="yes"/>
      <point x="557.0" y="216.66666666666666"/>
      <point x="698.7530864197531" y="282.3703703703704"/>
      <point x="780.3456790123457" y="391.7654320987654" type="curve"/>
      <point x="749.6666666666666" y="518.1604938271605" type="line"/>
      <point x="676.6666666666666" y="413.9753086419753"/>
      <point x="557.358024691358" y="342.08641975308643"/>
      <point x="420.1111111111111" y="342.08641975308643" type="curve" smooth="yes"/>
      <point x="291.679012345679" y="342.08641975308643"/>
      <point x="222.37037037037038" y="407.34567901234567"/>
      <point x="222.37037037037038" y="560.6543209876543" type="curve" smooth="yes"/>
      <point x="222.37037037037038" y="722.3703703703703"/>
      <point x="310.25925925925924" y="786.0370370370371"/>
      <point x="446.0987654320988" y="790.8024691358024" type="curve" smooth="yes"/>
      <point x="543.641975308642" y="795.0987654320987"/>
      <point x="650.7530864197531" y="775.2716049382716"/>
      <point x="773.4567901234568" y="720.1604938271605" type="curve"/>
      <point x="773.4567901234568" y="813.4938271604939" type="line"/>
      <point x="682.4938271604939" y="881.5925925925926"/>
      <point x="562.0864197530864" y="921.0987654320987"/>
      <point x="436.95061728395063" y="921.0987654320987" type="curve" smooth="yes"/>
      <point x="205.65432098765433" y="921.0987654320987"/>
      <point x="73.37037037037037" y="802.395061728395"/>
      <point x="73.37037037037037" y="567.0617283950618" type="curve" smooth="yes"/>
      <point x="73.37037037037037" y="378.3333333333333"/>
      <point x="178.39506172839506" y="216.66666666666666"/>
    </contour>
    <contour>
      <point x="1604.9876543209878" y="216.66666666666666" type="curve" smooth="yes"/>
      <point x="1752.4567901234568" y="216.66666666666666"/>
      <point x="1894.20987654321" y="282.3703703703704"/>
      <point x="1975.8024691358025" y="391.7654320987654" type="curve"/>
      <point x="1945.1234567901236" y="518.1604938271605" type="line"/>
      <point x="1872.1234567901236" y="413.9753086419753"/>
      <point x="1752.8148148148148" y="342.08641975308643"/>
      <point x="1615.567901234568" y="342.08641975308643" type="curve" smooth="yes"/>
      <point x="1487.1358024691358" y="342.08641975308643"/>
      <point x="1417.8271604938273" y="407.34567901234567"/>
      <point x="1417.8271604938273" y="560.6543209876543" type="curve" smooth="yes"/>
      <point x="1417.8271604938273" y="722.3703703703703"/>
      <point x="1505.716049382716" y="785.2716049382716"/>
      <point x="1641.5555555555557" y="790.8024691358024" type="curve" smooth="yes"/>
      <point x="1739.0987654320988" y="794.5679012345679"/>
      <point x="1846.20987654321" y="775.2716049382716"/>
      <point x="1968.9135802469136" y="720.1604938271605" type="curve"/>
      <point x="1968.9135802469136" y="813.4938271604939" type="line"/>
      <point x="1877.9506172839506" y="881.5925925925926"/>
      <point x="1757.5432098765432" y="921.0987654320987"/>
      <point x="1632.4074074074074" y="921.0987654320987" type="curve" smooth="yes"/>
      <point x="1401.111111111111" y="921.0987654320987"/>
      <point x="1268.8271604938273" y="802.395061728395"/>
      <point x="1268.8271604938273" y="567.0617283950618" type="curve" smooth="yes"/>
      <point x="1268.8271604938273" y="378.3333333333333"/>
      <point x="1373.851851851852" y="216.66666666666666"/>
    </contour>
    <contour>
      <point x="1279.8271604938273" y="662.6172839506173" type="curve"/>
      <point x="1380.6666666666667" y="753.3456790123457" type="line"/>
      <point x="1334.4938271604938" y="826.9876543209876"/>
      <point x="1254.851851851852" y="867.0987654320987"/>
      <point x="1154.0987654320988" y="867.0987654320987" type="curve" smooth="yes"/>
      <point x="1026.8148148148148" y="867.0987654320987"/>
      <point x="919.2222222222222" y="811.0987654320987"/>
      <point x="818.5185185185185" y="688.8641975308642" type="curve"/>
      <point x="818.5185185185185" y="482.0740740740741" type="line"/>
      <point x="949.604938271605" y="661.5555555555555"/>
      <point x="1054.1358024691358" y="736.2098765432099"/>
      <point x="1145.0987654320988" y="736.2098765432099" type="curve" smooth="yes"/>
      <point x="1210.283950617284" y="736.2098765432099"/>
      <point x="1257.7037037037037" y="713.9753086419753"/>
    </contour>
    <contour>
      <point x="2469.962962962963" y="157.91358024691357" type="line"/>
      <point x="2578.6666666666665" y="286.8641975308642"/>
      <point x="2621.703703703704" y="428.5061728395062"/>
      <point x="2623.2345679012346" y="553.358024691358" type="curve" smooth="yes"/>
      <point x="2625.5308641975307" y="753.2962962962963"/>
      <point x="2520.358024691358" y="867.0987654320987"/>
      <point x="2349.5555555555557" y="867.0987654320987" type="curve" smooth="yes"/>
      <point x="2222.2716049382716" y="867.0987654320987"/>
      <point x="2114.679012345679" y="811.0987654320987"/>
      <point x="2013.9753086419753" y="688.8641975308642" type="curve"/>
      <point x="2013.9753086419753" y="482.0740740740741" type="line"/>
      <point x="2145.061728395062" y="661.5555555555555"/>
      <point x="2249.5925925925926" y="736.2098765432099"/>
      <point x="2340.5555555555557" y="736.2098765432099" type="curve" smooth="yes"/>
      <point x="2438.222222222222" y="736.2098765432099"/>
      <point x="2494.4691358024693" y="687.0864197530864"/>
      <point x="2489.8765432098767" y="563.641975308642" type="curve" smooth="yes"/>
      <point x="2486.814814814815" y="468.358024691358"/>
      <point x="2450.716049382716" y="360.7654320987654"/>
      <point x="2361.358024691358" y="240.46913580246914" type="curve"/>
    </contour>
    <contour>
      <point x="299.0" y="116.32098765432099" type="curve" smooth="yes"/>
      <point x="235.90123456790124" y="116.32098765432099"/>
      <point x="208.320987654321" y="89.74074074074075"/>
      <point x="208.320987654321" y="26.641975308641978" type="curve" smooth="yes"/>
      <point x="208.320987654321" y="-35.456790123456784"/>
      <point x="235.90123456790124" y="-62.03703703703703"/>
      <point x="299.0" y="-62.03703703703703" type="curve" smooth="yes"/>
      <point x="362.0987654320988" y="-62.03703703703703"/>
      <point x="388.91358024691357" y="-35.456790123456784"/>
      <point x="388.91358024691357" y="26.641975308641978" type="curve" smooth="yes"/>
      <point x="388.91358024691357" y="89.74074074074075"/>
      <point x="362.0987654320988" y="116.32098765432099"/>
    </contour>
    <contour>
      <point x="1494.4567901234568" y="116.32098765432099" type="curve" smooth="yes"/>
      <point x="1431.358024691358" y="116.32098765432099"/>
      <point x="1403.7777777777778" y="89.74074074074075"/>
      <point x="1403.7777777777778" y="26.641975308641978" type="curve" smooth="yes"/>
      <point x="1403.7777777777778" y="-35.456790123456784"/>
      <point x="1431.358024691358" y="-62.03703703703703"/>
      <point x="1494.4567901234568" y="-62.03703703703703" type="curve" smooth="yes"/>
      <point x="1557.5555555555557" y="-62.03703703703703"/>
      <point x="1584.3703703703704" y="-35.456790123456784"/>
      <point x="1584.3703703703704" y="26.641975308641978" type="curve" smooth="yes"/>
      <point x="1584.3703703703704" y="89.74074074074075"/>
      <point x="1557.5555555555557" y="116.32098765432099"/>
    </contour>
  </outline>
</glyph>
<glyph name="q_ra-deva" format="2">
  <advance width="1492.4938271604938"/>
  <outline>
    <contour>
      <point x="-13.641975308641975" y="1133.851851851852" type="line"/>
      <point x="1506.9012345679012" y="1133.851851851852" type="line"/>
      <point x="1506.9012345679012" y="1256.3827160493827" type="line"/>
      <point x="-13.641975308641975" y="1256.3827160493827" type="line"/>
    </contour>
    <contour>
      <point x="706.8395061728395" y="0.0" type="line"/>
      <point x="852.5432098765432" y="0.0" type="line"/>
      <point x="852.5432098765432" y="1193.4197530864199" type="line"/>
      <point x="706.8395061728395" y="1193.4197530864199" type="line"/>
    </contour>
    <contour>
      <point x="401.87654320987656" y="216.66666666666666" type="curve" smooth="yes"/>
      <point x="549.3456790123457" y="216.66666666666666"/>
      <point x="691.0987654320987" y="282.3703703703704"/>
      <point x="772.6913580246913" y="391.7654320987654" type="curve"/>
      <point x="742.0123456790124" y="518.1604938271605" type="line"/>
      <point x="669.0123456790124" y="413.9753086419753"/>
      <point x="549.7037037037037" y="342.08641975308643"/>
      <point x="412.4567901234568" y="342.08641975308643" type="curve" smooth="yes"/>
      <point x="284.0246913580247" y="342.08641975308643"/>
      <point x="214.71604938271605" y="407.34567901234567"/>
      <point x="214.71604938271605" y="560.6543209876543" type="curve" smooth="yes"/>
      <point x="214.71604938271605" y="722.3703703703703"/>
      <point x="302.60493827160496" y="785.2716049382716"/>
      <point x="438.44444444444446" y="790.8024691358024" type="curve" smooth="yes"/>
      <point x="535.9876543209876" y="794.5679012345679"/>
      <point x="643.0987654320987" y="775.2716049382716"/>
      <point x="765.8024691358024" y="720.1604938271605" type="curve"/>
      <point x="765.8024691358024" y="813.4938271604939" type="line"/>
      <point x="674.8395061728395" y="881.5925925925926"/>
      <point x="554.4320987654321" y="921.0987654320987"/>
      <point x="429.2962962962963" y="921.0987654320987" type="curve" smooth="yes"/>
      <point x="198.0" y="921.0987654320987"/>
      <point x="65.71604938271605" y="802.395061728395"/>
      <point x="65.71604938271605" y="567.0617283950618" type="curve" smooth="yes"/>
      <point x="65.71604938271605" y="378.3333333333333"/>
      <point x="170.74074074074073" y="216.66666666666666"/>
    </contour>
    <contour>
      <point x="1266.851851851852" y="157.91358024691357" type="line"/>
      <point x="1375.5555555555557" y="286.8641975308642"/>
      <point x="1418.5925925925926" y="428.5061728395062"/>
      <point x="1420.1234567901236" y="553.358024691358" type="curve" smooth="yes"/>
      <point x="1422.4197530864199" y="753.2962962962963"/>
      <point x="1317.2469135802469" y="867.0987654320987"/>
      <point x="1146.4444444444443" y="867.0987654320987" type="curve" smooth="yes"/>
      <point x="1019.1604938271605" y="867.0987654320987"/>
      <point x="911.5679012345679" y="811.0987654320987"/>
      <point x="810.8641975308642" y="688.8641975308642" type="curve"/>
      <point x="810.8641975308642" y="482.0740740740741" type="line"/>
      <point x="941.9506172839506" y="661.5555555555555"/>
      <point x="1046.4814814814815" y="736.2098765432099"/>
      <point x="1137.4444444444443" y="736.2098765432099" type="curve" smooth="yes"/>
      <point x="1235.111111111111" y="736.2098765432099"/>
      <point x="1291.358024691358" y="687.0864197530864"/>
      <point x="1286.7654320987654" y="563.641975308642" type="curve" smooth="yes"/>
      <point x="1283.7037037037037" y="468.358024691358"/>
      <point x="1247.6049382716049" y="360.7654320987654"/>
      <point x="1158.2469135802469" y="240.46913580246914" type="curve"/>
    </contour>
    <contour>
      <point x="190.82716049382717" y="-44.148148148148145" type="line"/>
      <point x="713.1358024691358" y="336.58024691358025" type="line"/>
      <point x="668.8765432098766" y="414.4938271604938" type="line"/>
      <point x="106.80246913580247" y="65.98765432098766" type="line"/>
    </contour>
    <component base="nukta-deva" xOffset="-270.2345679012346" yOffset="377.8641975308642"/>
  </outline>
</glyph>
<glyph name="q_ta-deva" format="2">
  <advance width="2279.3456790123455"/>
  <anchor x="789.6913580246913" y="-14.197530864197528" name="bottom"/>
  <anchor x="541.2222222222222" y="1257.3827160493827" name="candra"/>
  <anchor x="1111.1234567901236" y="252.54320987654322" name="nukta"/>
  <anchor x="1059.4567901234568" y="1257.0864197530864" name="top"/>
  <outline>
    <contour>
      <point x="714.4938271604939" y="0.0" type="line"/>
      <point x="860.1975308641976" y="0.0" type="line"/>
      <point x="860.1975308641976" y="1193.4197530864199" type="line"/>
      <point x="714.4938271604939" y="1193.4197530864199" type="line"/>
    </contour>
    <contour>
      <point x="378.91358024691357" y="216.66666666666666" type="curve" smooth="yes"/>
      <point x="526.3827160493827" y="216.66666666666666"/>
      <point x="698.7530864197531" y="282.3703703703704"/>
      <point x="780.3456790123457" y="391.7654320987654" type="curve"/>
      <point x="749.6666666666666" y="518.1604938271605" type="line"/>
      <point x="676.6666666666666" y="413.9753086419753"/>
      <point x="557.358024691358" y="342.08641975308643"/>
      <point x="420.1111111111111" y="342.08641975308643" type="curve" smooth="yes"/>
      <point x="291.679012345679" y="342.08641975308643"/>
      <point x="222.37037037037038" y="407.34567901234567"/>
      <point x="222.37037037037038" y="560.6543209876543" type="curve" smooth="yes"/>
      <point x="222.37037037037038" y="722.3703703703703"/>
      <point x="310.25925925925924" y="786.0370370370371"/>
      <point x="446.0987654320988" y="790.8024691358024" type="curve" smooth="yes"/>
      <point x="543.641975308642" y="794.3333333333334"/>
      <point x="650.7530864197531" y="775.2716049382716"/>
      <point x="773.4567901234568" y="720.1604938271605" type="curve"/>
      <point x="773.4567901234568" y="813.4938271604939" type="line"/>
      <point x="682.4938271604939" y="881.5925925925926"/>
      <point x="562.0864197530864" y="921.0987654320987"/>
      <point x="436.95061728395063" y="921.0987654320987" type="curve" smooth="yes"/>
      <point x="205.65432098765433" y="921.0987654320987"/>
      <point x="73.37037037037037" y="802.395061728395"/>
      <point x="73.37037037037037" y="567.0617283950618" type="curve" smooth="yes"/>
      <point x="73.37037037037037" y="378.3333333333333"/>
      <point x="147.77777777777777" y="216.66666666666666"/>
    </contour>
    <contour>
      <point x="1293.9012345679012" y="662.6172839506173" type="curve"/>
      <point x="1394.7407407407406" y="753.3456790123457" type="line"/>
      <point x="1348.567901234568" y="826.9876543209876"/>
      <point x="1268.9259259259259" y="867.0987654320987"/>
      <point x="1168.1728395061727" y="867.0987654320987" type="curve" smooth="yes"/>
      <point x="1040.888888888889" y="867.0987654320987"/>
      <point x="919.2222222222222" y="811.0987654320987"/>
      <point x="818.5185185185185" y="688.8641975308642" type="curve"/>
      <point x="818.5185185185185" y="482.0740740740741" type="line"/>
      <point x="932.2469135802469" y="651.9382716049382"/>
      <point x="1042.1728395061727" y="736.2098765432099"/>
      <point x="1159.1728395061727" y="736.2098765432099" type="curve" smooth="yes"/>
      <point x="1224.358024691358" y="736.2098765432099"/>
      <point x="1271.7777777777778" y="713.9753086419753"/>
    </contour>
    <contour>
      <point x="122.4567901234568" y="123.35802469135803" type="curve" smooth="yes"/>
      <point x="59.358024691358025" y="123.35802469135803"/>
      <point x="31.777777777777782" y="96.77777777777777"/>
      <point x="31.777777777777782" y="33.67901234567901" type="curve" smooth="yes"/>
      <point x="31.777777777777782" y="-28.41975308641975"/>
      <point x="59.358024691358025" y="-55.0"/>
      <point x="122.4567901234568" y="-55.0" type="curve" smooth="yes"/>
      <point x="185.55555555555554" y="-55.0"/>
      <point x="212.37037037037038" y="-28.41975308641975"/>
      <point x="212.37037037037038" y="33.67901234567901" type="curve" smooth="yes"/>
      <point x="212.37037037037038" y="96.77777777777777"/>
      <point x="185.55555555555554" y="123.35802469135803"/>
    </contour>
    <contour>
      <point x="1515.5555555555557" y="-31.876543209876544" type="curve"/>
      <point x="1631.3333333333333" y="46.50617283950617" type="line"/>
      <point x="1478.3333333333333" y="262.1975308641975"/>
      <point x="1399.4197530864199" y="418.3333333333333"/>
      <point x="1399.4197530864199" y="547.7777777777778" type="curve" smooth="yes"/>
      <point x="1399.4197530864199" y="678.925925925926"/>
      <point x="1470.320987654321" y="700.8024691358024"/>
      <point x="1613.1728395061727" y="700.8024691358024" type="curve" smooth="yes"/>
      <point x="2014.9753086419753" y="700.8024691358024" type="line"/>
      <point x="1978.9259259259259" y="835.0370370370371" type="line"/>
      <point x="1577.8641975308642" y="835.0370370370371" type="line" smooth="yes"/>
      <point x="1342.432098765432" y="835.8024691358024"/>
      <point x="1249.716049382716" y="721.679012345679"/>
      <point x="1249.716049382716" y="569.0617283950618" type="curve" smooth="yes"/>
      <point x="1249.716049382716" y="365.7654320987654"/>
      <point x="1389.9135802469136" y="130.23456790123456"/>
    </contour>
    <contour>
      <point x="1928.5555555555557" y="0.0" type="line"/>
      <point x="2074.259259259259" y="0.0" type="line"/>
      <point x="2074.259259259259" y="1192.8765432098764" type="line"/>
      <point x="1928.5555555555557" y="1192.8765432098764" type="line"/>
    </contour>
    <contour>
      <point x="-13.641975308641975" y="1133.851851851852" type="line"/>
      <point x="2293.753086419753" y="1133.851851851852" type="line"/>
      <point x="2293.753086419753" y="1256.3827160493827" type="line"/>
      <point x="-13.641975308641975" y="1256.3827160493827" type="line"/>
    </contour>
  </outline>
</glyph>
<glyph name="reph_candraBindu-deva" format="2">
  <advance width="540.0"/>
  <anchor x="289.34567901234567" y="1256.3827160493827" name="_top"/>
  <anchor x="441.7188888888889" y="1789.2962962962963" name="top"/>
  <outline>
    <contour>
      <point x="285.9012345679012" y="1217.320987654321" type="curve"/>
      <point x="330.641975308642" y="1244.0246913580247" type="line"/>
      <point x="297.5679012345679" y="1295.5555555555557"/>
      <point x="280.5061728395062" y="1361.2592592592594"/>
      <point x="280.5061728395062" y="1421.20987654321" type="curve" smooth="yes"/>
      <point x="280.5061728395062" y="1537.1728395061727"/>
      <point x="345.1111111111111" y="1662.8765432098764"/>
      <point x="478.44444444444446" y="1662.8765432098764" type="curve" smooth="yes"/>
      <point x="542.1111111111111" y="1662.8765432098764"/>
      <point x="602.4691358024692" y="1642.6296296296296"/>
      <point x="653.2222222222222" y="1615.3950617283951" type="curve"/>
      <point x="689.0370370370371" y="1728.1728395061727" type="line"/>
      <point x="633.6913580246913" y="1764.530864197531"/>
      <point x="548.1604938271605" y="1789.2962962962963"/>
      <point x="464.5061728395062" y="1789.2962962962963" type="curve" smooth="yes"/>
      <point x="286.25925925925924" y="1789.2962962962963"/>
      <point x="175.23456790123456" y="1652.5185185185185"/>
      <point x="175.23456790123456" y="1483.8641975308642" type="curve" smooth="yes"/>
      <point x="175.23456790123456" y="1402.1975308641975"/>
      <point x="201.01234567901236" y="1306.148148148148"/>
    </contour>
    <component base="candraBindu-deva" xScale="0.6366691358024691" yScale="0.6366691358024691" xOffset="351.38271604938274" yOffset="419.8888888888889"/>
  </outline>
</glyph>
<glyph name="ringcomb.cap" format="2">
  <anchor x="197.33333333333334" y="1344.5925925925926" name="_top"/>
  <anchor x="197.33333333333334" y="1788.8641975308642" name="top"/>
  <outline>
    <contour>
      <point x="197.33333333333334" y="1432.2962962962963" type="curve" smooth="yes"/>
      <point x="303.7901234567901" y="1432.2962962962963"/>
      <point x="384.6666666666667" y="1500.7037037037037"/>
      <point x="384.6666666666667" y="1610.5802469135801" type="curve" smooth="yes"/>
      <point x="384.6666666666667" y="1717.6913580246915"/>
      <point x="303.7901234567901" y="1788.8641975308642"/>
      <point x="197.33333333333334" y="1788.8641975308642" type="curve" smooth="yes"/>
      <point x="88.11111111111111" y="1788.8641975308642"/>
      <point x="10.0" y="1717.6913580246915"/>
      <point x="10.0" y="1610.5802469135801" type="curve" smooth="yes"/>
      <point x="10.0" y="1500.7037037037037"/>
      <point x="88.11111111111111" y="1432.2962962962963"/>
    </contour>
    <contour>
      <point x="197.33333333333334" y="1503.1604938271605" type="curve" smooth="yes"/>
      <point x="141.74074074074073" y="1503.1604938271605"/>
      <point x="98.44444444444444" y="1541.6913580246915"/>
      <point x="98.44444444444444" y="1610.5802469135801" type="curve" smooth="yes"/>
      <point x="98.44444444444444" y="1674.9382716049383"/>
      <point x="141.74074074074073" y="1716.0"/>
      <point x="197.33333333333334" y="1716.0" type="curve" smooth="yes"/>
      <point x="249.16049382716048" y="1716.0"/>
      <point x="294.22222222222223" y="1674.9382716049383"/>
      <point x="294.22222222222223" y="1610.5802469135801" type="curve" smooth="yes"/>
      <point x="294.22222222222223" y="1541.6913580246915"/>
      <point x="249.16049382716048" y="1503.1604938271605"/>
    </contour>
  </outline>
</glyph>
<glyph name="s_na-deva" format="2">
  <advance width="1350.1234567901236"/>
  <anchor x="1087.7283950617284" y="0.0" name="bottom"/>
  <anchor x="707.4691358024692" y="1257.148148148148" name="candra"/>
  <anchor x="163.98765432098764" y="52.91358024691358" name="nukta"/>
  <anchor x="1087.7283950617284" y="1256.3827160493827" name="top"/>
  <outline>
    <contour>
      <point x="433.9259259259259" y="-13.703703703703704" type="line"/>
      <point x="549.5802469135803" y="71.55555555555556" type="line"/>
      <point x="187.92592592592592" y="606.7530864197531" type="line"/>
      <point x="170.9753086419753" y="589.8641975308642" type="line"/>
      <point x="191.5679012345679" y="566.0864197530864"/>
      <point x="231.11111111111111" y="541.9506172839506"/>
      <point x="282.3703703703704" y="541.9506172839506" type="curve" smooth="yes"/>
      <point x="409.91358024691357" y="541.9506172839506"/>
      <point x="490.6666666666667" y="620.2962962962963"/>
      <point x="490.6666666666667" y="799.5925925925926" type="curve" smooth="yes"/>
      <point x="490.6666666666667" y="1187.4814814814815" type="line"/>
      <point x="344.962962962963" y="1186.716049382716" type="line"/>
      <point x="344.962962962963" y="796.4074074074074" type="line" smooth="yes"/>
      <point x="344.962962962963" y="702.2098765432099"/>
      <point x="319.1358024691358" y="655.2592592592592"/>
      <point x="240.28395061728395" y="655.2592592592592" type="curve" smooth="yes"/>
      <point x="195.33333333333334" y="655.2592592592592"/>
      <point x="159.20987654320987" y="675.3827160493827"/>
      <point x="121.9753086419753" y="705.0864197530864" type="curve"/>
      <point x="30.60493827160494" y="629.2962962962963" type="line"/>
    </contour>
    <contour>
      <point x="733.395061728395" y="522.0246913580247" type="curve" smooth="yes"/>
      <point x="826.6296296296297" y="522.0246913580247"/>
      <point x="1017.6296296296297" y="534.0246913580247"/>
      <point x="1093.1604938271605" y="559.5555555555555" type="curve"/>
      <point x="1093.1604938271605" y="698.7901234567901" type="line"/>
      <point x="1016.9876543209876" y="668.5555555555555"/>
      <point x="820.5802469135803" y="652.0864197530864"/>
      <point x="724.641975308642" y="652.0864197530864" type="curve" smooth="yes"/>
      <point x="613.283950617284" y="652.0864197530864"/>
      <point x="502.39506172839504" y="668.9135802469136"/>
      <point x="425.8024691358025" y="700.0864197530864" type="curve"/>
      <point x="377.81481481481484" y="592.4938271604939" type="line"/>
      <point x="483.58024691358025" y="545.0246913580247"/>
      <point x="606.395061728395" y="522.0246913580247"/>
    </contour>
    <contour>
      <point x="1014.8765432098766" y="0.0" type="line"/>
      <point x="1160.5802469135801" y="0.0" type="line"/>
      <point x="1160.5802469135801" y="1164.7283950617284" type="line"/>
      <point x="1014.8765432098766" y="1164.7283950617284" type="line"/>
    </contour>
    <contour>
      <point x="-27.098765432098766" y="1133.851851851852" type="line"/>
      <point x="1364.530864197531" y="1133.851851851852" type="line"/>
      <point x="1364.530864197531" y="1256.3827160493827" type="line"/>
      <point x="-27.098765432098766" y="1256.3827160493827" type="line"/>
    </contour>
    <contour>
      <point x="832.4691358024692" y="91.11111111111111" type="line"/>
      <point x="859.8641975308642" y="114.39506172839506"/>
      <point x="870.4444444444445" y="136.679012345679"/>
      <point x="871.679012345679" y="158.7283950617284" type="curve" smooth="yes"/>
      <point x="872.9135802469136" y="180.60493827160494"/>
      <point x="864.4444444444445" y="202.2469135802469"/>
      <point x="851.2098765432099" y="222.1851851851852" type="curve" smooth="yes"/>
      <point x="790.6543209876543" y="309.8641975308642" type="line"/>
      <point x="773.358024691358" y="255.16049382716048" type="line"/>
      <point x="1123.9135802469136" y="540.283950617284" type="line"/>
      <point x="1081.0246913580247" y="633.1975308641976" type="line"/>
      <point x="563.5925925925926" y="270.60493827160496" type="line"/>
      <point x="621.7037037037037" y="170.22222222222223" type="line"/>
    </contour>
  </outline>
</glyph>
<glyph name="seven.tf" format="2">
  <advance width="1003.0"/>
  <outline>
    <contour>
      <point x="360.91358024691357" y="-150.40740740740742" type="curve"/>
      <point x="523.679012345679" y="-150.40740740740742" type="line"/>
      <point x="539.679012345679" y="362.82716049382714"/>
      <point x="611.6296296296297" y="677.9012345679013"/>
      <point x="921.4567901234568" y="1078.4444444444443" type="curve"/>
      <point x="921.4567901234568" y="1174.4074074074074" type="line"/>
      <point x="85.30864197530865" y="1174.4074074074074" type="line"/>
      <point x="85.30864197530865" y="1038.9259259259259" type="line"/>
      <point x="742.4567901234568" y="1038.9259259259259" type="line"/>
      <point x="484.0987654320988" y="677.8024691358024"/>
      <point x="377.91358024691357" y="350.38271604938274"/>
    </contour>
  </outline>
</glyph>
<glyph name="six.tf" format="2">
  <advance width="1003.0"/>
  <outline>
    <contour>
      <point x="540.716049382716" y="-25.0" type="curve" smooth="yes"/>
      <point x="748.4691358024692" y="-25.0"/>
      <point x="922.5185185185185" y="150.35802469135803"/>
      <point x="922.5185185185185" y="398.4074074074074" type="curve" smooth="yes"/>
      <point x="922.5185185185185" y="688.6913580246913"/>
      <point x="776.7037037037037" y="831.283950617284"/>
      <point x="550.4074074074074" y="831.283950617284" type="curve" smooth="yes"/>
      <point x="442.1604938271605" y="831.283950617284"/>
      <point x="325.6296296296296" y="768.4567901234568"/>
      <point x="241.97530864197532" y="666.0370370370371" type="curve"/>
      <point x="248.2716049382716" y="1097.148148148148"/>
      <point x="407.34567901234567" y="1238.283950617284"/>
      <point x="593.716049382716" y="1238.283950617284" type="curve" smooth="yes"/>
      <point x="675.7777777777778" y="1238.283950617284"/>
      <point x="755.074074074074" y="1208.0493827160494"/>
      <point x="807.9012345679013" y="1143.1604938271605" type="curve"/>
      <point x="894.8148148148148" y="1240.9506172839506" type="line"/>
      <point x="823.1728395061729" y="1319.888888888889"/>
      <point x="726.2962962962963" y="1369.2962962962963"/>
      <point x="587.8395061728395" y="1369.2962962962963" type="curve" smooth="yes"/>
      <point x="329.962962962963" y="1369.2962962962963"/>
      <point x="92.85185185185185" y="1167.1851851851852"/>
      <point x="92.85185185185185" y="632.0493827160494" type="curve" smooth="yes"/>
      <point x="92.85185185185185" y="210.41975308641975"/>
      <point x="280.5432098765432" y="-25.0"/>
    </contour>
    <contour>
      <point x="540.5432098765432" y="99.60493827160494" type="curve" smooth="yes"/>
      <point x="366.037037037037" y="99.60493827160494"/>
      <point x="263.5679012345679" y="274.87654320987656"/>
      <point x="245.97530864197532" y="538.4814814814815" type="curve"/>
      <point x="336.75308641975306" y="665.0246913580247"/>
      <point x="442.2962962962963" y="712.0864197530864"/>
      <point x="525.9506172839506" y="712.0864197530864" type="curve" smooth="yes"/>
      <point x="692.5679012345679" y="712.0864197530864"/>
      <point x="773.6296296296297" y="591.9506172839506"/>
      <point x="773.6296296296297" y="398.4074074074074" type="curve" smooth="yes"/>
      <point x="773.6296296296297" y="224.16049382716048"/>
      <point x="672.9135802469136" y="99.60493827160494"/>
    </contour>
  </outline>
</glyph>
<glyph name="t_k_ssa-deva" format="2">
  <advance width="1944.5925925925926"/>
  <anchor x="49.02469135802469" y="38.691358024691354" name="nukta"/>
  <anchor x="1668.8271604938273" y="27.765432098765434" name="bottom"/>
  <anchor x="1396.358024691358" y="1257.148148148148" name="candra"/>
  <anchor x="1668.8271604938273" y="1287.7654320987654" name="top"/>
  <outline>
    <contour>
      <point x="342.91358024691357" y="-0.4691358024691357" type="curve"/>
      <point x="458.69135802469134" y="77.91358024691358" type="line"/>
      <point x="305.69135802469134" y="293.60493827160496"/>
      <point x="226.77777777777777" y="443.641975308642"/>
      <point x="226.77777777777777" y="557.7777777777778" type="curve" smooth="yes"/>
      <point x="226.77777777777777" y="688.925925925926"/>
      <point x="297.679012345679" y="720.8518518518518"/>
      <point x="440.5308641975309" y="720.8518518518518" type="curve" smooth="yes"/>
      <point x="929.3827160493827" y="720.8518518518518" type="line"/>
      <point x="908.3456790123457" y="845.0370370370371" type="line"/>
      <point x="405.22222222222223" y="845.0370370370371" type="line" smooth="yes"/>
      <point x="169.79012345679013" y="845.0370370370371"/>
      <point x="77.07407407407408" y="731.679012345679"/>
      <point x="77.07407407407408" y="579.0617283950618" type="curve" smooth="yes"/>
      <point x="77.07407407407408" y="391.0740740740741"/>
      <point x="217.2716049382716" y="161.64197530864197"/>
    </contour>
    <contour>
      <point x="-13.641975308641975" y="1133.851851851852" type="line"/>
      <point x="640.0" y="1133.851851851852" type="line"/>
      <point x="640.0" y="1256.3827160493827" type="line"/>
      <point x="-13.641975308641975" y="1256.3827160493827" type="line"/>
    </contour>
    <component base="k_ssa-deva" xOffset="541.3703703703703"/>
  </outline>
</glyph>
<glyph name="th_na-deva" format="2">
  <advance width="1220.7283950617284"/>
  <anchor x="942.7901234567901" y="0.0" name="bottom"/>
  <anchor x="867.0987654320987" y="1256.3827160493827" name="candra"/>
  <anchor x="202.0" y="111.0" name="nukta"/>
  <anchor x="943.4938271604939" y="1256.3827160493827" name="top"/>
  <outline>
    <contour>
      <point x="530.4197530864197" y="-101.06172839506172" type="line"/>
      <point x="558.5185185185185" y="-77.30864197530863"/>
      <point x="569.3333333333334" y="-54.32098765432099"/>
      <point x="570.5679012345679" y="-32.03703703703704" type="curve" smooth="yes"/>
      <point x="571.8024691358024" y="-9.691358024691358"/>
      <point x="563.3333333333334" y="12.419753086419753"/>
      <point x="549.8641975308642" y="32.592592592592595" type="curve" smooth="yes"/>
      <point x="488.8395061728395" y="121.20987654320987" type="line"/>
      <point x="471.30864197530866" y="65.5679012345679" type="line"/>
      <point x="886.4074074074074" y="387.4938271604938" type="line"/>
      <point x="821.2345679012345" y="472.4320987654321" type="line"/>
      <point x="257.55555555555554" y="81.71604938271605" type="line"/>
      <point x="316.60493827160496" y="-20.54320987654321" type="line"/>
    </contour>
    <component base="tha-deva"/>
  </outline>
</glyph>
<glyph name="th_ra-deva" format="2">
  <advance width="696.5679012345679"/>
  <outline>
    <contour>
      <point x="354.4567901234568" y="-2.012345679012343" type="line"/>
      <point x="919.2962962962963" y="427.3333333333333" type="line"/>
      <point x="846.6666666666666" y="490.7037037037037" type="line"/>
      <point x="265.96296296296293" y="105.88888888888889" type="line"/>
    </contour>
    <component base="th-deva"/>
  </outline>
</glyph>
<glyph name="three.tf" format="2">
  <advance width="1003.0"/>
  <outline>
    <contour>
      <point x="480.2345679012346" y="-175.17283950617283" type="curve" smooth="yes"/>
      <point x="717.5185185185185" y="-175.17283950617283"/>
      <point x="904.9753086419753" y="-28.703703703703702"/>
      <point x="904.9753086419753" y="202.7037037037037" type="curve" smooth="yes"/>
      <point x="904.9753086419753" y="385.2962962962963"/>
      <point x="778.320987654321" y="507.358024691358"/>
      <point x="620.4938271604939" y="541.2962962962963" type="curve"/>
      <point x="620.4938271604939" y="549.2962962962963" type="line"/>
      <point x="762.0246913580247" y="600.2345679012345"/>
      <point x="859.4444444444445" y="709.9382716049382"/>
      <point x="859.4444444444445" y="869.4197530864197" type="curve" smooth="yes"/>
      <point x="859.4444444444445" y="1078.2345679012346"/>
      <point x="697.3333333333334" y="1197.641975308642"/>
      <point x="474.2345679012346" y="1197.641975308642" type="curve" smooth="yes"/>
      <point x="320.5308641975309" y="1197.641975308642"/>
      <point x="201.65432098765433" y="1132.5802469135801"/>
      <point x="102.07407407407408" y="1040.1728395061727" type="curve"/>
      <point x="186.98765432098764" y="940.1481481481482" type="line"/>
      <point x="263.69135802469134" y="1019.2098765432099"/>
      <point x="357.641975308642" y="1069.567901234568"/>
      <point x="468.82716049382714" y="1069.567901234568" type="curve" smooth="yes"/>
      <point x="611.6666666666666" y="1069.567901234568"/>
      <point x="700.2098765432099" y="987.8518518518518"/>
      <point x="700.2098765432099" y="858.0123456790124" type="curve" smooth="yes"/>
      <point x="700.2098765432099" y="717.9382716049382"/>
      <point x="605.2592592592592" y="600.6913580246913"/>
      <point x="323.82716049382714" y="600.6913580246913" type="curve"/>
      <point x="323.82716049382714" y="478.4938271604938" type="line"/>
      <point x="636.604938271605" y="478.4938271604938"/>
      <point x="746.9753086419753" y="367.48148148148147"/>
      <point x="746.9753086419753" y="209.34567901234567" type="curve" smooth="yes"/>
      <point x="746.9753086419753" y="57.148148148148145"/>
      <point x="632.1975308641976" y="-44.39506172839506"/>
      <point x="471.41975308641975" y="-44.39506172839506" type="curve" smooth="yes"/>
      <point x="312.98765432098764" y="-44.39506172839506"/>
      <point x="210.69135802469137" y="27.25925925925926"/>
      <point x="132.69135802469137" y="110.32098765432099" type="curve"/>
      <point x="51.95061728395062" y="6.592592592592593" type="line"/>
      <point x="139.65432098765433" y="-88.28395061728395"/>
      <point x="271.0" y="-175.17283950617283"/>
    </contour>
  </outline>
</glyph>
<glyph name="tt_tt_ya-deva" format="2">
  <advance width="2079.9753086419755"/>
  <anchor x="1788.0740740740741" y="13.691358024691361" name="bottom"/>
  <anchor x="1695.1358024691358" y="1257.148148148148" name="candra"/>
  <anchor x="1786.1975308641975" y="1287.7654320987654" name="top"/>
  <outline>
    <contour>
      <point x="895.5308641975308" y="1133.851851851852" type="line"/>
      <point x="2094.382716049383" y="1133.851851851852" type="line"/>
      <point x="2094.382716049383" y="1256.3827160493827" type="line"/>
      <point x="895.5308641975308" y="1256.3827160493827" type="line"/>
    </contour>
    <contour>
      <point x="1415.0740740740741" y="151.49382716049382" type="curve" smooth="yes"/>
      <point x="1542.5432098765432" y="151.49382716049382"/>
      <point x="1650.851851851852" y="198.25925925925927"/>
      <point x="1738.7407407407406" y="289.91358024691357" type="curve"/>
      <point x="1744.6172839506173" y="473.1975308641975" type="line"/>
      <point x="1662.148148148148" y="336.1975308641975"/>
      <point x="1519.6049382716049" y="284.55555555555554"/>
      <point x="1405.7283950617284" y="284.55555555555554" type="curve" smooth="yes"/>
      <point x="1263.358024691358" y="284.55555555555554"/>
      <point x="1155.111111111111" y="366.22222222222223"/>
      <point x="1119.111111111111" y="529.0617283950618" type="curve"/>
      <point x="1098.2839506172838" y="474.0246913580247" type="line"/>
      <point x="1198.8641975308642" y="499.30864197530866"/>
      <point x="1374.7037037037037" y="573.4938271604939"/>
      <point x="1374.7037037037037" y="756.1358024691358" type="curve" smooth="yes"/>
      <point x="1374.7037037037037" y="931.358024691358"/>
      <point x="1261.530864197531" y="981.7037037037037"/>
      <point x="1076.9012345679012" y="981.4691358024692" type="curve" smooth="yes"/>
      <point x="750.4814814814815" y="981.2345679012345" type="line"/>
      <point x="764.5432098765432" y="860.5802469135803" type="line"/>
      <point x="1097.4814814814815" y="860.5802469135803" type="line" smooth="yes"/>
      <point x="1184.8641975308642" y="860.5802469135803"/>
      <point x="1238.5802469135801" y="835.6296296296297"/>
      <point x="1238.5802469135801" y="751.0123456790124" type="curve" smooth="yes"/>
      <point x="1238.5802469135801" y="680.1358024691358"/>
      <point x="1165.0493827160494" y="616.9382716049382"/>
      <point x="977.7530864197531" y="566.5802469135803" type="curve"/>
      <point x="1034.8765432098764" y="296.65432098765433"/>
      <point x="1188.5061728395062" y="151.49382716049382"/>
    </contour>
    <contour>
      <point x="1717.0987654320988" y="0.0" type="line"/>
      <point x="1862.8024691358025" y="0.0" type="line"/>
      <point x="1862.8024691358025" y="1160.851851851852" type="line"/>
      <point x="1717.0987654320988" y="1160.851851851852" type="line"/>
    </contour>
    <component base="tt_tta-deva"/>
  </outline>
</glyph>
<glyph name="tth_tth_ya-deva" format="2">
  <advance width="2209.456790123457"/>
  <anchor x="1917.5555555555557" y="0.0" name="bottom"/>
  <anchor x="1824.6172839506173" y="1257.148148148148" name="candra"/>
  <anchor x="1915.679012345679" y="1287.7654320987654" name="top"/>
  <outline>
    <contour>
      <point x="1025.0123456790122" y="1133.851851851852" type="line"/>
      <point x="2223.864197530864" y="1133.851851851852" type="line"/>
      <point x="2223.864197530864" y="1256.3827160493827" type="line"/>
      <point x="1025.0123456790122" y="1256.3827160493827" type="line"/>
    </contour>
    <contour>
      <point x="1544.5555555555557" y="151.49382716049382" type="curve" smooth="yes"/>
      <point x="1672.0246913580247" y="151.49382716049382"/>
      <point x="1780.3333333333333" y="198.25925925925927"/>
      <point x="1868.2222222222222" y="289.91358024691357" type="curve"/>
      <point x="1874.0987654320988" y="473.1975308641975" type="line"/>
      <point x="1791.6296296296296" y="336.1975308641975"/>
      <point x="1649.0864197530864" y="284.55555555555554"/>
      <point x="1535.20987654321" y="284.55555555555554" type="curve" smooth="yes"/>
      <point x="1392.8395061728395" y="284.55555555555554"/>
      <point x="1284.5925925925926" y="366.22222222222223"/>
      <point x="1248.5925925925926" y="529.0617283950618" type="curve"/>
      <point x="1227.7654320987654" y="474.0246913580247" type="line"/>
      <point x="1328.3456790123457" y="499.30864197530866"/>
      <point x="1504.1851851851852" y="573.4938271604939"/>
      <point x="1504.1851851851852" y="756.1358024691358" type="curve" smooth="yes"/>
      <point x="1504.1851851851852" y="931.358024691358"/>
      <point x="1391.0123456790122" y="981.4691358024692"/>
      <point x="1206.3827160493827" y="981.4691358024692" type="curve" smooth="yes"/>
      <point x="740.0864197530864" y="981.2345679012345" type="line"/>
      <point x="754.1481481481482" y="860.5802469135803" type="line"/>
      <point x="1226.962962962963" y="860.5802469135803" type="line" smooth="yes"/>
      <point x="1314.3456790123457" y="860.5802469135803"/>
      <point x="1368.0617283950617" y="835.6296296296297"/>
      <point x="1368.0617283950617" y="751.0123456790124" type="curve" smooth="yes"/>
      <point x="1368.0617283950617" y="680.1358024691358"/>
      <point x="1294.530864197531" y="616.9382716049382"/>
      <point x="1107.2345679012346" y="566.5802469135803" type="curve"/>
      <point x="1164.358024691358" y="296.65432098765433"/>
      <point x="1317.9876543209878" y="151.49382716049382"/>
    </contour>
    <contour>
      <point x="1846.5802469135801" y="0.0" type="line"/>
      <point x="1992.2839506172838" y="0.0" type="line"/>
      <point x="1992.2839506172838" y="1160.851851851852" type="line"/>
      <point x="1846.5802469135801" y="1160.851851851852" type="line"/>
    </contour>
    <component base="tth_ttha-deva"/>
  </outline>
</glyph>
